<?xml version="1.0" encoding="utf-8"?>
<!-- Generator: Adobe Illustrator 25.1.0, SVG Export Plug-In . SVG Version: 6.00 Build 0)  -->
<svg version="1.1" id="Layer_1" xmlns="http://www.w3.org/2000/svg" xmlns:xlink="http://www.w3.org/1999/xlink" x="0px" y="0px"
	 viewBox="0 0 814 395" style="enable-background:new 0 0 814 395;" xml:space="preserve">
<style type="text/css">
	.st0{fill:#E9B949;}
	.st1{fill:#FFFFFF;}
</style>
<path d="M191.91,0c-20.49,5.87-39.15,16.77-54.55,31.92c-18.38,18.09-30.77,40.95-35.83,66.09l-0.2,0.99H0V0H191.91z"/>
<path d="M343.46,99H243.9c-4.69-3.16-10.33-5-16.4-5H112.7c11.35-44.13,48.1-78.73,93.21-87.03C212.96,5.66,220.22,5,227.5,5
	C283.4,5,332.02,44.48,343.46,99z"/>
<path d="M423,0v99h-50v-1h0.57c-0.18-0.89-0.37-1.78-0.57-2.66C361.75,45.19,320,6.57,268.24,0H423z"/>
<rect x="428" y="5" width="188" height="89"/>
<rect x="720" width="94" height="99"/>
<g>
	<polygon class="st0" points="621,0 621,99 616,99 616,94 428,94 428,5 616,5 616,0 	"/>
	<path class="st1" d="M418-5v109h208V-5H418z M423,99V0h193v99H423z"/>
	<polygon class="st0" points="428,5 428,94 616,94 616,99 423,99 423,0 616,0 616,5 	"/>
</g>
<path d="M216.69,246.53c-2.25-0.17-4.48-0.39-6.69-0.71c-1.68-0.23-3.35-0.5-5-0.8V247h-24v-4h-75v-95h0.43
	c0.28,1.39,0.58,2.77,0.91,4.14c0.1,0.42,0.2,0.85,0.31,1.27c0.06,0.25,0.12,0.5,0.19,0.75c0.12,0.48,0.24,0.95,0.37,1.42
	c0.16,0.61,0.33,1.21,0.5,1.81c0.18,0.65,0.37,1.3,0.57,1.94c0.1,0.35,0.21,0.7,0.32,1.04c0.16,0.54,0.33,1.07,0.51,1.6
	c0.15,0.48,0.32,0.96,0.48,1.44c0.04,0.11,0.08,0.22,0.11,0.34c0.06,0.16,0.12,0.33,0.18,0.5c0.19,0.56,0.39,1.12,0.6,1.67
	c0.11,0.3,0.22,0.6,0.33,0.9c0.01,0.03,0.02,0.05,0.03,0.08c0.07,0.17,0.13,0.35,0.2,0.52c0.01,0.05,0.03,0.1,0.06,0.15
	c0.14,0.38,0.29,0.76,0.44,1.13c0.14,0.38,0.29,0.76,0.45,1.13c0.05,0.13,0.1,0.26,0.15,0.39c0.07,0.16,0.13,0.32,0.21,0.48
	c0.06,0.16,0.12,0.31,0.19,0.47c0.18,0.44,0.37,0.88,0.56,1.32c0.33,0.76,0.67,1.52,1.01,2.27c0.17,0.38,0.34,0.75,0.53,1.13
	c0.17,0.37,0.35,0.75,0.53,1.12c0.04,0.09,0.08,0.18,0.13,0.27c0.06,0.14,0.12,0.27,0.19,0.4c0.08,0.18,0.17,0.35,0.26,0.52
	c0.06,0.13,0.12,0.26,0.18,0.38c0.17,0.35,0.35,0.69,0.53,1.03c0.03,0.06,0.05,0.13,0.09,0.19c0.08,0.16,0.16,0.32,0.24,0.48
	c0.04,0.06,0.07,0.13,0.1,0.19c0.01,0.01,0.01,0.01,0.02,0.02c0,0.01,0.01,0.03,0.02,0.04c0.01,0.03,0.03,0.06,0.04,0.09
	c0.51,1,1.05,1.97,1.6,2.95c0.15,0.27,0.31,0.55,0.46,0.82c0.6,1.07,1.23,2.12,1.87,3.16c0.1,0.16,0.19,0.33,0.3,0.49
	c0.18,0.29,0.35,0.58,0.54,0.86c0.01,0.03,0.03,0.06,0.05,0.09c0.06,0.11,0.13,0.21,0.2,0.31c0.33,0.54,0.68,1.08,1.03,1.61
	c0.02,0.04,0.05,0.08,0.08,0.11c0.03,0.06,0.06,0.12,0.11,0.17c0.42,0.65,0.85,1.3,1.29,1.94c0.25,0.37,0.5,0.73,0.76,1.09
	c0.43,0.62,0.87,1.24,1.31,1.85c0.89,1.23,1.81,2.43,2.74,3.62c0.47,0.6,0.94,1.19,1.42,1.77c0.33,0.4,0.66,0.8,0.99,1.2
	c0.19,0.23,0.38,0.46,0.57,0.68c0.28,0.33,0.56,0.66,0.85,0.99c0.67,0.77,1.34,1.53,2.02,2.28c0.02,0.02,0.03,0.04,0.05,0.05
	c0.7,0.76,1.41,1.52,2.13,2.27c0.41,0.44,0.83,0.87,1.25,1.3c0.6,0.6,1.2,1.2,1.81,1.79c0.64,0.62,1.29,1.24,1.94,1.84
	c0.32,0.3,0.64,0.59,0.96,0.89c0.32,0.3,0.64,0.59,0.97,0.87c0.65,0.58,1.3,1.15,1.96,1.72c0.46,0.4,0.93,0.79,1.4,1.18
	c0.8,0.67,1.61,1.33,2.43,1.98c1.19,0.93,2.4,1.85,3.62,2.74c1.22,0.89,2.46,1.76,3.71,2.61c0.63,0.43,1.26,0.85,1.9,1.26
	c1.27,0.83,2.56,1.63,3.86,2.41c0.65,0.39,1.31,0.77,1.97,1.15c0.66,0.38,1.33,0.76,1.99,1.13c0.67,0.36,1.34,0.72,2.01,1.07
	c0.57,0.3,1.15,0.6,1.73,0.9c0.1,0.05,0.2,0.1,0.3,0.14v0.01c0.11,0.05,0.23,0.11,0.34,0.16c0.57,0.29,1.14,0.57,1.72,0.84
	c0.69,0.34,1.38,0.66,2.07,0.98c1.39,0.63,2.8,1.24,4.22,1.83c1.42,0.58,2.85,1.14,4.29,1.67c0.01,0,0.01,0.01,0.01,0.01
	c1.44,0.53,2.9,1.03,4.36,1.51c1.32,0.43,2.65,0.83,3.98,1.22c0.9,0.26,1.81,0.51,2.71,0.75c0.91,0.24,1.83,0.47,2.75,0.69
	c2.11,0.51,4.25,0.96,6.41,1.36c0.14,0.03,0.29,0.05,0.43,0.08c0.16,0.03,0.33,0.06,0.49,0.08c0.31,0.06,0.63,0.12,0.94,0.16
	c0.18,0.04,0.36,0.07,0.54,0.1c0.45,0.07,0.91,0.15,1.36,0.21c0.2,0.04,0.41,0.07,0.62,0.09c0.15,0.03,0.31,0.05,0.47,0.07
	c0.05,0.01,0.1,0.02,0.15,0.03c0.37,0.05,0.74,0.1,1.12,0.15c0.1,0.01,0.21,0.03,0.32,0.04c0.42,0.06,0.85,0.11,1.28,0.16
	c0.05,0.01,0.11,0.02,0.16,0.02c0.14,0.02,0.28,0.03,0.42,0.05c0.21,0.02,0.43,0.05,0.65,0.07c0.66,0.07,1.32,0.14,1.98,0.2
	C216.18,246.49,216.44,246.51,216.69,246.53z"/>
<path d="M218.03,246.64c-0.21-0.02-0.43-0.03-0.65-0.05c0.07,0.01,0.14,0.01,0.22,0.01C217.74,246.62,217.89,246.63,218.03,246.64z"
	/>
<path d="M218.93,246.71c-0.17-0.01-0.34-0.03-0.51-0.04h0.02C218.6,246.68,218.76,246.7,218.93,246.71z"/>
<path d="M224.63,246.97c-0.84-0.02-1.67-0.04-2.5-0.08c-0.12-0.01-0.24-0.01-0.35-0.02c0.33,0.02,0.66,0.03,0.99,0.04
	C223.39,246.94,224.01,246.96,224.63,246.97z"/>
<path d="M112.7,153h114.8c6.07,0,11.71-1.84,16.4-5h99.56c-11.45,54.53-60.06,94-115.96,94c-7.28,0-14.54-0.66-21.6-1.97
	c-0.3-0.06-0.6-0.11-0.9-0.17C160.31,231.27,123.97,196.84,112.7,153z"/>
<path d="M224.63,246.97c-6.69-0.13-13.25-0.79-19.63-1.95c-0.13-0.02-0.26-0.05-0.39-0.07C155.09,235.84,115.9,197.22,106,148h0.43
	c9.9,49.22,49.07,87.84,98.57,96.95C211.38,246.13,217.94,246.81,224.63,246.97z"/>
<path d="M675.82,148H626v50h80.59C699.85,179.25,689.28,162.26,675.82,148z M689.19,148c10.91,13.01,19.69,27.84,25.81,43.93V148
	H689.19z M720,148v99h94v-99H720z M626,208v34h88.93c0.05,1.5,0.07,3,0.07,4.5V208H626z M428,208v38.5c0-1.5,0.02-3.01,0.07-4.5H517
	v-34H428z M428,208v38.5c0-1.5,0.02-3.01,0.07-4.5H517v-34H428z M428,208v38.5c0-1.5,0.02-3.01,0.07-4.5H517v-34H428z M428,208v38.5
	c0-1.5,0.02-3.01,0.07-4.5H517v-34H428z M428,208v38.5c0-1.5,0.02-3.01,0.07-4.5H517v-34H428z M428,208v38.5
	c0-1.5,0.02-3.01,0.07-4.5H517v-34H428z M428,208v38.5c0-1.5,0.02-3.01,0.07-4.5H517v-34H428z"/>
<path d="M621,148v99h-94v-49H418v49H262.9c2.33-0.67,4.64-1.41,6.92-2.21c51.59-7.24,92.96-46.35,103.54-96.79H621z"/>
<path d="M571.5,395H205v-99h221.23c14.92,43.63,49.1,79.35,94.1,95.25c2.21,0.78,4.43,1.51,6.67,2.19v-5.23
	C541.04,392.62,555.99,395,571.5,395z"/>
<path d="M706.16,296c-0.17,0.49-0.36,0.96-0.54,1.45c-0.02,0.04-0.03,0.09-0.05,0.13c-0.02,0.04-0.03,0.09-0.05,0.13
	c-0.02,0.04-0.03,0.08-0.05,0.12c-0.23,0.61-0.47,1.21-0.71,1.81c-0.26,0.65-0.52,1.29-0.79,1.93c-0.65,1.57-1.33,3.13-2.04,4.67
	c-0.26,0.58-0.53,1.15-0.8,1.72c-0.2,0.41-0.39,0.81-0.59,1.21c-0.49,1.02-1,2.03-1.52,3.04c-0.01,0.02-0.02,0.05-0.04,0.07
	c-0.27,0.53-0.55,1.06-0.83,1.58c-0.33,0.63-0.67,1.25-1.01,1.87c-0.35,0.63-0.7,1.27-1.06,1.89c-0.36,0.63-0.72,1.25-1.09,1.87
	c-0.35,0.59-0.7,1.17-1.06,1.76c-0.3,0.51-0.61,1.01-0.93,1.51c-0.51,0.82-1.03,1.62-1.56,2.43c-0.53,0.81-1.06,1.61-1.61,2.4
	c-0.43,0.63-0.87,1.26-1.31,1.88c-0.02,0.03-0.04,0.06-0.06,0.09c-0.16,0.23-0.33,0.46-0.5,0.69c-0.48,0.69-0.98,1.37-1.49,2.04
	c-0.31,0.42-0.62,0.84-0.94,1.26c-0.05,0.06-0.09,0.12-0.14,0.18c-0.11,0.14-0.22,0.28-0.32,0.42c-0.37,0.47-0.74,0.94-1.11,1.41
	c-0.25,0.32-0.5,0.64-0.75,0.95c-0.08,0.09-0.15,0.19-0.23,0.28c-0.01,0.01-0.01,0.01-0.01,0.02c-0.37,0.45-0.75,0.9-1.11,1.34
	c-0.51,0.62-1.02,1.23-1.54,1.83c-0.12,0.15-0.25,0.29-0.37,0.43c-0.54,0.63-1.08,1.25-1.64,1.86c-0.29,0.33-0.58,0.65-0.87,0.97
	c-0.3,0.32-0.59,0.64-0.89,0.96c-0.49,0.52-0.98,1.04-1.47,1.56c-0.25,0.27-0.51,0.54-0.76,0.8c-0.48,0.49-0.96,0.98-1.45,1.46
	c-0.08,0.1-0.18,0.19-0.27,0.28c-0.03,0.03-0.07,0.07-0.1,0.09c-0.27,0.28-0.55,0.55-0.82,0.81l-0.93,0.9
	c-0.3,0.29-0.61,0.58-0.91,0.87c-0.36,0.34-0.71,0.67-1.07,1c-0.55,0.51-1.1,1.01-1.66,1.51c-0.15,0.14-0.3,0.27-0.45,0.41
	c-0.65,0.57-1.31,1.15-1.97,1.71c-0.69,0.6-1.39,1.18-2.09,1.76c-0.36,0.29-0.71,0.58-1.06,0.86c-0.36,0.29-0.71,0.58-1.07,0.86
	c-0.3,0.24-0.6,0.47-0.9,0.7c-0.42,0.33-0.84,0.66-1.26,0.98c-0.02,0.02-0.04,0.03-0.06,0.05c-1.39,1.06-2.81,2.1-4.25,3.11
	c-0.04,0.03-0.08,0.06-0.12,0.08c-1.5,1.06-3.02,2.09-4.56,3.08c-0.03,0.02-0.07,0.04-0.1,0.07c-0.6,0.39-1.21,0.78-1.83,1.16
	c-0.24,0.16-0.49,0.31-0.74,0.46c-0.12,0.07-0.23,0.14-0.35,0.21c-0.28,0.17-0.56,0.34-0.84,0.51c-0.28,0.17-0.56,0.33-0.84,0.5
	c-0.73,0.44-1.47,0.87-2.21,1.29c-0.63,0.36-1.26,0.71-1.9,1.06c-0.45,0.25-0.9,0.49-1.35,0.73c-0.51,0.28-1.02,0.55-1.54,0.82
	c-0.18,0.09-0.36,0.18-0.54,0.28c-0.56,0.28-1.12,0.57-1.69,0.85c-0.34,0.17-0.68,0.34-1.03,0.51c-0.04,0.02-0.07,0.04-0.11,0.05
	c-0.31,0.16-0.63,0.31-0.95,0.46c-0.32,0.16-0.64,0.3-0.96,0.45c-0.64,0.31-1.29,0.6-1.94,0.9c-0.47,0.21-0.94,0.42-1.41,0.62
	c-0.73,0.32-1.47,0.64-2.21,0.94c-0.17,0.08-0.34,0.15-0.51,0.22c-0.03,0.01-0.05,0.02-0.08,0.03c-0.06,0.03-0.13,0.05-0.19,0.08
	v-0.01c-1.65,0.69-3.31,1.34-5,1.95c-0.55,0.21-1.11,0.41-1.67,0.61c-1.11,0.39-2.22,0.77-3.33,1.12
	c-14.32,4.68-29.27,7.05-44.5,7.05s-30.18-2.37-44.5-7.05c-1.11-0.35-2.22-0.73-3.33-1.12c-0.56-0.2-1.12-0.4-1.67-0.61
	c-1.69-0.61-3.35-1.26-5-1.95v0.01c-0.06-0.03-0.11-0.05-0.17-0.07c-0.07-0.03-0.15-0.06-0.22-0.09c-0.13-0.05-0.26-0.11-0.39-0.17
	c-0.74-0.3-1.48-0.62-2.21-0.94c-0.47-0.2-0.94-0.41-1.41-0.62c-0.65-0.3-1.3-0.59-1.94-0.9c-0.68-0.31-1.35-0.63-2.02-0.96
	c-0.35-0.17-0.69-0.34-1.03-0.51c-0.75-0.37-1.49-0.75-2.23-1.13c-0.52-0.27-1.03-0.54-1.54-0.82c-1.1-0.58-2.18-1.18-3.25-1.79
	c-0.74-0.42-1.48-0.85-2.21-1.29c-0.68-0.4-1.36-0.81-2.03-1.22c-0.9-0.55-1.79-1.11-2.67-1.69c-1.54-0.99-3.06-2.02-4.56-3.08
	c-0.04-0.02-0.08-0.05-0.12-0.08c-1.44-1.01-2.85-2.05-4.25-3.11c-0.02-0.02-0.04-0.03-0.06-0.05c-0.73-0.55-1.45-1.11-2.16-1.68
	c-0.72-0.57-1.42-1.14-2.13-1.72c-0.7-0.58-1.4-1.16-2.09-1.76c-0.66-0.56-1.32-1.14-1.97-1.71c-0.15-0.14-0.3-0.27-0.45-0.41
	c-0.56-0.5-1.11-1-1.66-1.51c-0.67-0.61-1.33-1.24-1.98-1.87c-0.62-0.59-1.24-1.2-1.85-1.8c-1.35-1.34-2.66-2.71-3.95-4.1
	c-0.6-0.64-1.18-1.28-1.76-1.93c-0.56-0.61-1.1-1.23-1.64-1.86c-0.12-0.14-0.25-0.28-0.37-0.43c-0.52-0.6-1.03-1.21-1.54-1.83
	c-0.45-0.54-0.9-1.09-1.35-1.64c-0.25-0.31-0.5-0.63-0.75-0.95c-0.48-0.61-0.96-1.22-1.43-1.83c-0.37-0.48-0.73-0.96-1.08-1.44
	c-2.31-3.09-4.48-6.26-6.53-9.53c-0.32-0.5-0.63-1-0.93-1.51c-1.11-1.81-2.18-3.65-3.21-5.51c-0.44-0.79-0.87-1.59-1.29-2.39
	c-0.29-0.54-0.56-1.07-0.83-1.61c-0.29-0.55-0.57-1.11-0.84-1.67c-0.27-0.53-0.53-1.06-0.78-1.59c-0.73-1.52-1.44-3.07-2.12-4.62
	c-0.24-0.55-0.48-1.1-0.71-1.66c-0.19-0.45-0.38-0.9-0.57-1.36c-0.3-0.74-0.6-1.48-0.89-2.22c-0.06-0.15-0.12-0.3-0.18-0.46
	c-0.28-0.72-0.55-1.44-0.81-2.16h106.83c3.03,1.81,6.26,3.33,9.66,4.53c5.81,2.06,11.93,3.11,18.17,3.11s12.36-1.05,18.17-3.11
	c3.4-1.2,6.64-2.72,9.66-4.53H706.16z"/>
<path d="M814,296v99H571.5c15.51,0,30.46-2.38,44.5-6.79c1.68-0.53,3.35-1.09,5-1.67c0.9-0.32,1.79-0.64,2.68-0.98
	c0.89-0.33,1.78-0.67,2.66-1.03c0.83-0.32,1.65-0.66,2.47-1c1.36-0.57,2.71-1.16,4.06-1.78c0.02-0.01,0.05-0.02,0.07-0.03
	c0.53-0.24,1.05-0.48,1.58-0.73c0.63-0.29,1.25-0.59,1.87-0.89c0.49-0.24,0.97-0.48,1.45-0.72c0.22-0.11,0.45-0.22,0.67-0.33
	c0.07-0.04,0.14-0.07,0.21-0.11c0.38-0.19,0.76-0.39,1.14-0.59c1.55-0.8,3.08-1.63,4.6-2.49c0.62-0.35,1.23-0.7,1.84-1.06
	c0.12-0.07,0.23-0.14,0.35-0.21c0.01,0,0.03-0.01,0.04-0.02c0.81-0.47,1.61-0.95,2.4-1.44c0.73-0.45,1.47-0.91,2.19-1.37
	c0.37-0.23,0.73-0.46,1.09-0.7c0.49-0.32,0.98-0.64,1.46-0.96c0.59-0.39,1.17-0.79,1.75-1.19c0.71-0.49,1.41-0.98,2.11-1.48
	c0.5-0.36,1-0.72,1.5-1.09c1.17-0.85,2.32-1.71,3.45-2.6c0.54-0.42,1.08-0.85,1.62-1.28c0.53-0.42,1.06-0.86,1.59-1.29
	c0.53-0.44,1.06-0.88,1.58-1.32s1.04-0.89,1.56-1.34c0.43-0.38,0.86-0.75,1.28-1.12c0.03-0.03,0.05-0.06,0.08-0.08
	c0.12-0.1,0.23-0.2,0.34-0.31c0.42-0.37,0.84-0.76,1.26-1.14c1.06-0.97,2.1-1.96,3.13-2.96c0.47-0.46,0.95-0.93,1.42-1.4
	c0.48-0.48,0.97-0.97,1.44-1.46c0.97-0.99,1.92-2,2.85-3.02c0.46-0.49,0.91-0.99,1.36-1.49c0.46-0.51,0.91-1.02,1.36-1.54
	c0.6-0.68,1.18-1.36,1.76-2.06c0.38-0.43,0.74-0.87,1.09-1.31c0.39-0.47,0.77-0.94,1.15-1.42c0.11-0.12,0.21-0.25,0.31-0.38
	c0.06-0.08,0.13-0.16,0.19-0.24c0.47-0.59,0.94-1.2,1.39-1.8c0.08-0.09,0.14-0.17,0.21-0.26c0.65-0.85,1.29-1.7,1.92-2.57
	c0.04-0.05,0.08-0.11,0.11-0.16c0.25-0.34,0.5-0.67,0.74-1.02c0.52-0.72,1.02-1.44,1.52-2.17s1-1.46,1.49-2.2
	c0.3-0.44,0.59-0.89,0.88-1.34c0.02-0.03,0.04-0.07,0.06-0.1c0.24-0.37,0.48-0.74,0.71-1.11c0.4-0.63,0.8-1.27,1.19-1.9
	c0.46-0.75,0.91-1.49,1.35-2.25c1.31-2.23,2.56-4.49,3.76-6.79c0.02-0.04,0.05-0.09,0.07-0.13c0.24-0.47,0.48-0.94,0.72-1.42
	c0.35-0.69,0.7-1.39,1.04-2.09c0.37-0.75,0.72-1.5,1.07-2.25c0.31-0.66,0.61-1.32,0.9-1.99c0.06-0.13,0.12-0.27,0.18-0.41
	c0.36-0.8,0.7-1.59,1.04-2.39c0.34-0.8,0.67-1.61,0.99-2.41c0.2-0.49,0.39-0.97,0.58-1.46c0.12-0.3,0.24-0.61,0.35-0.91
	c0.18-0.47,0.36-0.94,0.54-1.42c0.24-0.67,0.49-1.35,0.73-2.03H814z"/>
<rect y="296" width="89" height="99"/>
<rect y="148" width="89" height="99"/>
<rect x="725" width="89" height="99"/>
<rect x="111" y="296" width="89" height="94"/>
<rect x="106" y="296" width="99" height="99"/>
<path d="M205,153v86.86c-44.69-8.59-81.03-43.02-92.3-86.86H205z"/>
<path d="M205,244.95v0.07c-0.13-0.02-0.26-0.05-0.39-0.07C155.09,235.84,115.9,197.22,106,148h0.43
	C116.33,197.22,155.5,235.84,205,244.95z"/>
<g>
	<path d="M200,254.16V390h-89V188.82c6.1,10.87,13.74,20.85,22.85,29.82C152.19,236.69,175,248.93,200,254.16z"/>
	<path class="st1" d="M110.73,163.81l-0.14-0.4c0.04,0.11,0.08,0.22,0.11,0.34c0.06,0.16,0.12,0.33,0.18,0.5
		C110.83,164.1,110.78,163.96,110.73,163.81z M204.61,244.95c-1.48-0.27-2.96-0.57-4.42-0.9c-0.73-0.16-1.46-0.33-2.19-0.51
		c-1.76-0.42-3.52-0.89-5.25-1.4c-0.56-0.15-1.11-0.31-1.66-0.49c-0.46-0.13-0.91-0.27-1.36-0.42c-0.55-0.17-1.11-0.35-1.66-0.53
		c-0.41-0.14-0.82-0.28-1.23-0.42c-1.25-0.43-2.48-0.88-3.72-1.35c-0.54-0.2-1.08-0.41-1.61-0.63c-0.5-0.19-1-0.39-1.5-0.61
		c-0.48-0.19-0.95-0.39-1.42-0.59c-1.21-0.51-2.4-1.04-3.59-1.6c-0.82-0.38-1.63-0.77-2.44-1.17c-0.78-0.39-1.56-0.78-2.33-1.18
		c-0.23-0.11-0.45-0.23-0.67-0.35c-0.69-0.36-1.38-0.73-2.06-1.11c-0.74-0.41-1.48-0.82-2.21-1.25c-0.45-0.26-0.9-0.53-1.35-0.8
		c-0.1-0.05-0.2-0.11-0.3-0.18c-0.39-0.23-0.78-0.46-1.16-0.7c-1.16-0.71-2.31-1.44-3.44-2.19c-0.5-0.33-0.99-0.66-1.48-1
		c-0.54-0.37-1.08-0.74-1.61-1.12c-0.95-0.65-1.88-1.33-2.8-2.03c-0.35-0.25-0.69-0.51-1.03-0.78c-2.15-1.63-4.24-3.34-6.27-5.12
		c-0.54-0.47-1.09-0.95-1.62-1.44c-1.26-1.13-2.49-2.29-3.69-3.48c-0.6-0.58-1.19-1.17-1.77-1.77c-0.59-0.6-1.17-1.21-1.74-1.82
		c-1.45-1.54-2.86-3.12-4.22-4.73c-0.26-0.3-0.51-0.6-0.76-0.9c-2.58-3.1-5-6.32-7.26-9.65c-0.33-0.49-0.66-0.98-0.98-1.47
		c-0.33-0.5-0.66-1-0.98-1.51c-0.5-0.78-0.99-1.57-1.47-2.37c-0.3-0.48-0.58-0.96-0.87-1.45v-0.01c-0.36-0.6-0.71-1.21-1.05-1.82
		c-0.08-0.13-0.15-0.27-0.23-0.41c-0.28-0.5-0.56-1-0.83-1.51c-0.24-0.44-0.48-0.88-0.71-1.33c-0.3-0.57-0.59-1.14-0.88-1.71
		c-0.69-1.35-1.35-2.72-1.98-4.1c-0.18-0.38-0.35-0.77-0.52-1.15c-0.96-2.13-1.85-4.29-2.68-6.48c-0.14-0.36-0.28-0.72-0.41-1.08
		c-0.29-0.79-0.58-1.59-0.86-2.4c-0.22-0.62-0.43-1.25-0.63-1.88c-0.27-0.8-0.53-1.61-0.77-2.43c-0.16-0.5-0.31-1-0.45-1.5
		c-0.39-1.32-0.75-2.66-1.09-4c-0.01-0.01-0.01-0.01-0.01-0.02l-1.39-4.05l-2.42-7.05l-2.58-7.49v10.86l0.53,2.62
		c1.13,5.61,2.62,11.1,4.47,16.45c6.41,18.65,17.08,35.58,31.36,49.64c0.87,0.85,1.74,1.69,2.63,2.51c0.7,0.66,1.4,1.3,2.12,1.93
		c0.81,0.72,1.62,1.43,2.44,2.13c0.66,0.56,1.32,1.11,1.99,1.65c0.39,0.32,0.78,0.63,1.17,0.93c0.43,0.35,0.86,0.69,1.3,1.02
		c0.55,0.43,1.11,0.86,1.67,1.27c0.62,0.48,1.25,0.94,1.89,1.39c0.04,0.03,0.08,0.06,0.12,0.08c0.69,0.51,1.39,1,2.1,1.48
		c0.44,0.31,0.88,0.61,1.33,0.91c0.44,0.3,0.88,0.59,1.33,0.88c0.81,0.53,1.63,1.05,2.45,1.56c0.2,0.12,0.39,0.24,0.59,0.36
		c0.74,0.46,1.49,0.9,2.24,1.34c0.1,0.06,0.19,0.12,0.29,0.17c0.03,0.02,0.07,0.04,0.1,0.06c0.67,0.39,1.36,0.78,2.04,1.15
		c0.06,0.04,0.13,0.07,0.19,0.11c0.23,0.14,0.47,0.27,0.71,0.39c0.81,0.45,1.63,0.88,2.45,1.3c0.44,0.23,0.88,0.46,1.33,0.68
		c0.44,0.22,0.89,0.44,1.34,0.66c0.11,0.07,0.23,0.12,0.35,0.18c0.08,0.04,0.16,0.08,0.25,0.12c0.82,0.39,1.64,0.78,2.48,1.16
		c0.82,0.37,1.64,0.73,2.47,1.09c0.28,0.12,0.56,0.24,0.84,0.35c0.07,0.03,0.15,0.06,0.22,0.09c0.77,0.33,1.56,0.65,2.34,0.96
		c0,0,0.01,0.01,0.02,0.01c0.28,0.12,0.56,0.23,0.85,0.34c0.04,0.02,0.09,0.03,0.13,0.05c0.74,0.28,1.48,0.56,2.22,0.83
		c0.42,0.16,0.83,0.3,1.25,0.45c0.14,0.05,0.29,0.1,0.43,0.15c0.46,0.16,0.91,0.32,1.38,0.47c0.78,0.27,1.56,0.52,2.35,0.76
		c0.25,0.09,0.5,0.17,0.75,0.24c0.79,0.24,1.6,0.48,2.4,0.71c0.93,0.27,1.87,0.53,2.82,0.78c0.14,0.04,0.29,0.08,0.44,0.11
		c0.45,0.11,0.89,0.23,1.34,0.34c0.39,0.1,0.78,0.2,1.17,0.29c0.06,0.01,0.12,0.03,0.18,0.04c0.08,0.02,0.16,0.04,0.24,0.05
		c0.85,0.21,1.71,0.4,2.57,0.58c0.18,0.04,0.37,0.08,0.56,0.11c0.28,0.06,0.56,0.12,0.84,0.18c0.67,0.14,1.34,0.27,2.02,0.39
		c0.3,0.06,0.6,0.11,0.91,0.16v-5.01C204.87,245,204.74,244.97,204.61,244.95z M205.92,245.11c0.31,0.06,0.63,0.12,0.94,0.16
		c0.18,0.04,0.36,0.07,0.54,0.1c0.14,0.02,0.27,0.04,0.41,0.06c0.31,0.06,0.63,0.11,0.95,0.15c0.2,0.04,0.41,0.07,0.62,0.09
		L205.92,245.11z"/>
	<polygon points="205,296 205,395 106,395 106,296 111,296 111,390 200,390 200,296 	"/>
	<path d="M205,250.03V296h-5v-41.84c-0.7-0.15-1.4-0.3-2.1-0.46c-0.69-0.16-1.39-0.32-2.08-0.49c-0.5-0.12-1.01-0.25-1.51-0.38
		c-0.43-0.1-0.85-0.21-1.28-0.33c-0.69-0.18-1.37-0.37-2.05-0.56c-0.56-0.16-1.12-0.32-1.67-0.49c-0.58-0.17-1.15-0.34-1.72-0.52
		c-0.68-0.21-1.36-0.43-2.03-0.65c-0.55-0.18-1.09-0.36-1.63-0.55c-0.61-0.21-1.21-0.42-1.81-0.64c-3.66-1.32-7.26-2.8-10.78-4.43
		c-0.51-0.24-1.02-0.48-1.54-0.73c-0.63-0.3-1.27-0.61-1.9-0.93c-0.78-0.39-1.55-0.79-2.32-1.19c-0.77-0.4-1.53-0.81-2.28-1.22
		c-0.01-0.01-0.03-0.01-0.04-0.02c-0.74-0.41-1.48-0.82-2.21-1.24c-0.03-0.02-0.05-0.03-0.07-0.04c-0.75-0.44-1.49-0.87-2.23-1.32
		c-0.66-0.39-1.3-0.79-1.95-1.2c-0.19-0.11-0.37-0.23-0.55-0.34c-1.34-0.85-2.66-1.72-3.96-2.61c-1.69-1.15-3.34-2.34-4.97-3.57
		c-0.44-0.32-0.87-0.65-1.29-0.97c-0.6-0.47-1.2-0.94-1.79-1.41c-0.45-0.36-0.9-0.73-1.34-1.1c-0.08-0.06-0.16-0.12-0.24-0.19
		c-0.53-0.43-1.04-0.87-1.56-1.3c-0.53-0.46-1.06-0.91-1.58-1.38c-0.45-0.38-0.89-0.78-1.33-1.18c-0.35-0.31-0.69-0.62-1.03-0.93
		c-0.53-0.49-1.06-0.98-1.58-1.48c-0.58-0.55-1.16-1.11-1.73-1.67c-9.11-8.97-16.75-18.95-22.85-29.82V296h-5V165.44
		c6.41,18.65,17.08,35.58,31.36,49.64c0.87,0.85,1.74,1.69,2.63,2.51c0.7,0.66,1.4,1.3,2.12,1.93c0.8,0.73,1.62,1.44,2.44,2.13
		c0.66,0.56,1.32,1.11,1.99,1.65c0.39,0.32,0.78,0.63,1.17,0.93c0.43,0.35,0.86,0.69,1.3,1.02c0.55,0.44,1.11,0.86,1.67,1.27
		c0.62,0.48,1.25,0.94,1.89,1.39c0.04,0.03,0.08,0.06,0.12,0.08c0.69,0.51,1.39,1,2.1,1.48c0.44,0.31,0.88,0.61,1.33,0.91
		c0.44,0.3,0.88,0.59,1.33,0.88c0.81,0.53,1.63,1.05,2.45,1.56c0.2,0.12,0.39,0.24,0.59,0.36c0.74,0.46,1.49,0.9,2.24,1.34
		c0.1,0.06,0.19,0.12,0.29,0.17c0.03,0.02,0.07,0.04,0.1,0.06c0.67,0.39,1.36,0.78,2.04,1.15c0.06,0.04,0.13,0.07,0.19,0.11
		c0.23,0.14,0.47,0.27,0.71,0.39c0.81,0.45,1.63,0.88,2.45,1.3c0.44,0.23,0.88,0.46,1.33,0.68c0.44,0.22,0.89,0.44,1.34,0.66
		c0.11,0.07,0.23,0.12,0.35,0.18c0.08,0.04,0.16,0.08,0.25,0.12c0.82,0.39,1.64,0.78,2.48,1.16c0.82,0.38,1.64,0.74,2.47,1.09
		c0.28,0.12,0.56,0.24,0.84,0.35c0.07,0.03,0.15,0.06,0.22,0.09c0.77,0.33,1.56,0.65,2.34,0.96c0,0,0.01,0.01,0.02,0.01
		c0.28,0.12,0.56,0.23,0.85,0.34c0.04,0.02,0.09,0.03,0.13,0.05c0.74,0.28,1.48,0.56,2.22,0.83c0.42,0.16,0.83,0.3,1.25,0.45
		c0.14,0.05,0.29,0.1,0.43,0.15c0.46,0.16,0.91,0.32,1.38,0.47c0.78,0.27,1.56,0.52,2.35,0.76c0.25,0.09,0.5,0.17,0.75,0.24
		c0.79,0.24,1.6,0.48,2.4,0.71c0.93,0.28,1.87,0.53,2.82,0.78c0.14,0.04,0.29,0.08,0.44,0.11c0.45,0.11,0.89,0.23,1.34,0.34
		c0.39,0.1,0.78,0.2,1.17,0.29c0.06,0.01,0.12,0.03,0.18,0.04c0.08,0.02,0.16,0.04,0.24,0.05c0.85,0.21,1.71,0.4,2.57,0.58
		c0.18,0.04,0.37,0.08,0.56,0.11c0.28,0.06,0.56,0.12,0.84,0.18c0.67,0.14,1.34,0.27,2.02,0.39
		C204.39,249.93,204.69,249.98,205,250.03z"/>
</g>
<path d="M205,2.05V99h-98.57C116.33,49.78,155.5,11.16,205,2.05z"/>
<g>
	<path d="M343.67,99.98c-0.07-0.33-0.13-0.66-0.21-0.98C332.02,44.48,283.4,5,227.5,5c-7.28,0-14.54,0.66-21.59,1.97
		c-45.11,8.3-81.86,42.9-93.21,87.03h114.8c6.07,0,11.71,1.84,16.4,5c7.9,5.29,13.1,14.3,13.1,24.5s-5.2,19.21-13.1,24.5
		c-4.69,3.16-10.33,5-16.4,5H112.7c11.27,43.84,47.61,78.27,92.3,86.86c0.3,0.06,0.6,0.11,0.9,0.17c7.06,1.31,14.32,1.97,21.6,1.97
		c55.9,0,104.51-39.47,115.96-94c0.08-0.33,0.14-0.66,0.21-0.99c1.55-7.7,2.33-15.61,2.33-23.51
		C346,115.6,345.22,107.69,343.67,99.98z"/>
	<path class="st1" d="M217.6,246.6c-0.08,0-0.15,0-0.22-0.01c0.22,0.02,0.44,0.03,0.65,0.05
		C217.89,246.63,217.74,246.62,217.6,246.6z M218.44,246.67c0.16,0.01,0.33,0.03,0.49,0.04c0.24,0.02,0.47,0.04,0.71,0.04
		C219.24,246.72,218.84,246.7,218.44,246.67z M110.73,163.81c-0.01-0.02-0.02-0.04-0.03-0.06c0.06,0.16,0.12,0.33,0.18,0.5
		C110.83,164.1,110.78,163.96,110.73,163.81z M116.75,178.2c-0.09-0.17-0.18-0.34-0.26-0.52c0.13,0.3,0.28,0.6,0.44,0.9
		c0.17,0.35,0.35,0.69,0.53,1.03C117.22,179.14,116.98,178.67,116.75,178.2z M118.51,181.62c-0.05-0.08-0.09-0.16-0.14-0.25
		c0.1,0.22,0.21,0.43,0.33,0.64c0.17,0.31,0.33,0.63,0.51,0.94c0.17,0.31,0.35,0.62,0.53,0.93
		C119.32,183.13,118.91,182.38,118.51,181.62z M117.93,180.53c-0.01-0.01-0.02-0.03-0.02-0.04c0,0.01,0.01,0.03,0.01,0.04
		c0.02,0.03,0.04,0.06,0.05,0.09C117.96,180.59,117.94,180.56,117.93,180.53z M122.73,188.91c-0.04-0.04-0.07-0.09-0.1-0.14
		c0.04,0.07,0.08,0.14,0.13,0.2C122.75,188.95,122.74,188.93,122.73,188.91z M127.56,196.08c0.88,1.22,1.8,2.43,2.74,3.62
		C129.37,198.51,128.45,197.31,127.56,196.08z M160.28,227.12c1.27,0.84,2.56,1.64,3.86,2.41
		C162.84,228.75,161.55,227.95,160.28,227.12z M176.27,235.91c1.4,0.65,2.8,1.25,4.22,1.83
		C179.07,237.15,177.66,236.54,176.27,235.91z M180.49,237.74c1.42,0.59,2.85,1.15,4.29,1.67
		C183.34,238.88,181.91,238.32,180.49,237.74z M184.79,239.42c1.44,0.53,2.89,1.04,4.36,1.51
		C187.69,240.45,186.23,239.95,184.79,239.42z M205,244.95l0.07,0.02c0.12,0.03,0.24,0.05,0.36,0.06
		C205.29,245,205.14,244.98,205,244.95z M206.86,245.27c0.18,0.04,0.36,0.07,0.54,0.1c0.14,0.02,0.27,0.04,0.41,0.06
		C207.5,245.38,207.18,245.33,206.86,245.27z M215.93,246.46c-0.66-0.06-1.32-0.13-1.98-0.2c-0.22-0.02-0.44-0.05-0.65-0.07
		c-0.14-0.02-0.28-0.03-0.42-0.05c-0.05,0-0.11-0.01-0.16-0.02c-0.43-0.05-0.86-0.1-1.28-0.16c-0.11-0.01-0.22-0.03-0.32-0.04
		c-0.38-0.05-0.75-0.1-1.12-0.15v0.05c2.21,0.32,4.44,0.54,6.69,0.71C216.44,246.51,216.18,246.49,215.93,246.46z M117.91,180.49
		c0,0.01,0.01,0.03,0.01,0.04h0.01C117.92,180.52,117.91,180.5,117.91,180.49z M116.75,178.2c0.06,0.13,0.12,0.26,0.18,0.38
		c0.17,0.35,0.35,0.69,0.53,1.03C117.22,179.14,116.98,178.67,116.75,178.2z M110.73,163.81c-0.01-0.02-0.02-0.04-0.03-0.06
		c0.06,0.16,0.12,0.33,0.18,0.5C110.83,164.1,110.78,163.96,110.73,163.81z M103.58,143h-3.26l0.68,3.37l0.53,2.62
		c1.13,5.61,2.62,11.1,4.47,16.45v-15.39L103.58,143z M222.77,246.91c-0.33-0.01-0.66-0.02-0.99-0.04c0.11,0.01,0.23,0.01,0.35,0.02
		c0.83,0.04,1.66,0.06,2.5,0.08C224.01,246.96,223.39,246.94,222.77,246.91z"/>
	<path d="M210,245.77v0.05c-1.68-0.23-3.35-0.5-5-0.8c-0.13-0.02-0.26-0.05-0.39-0.07c-1.48-0.27-2.96-0.57-4.42-0.9
		c-0.73-0.16-1.46-0.33-2.19-0.51c-1.76-0.42-3.52-0.89-5.25-1.4c-0.56-0.15-1.11-0.31-1.66-0.49c-0.46-0.13-0.91-0.27-1.36-0.42
		c-0.55-0.17-1.11-0.35-1.66-0.53c-0.41-0.14-0.82-0.28-1.23-0.42c-1.25-0.43-2.48-0.88-3.72-1.35c-0.54-0.2-1.08-0.41-1.61-0.63
		c-0.5-0.19-1-0.39-1.5-0.61c-0.48-0.19-0.95-0.39-1.42-0.59c-1.21-0.51-2.4-1.04-3.59-1.6c-0.82-0.38-1.63-0.77-2.44-1.17
		c-0.78-0.39-1.56-0.78-2.33-1.18c-0.23-0.11-0.45-0.23-0.67-0.35c-0.69-0.36-1.38-0.73-2.06-1.11c-0.74-0.41-1.48-0.82-2.21-1.25
		c-0.45-0.26-0.9-0.53-1.35-0.8c-0.1-0.05-0.2-0.11-0.3-0.18c-0.39-0.23-0.78-0.46-1.16-0.7c-1.16-0.71-2.31-1.44-3.44-2.19
		c-0.5-0.33-0.99-0.66-1.48-1c-0.54-0.37-1.08-0.74-1.61-1.12c-0.95-0.65-1.88-1.33-2.8-2.03c-0.35-0.25-0.69-0.51-1.03-0.78
		c-2.15-1.63-4.24-3.34-6.27-5.12c-0.54-0.47-1.09-0.95-1.62-1.44c-1.26-1.13-2.49-2.29-3.69-3.48c-0.6-0.58-1.19-1.17-1.77-1.77
		c-0.59-0.6-1.17-1.21-1.74-1.82c-1.45-1.54-2.86-3.12-4.22-4.73c-0.26-0.3-0.51-0.6-0.76-0.9c-2.58-3.1-5-6.32-7.26-9.65
		c-0.33-0.49-0.66-0.98-0.98-1.47c-0.33-0.5-0.66-1-0.98-1.51c-0.5-0.78-0.99-1.57-1.47-2.37c-0.3-0.48-0.58-0.96-0.87-1.45v-0.01
		c-0.36-0.6-0.71-1.21-1.05-1.82c-0.08-0.13-0.15-0.27-0.23-0.41c-0.28-0.5-0.56-1-0.83-1.51c-0.24-0.44-0.48-0.88-0.71-1.33
		c-0.3-0.57-0.59-1.14-0.88-1.71c-0.69-1.35-1.35-2.72-1.98-4.1c-0.18-0.38-0.35-0.77-0.52-1.15c-0.96-2.13-1.85-4.29-2.68-6.48
		c-0.14-0.36-0.28-0.72-0.41-1.08c-0.29-0.79-0.58-1.59-0.86-2.4c-0.22-0.62-0.43-1.25-0.63-1.88c-0.27-0.8-0.53-1.61-0.77-2.43
		c-0.16-0.5-0.31-1-0.45-1.5c-0.39-1.32-0.75-2.66-1.09-4l2.57,7.43c0.2,0.62,0.41,1.24,0.62,1.86c0.04,0.11,0.08,0.22,0.11,0.34
		c0.06,0.16,0.12,0.33,0.18,0.5c0.19,0.56,0.39,1.12,0.6,1.67c0.18,0.5,0.37,1,0.56,1.5c0.01,0.05,0.03,0.1,0.06,0.15
		c0.14,0.38,0.28,0.75,0.44,1.13c0.14,0.38,0.29,0.76,0.45,1.13c0.18,0.45,0.36,0.9,0.55,1.34c0.18,0.44,0.37,0.88,0.56,1.32
		c0.33,0.76,0.67,1.52,1.01,2.27c0.17,0.38,0.34,0.75,0.53,1.13c0.16,0.38,0.34,0.75,0.53,1.12c0.1,0.23,0.21,0.45,0.32,0.67
		c0.13,0.3,0.28,0.6,0.44,0.9c0.17,0.35,0.35,0.69,0.53,1.03c0,0.03,0.02,0.05,0.03,0.07c0.01,0.03,0.02,0.05,0.03,0.07
		c0.13,0.24,0.25,0.49,0.38,0.73l0.01,0.01c0,0.01,0.01,0.03,0.01,0.04c0.02,0.03,0.04,0.06,0.05,0.09c0.09,0.16,0.18,0.33,0.27,0.5
		c0.04,0.08,0.08,0.17,0.13,0.25c0.1,0.22,0.21,0.43,0.33,0.64c0.17,0.31,0.33,0.63,0.51,0.94c0.91,1.68,1.87,3.33,2.9,4.96
		c0.02,0.05,0.05,0.1,0.08,0.14c0.1,0.16,0.2,0.33,0.3,0.49c0.05,0.08,0.1,0.15,0.14,0.23c0.04,0.07,0.08,0.14,0.13,0.2
		c0.07,0.12,0.14,0.23,0.22,0.34c0.3,0.49,0.62,0.98,0.94,1.46c0.06,0.09,0.11,0.17,0.17,0.26c0.01,0.03,0.03,0.06,0.05,0.09
		c0.02,0.03,0.04,0.05,0.06,0.08c0.35,0.54,0.71,1.09,1.07,1.62c0.08,0.11,0.15,0.22,0.22,0.32c0.24,0.37,0.49,0.73,0.76,1.09
		c0.43,0.62,0.87,1.24,1.31,1.85c0.88,1.22,1.8,2.43,2.74,3.62c0.79,1,1.59,1.99,2.41,2.97c0.19,0.23,0.38,0.46,0.57,0.68
		c0.28,0.33,0.56,0.66,0.85,0.99c0.66,0.77,1.34,1.53,2.02,2.28c0.02,0.02,0.03,0.04,0.05,0.05c0.7,0.77,1.4,1.53,2.13,2.27
		c0.41,0.44,0.83,0.87,1.25,1.3c0.6,0.6,1.2,1.2,1.81,1.79c0.64,0.62,1.29,1.24,1.94,1.84c0.32,0.3,0.64,0.59,0.96,0.89
		c0.32,0.3,0.64,0.59,0.97,0.87c0.65,0.59,1.3,1.16,1.96,1.72c0.46,0.4,0.93,0.79,1.4,1.18c0.8,0.67,1.61,1.33,2.43,1.98
		c1.19,0.93,2.39,1.85,3.62,2.74c1.22,0.9,2.46,1.77,3.71,2.61c0.63,0.43,1.26,0.85,1.9,1.26c1.27,0.84,2.56,1.64,3.86,2.41
		c0.65,0.4,1.31,0.79,1.97,1.15c0.66,0.38,1.33,0.76,1.99,1.13c0.66,0.37,1.33,0.73,2.01,1.07c0.48,0.25,0.96,0.5,1.45,0.75
		c0.3,0.16,0.61,0.31,0.92,0.46c0.57,0.29,1.14,0.57,1.72,0.84c0.68,0.33,1.38,0.66,2.07,0.98c1.4,0.65,2.8,1.25,4.22,1.83
		c1.42,0.59,2.85,1.15,4.29,1.67c0.01,0,0.01,0.01,0.01,0.01c1.44,0.53,2.89,1.04,4.36,1.51c1.32,0.43,2.65,0.83,3.98,1.22
		c0.9,0.26,1.81,0.51,2.71,0.75c0.91,0.24,1.83,0.47,2.75,0.69c2.11,0.51,4.25,0.96,6.41,1.36l0.07,0.02
		c0.12,0.03,0.24,0.05,0.36,0.06c0.16,0.03,0.33,0.06,0.49,0.08c0.31,0.06,0.63,0.12,0.94,0.16c0.18,0.04,0.36,0.07,0.54,0.1
		c0.14,0.02,0.27,0.04,0.41,0.06c0.31,0.06,0.63,0.11,0.95,0.15c0.2,0.04,0.41,0.07,0.62,0.09c0.15,0.03,0.31,0.05,0.47,0.07
		C209.9,245.75,209.95,245.76,210,245.77z"/>
	<path d="M227.5,0c-7.68,0-15.21,0.7-22.5,2.05c-49.5,9.11-88.67,47.73-98.57,96.95h-5.1l0.2-0.99c5.06-25.14,17.45-48,35.83-66.09
		C152.76,16.77,171.42,5.87,191.91,0H227.5z"/>
	<path d="M348.57,148c-11.36,56.47-61.25,99-121.07,99c-0.96,0-1.92-0.01-2.87-0.03c-0.62-0.01-1.24-0.03-1.86-0.06
		c-0.22-0.01-0.43-0.02-0.64-0.02c-0.12-0.01-0.24-0.01-0.35-0.02c-0.72-0.03-1.43-0.07-2.14-0.12c-0.68-0.04-1.36-0.09-2.04-0.15
		c-0.08,0-0.15,0-0.22-0.01c-0.04,0-0.09-0.01-0.13-0.01c-0.03,0-0.06-0.01-0.09-0.01c-0.16-0.01-0.31-0.02-0.47-0.04
		c-0.25-0.02-0.51-0.04-0.76-0.07c-0.66-0.06-1.32-0.13-1.98-0.2c-0.22-0.02-0.44-0.05-0.65-0.07c-0.14-0.02-0.28-0.03-0.42-0.05
		c-0.05,0-0.11-0.01-0.16-0.02c-0.43-0.05-0.86-0.1-1.28-0.16c-0.11-0.01-0.22-0.03-0.32-0.04c-0.38-0.05-0.75-0.1-1.12-0.15
		c-0.05-0.01-0.1-0.02-0.15-0.03c-0.16-0.02-0.32-0.04-0.47-0.07c-0.21-0.02-0.42-0.05-0.62-0.09c-0.32-0.04-0.64-0.09-0.95-0.15
		c-0.14-0.02-0.27-0.04-0.41-0.06c-0.18-0.03-0.36-0.06-0.54-0.1c-0.31-0.04-0.63-0.1-0.94-0.16c-0.16-0.02-0.33-0.05-0.49-0.08
		c-0.14-0.03-0.29-0.05-0.43-0.08v-5.09c0.3,0.06,0.6,0.11,0.9,0.17c7.06,1.31,14.32,1.97,21.6,1.97c55.9,0,104.51-39.47,115.96-94
		H348.57z"/>
	<path d="M351,123.5c0,8.39-0.84,16.58-2.43,24.5h-5.11c0.08-0.33,0.14-0.66,0.21-0.99c1.55-7.7,2.33-15.61,2.33-23.51
		c0-7.9-0.78-15.81-2.33-23.52c-0.07-0.33-0.13-0.66-0.21-0.98h5.11C350.16,106.92,351,115.11,351,123.5z"/>
	<path d="M348.57,99h-5.11C332.02,44.48,283.4,5,227.5,5c-7.28,0-14.54,0.66-21.59,1.97c-45.11,8.3-81.86,42.9-93.21,87.03h114.8
		c6.07,0,11.71,1.84,16.4,5H106.43c9.9-49.22,49.07-87.84,98.57-96.95C212.29,0.7,219.82,0,227.5,0C287.32,0,337.21,42.53,348.57,99
		z"/>
	<path d="M257,123.5c0,10.2-5.2,19.21-13.1,24.5h-16.4c13.53,0,24.5-10.97,24.5-24.5c0-13.53-10.97-24.5-24.5-24.5h16.4
		C251.8,104.29,257,113.3,257,123.5z"/>
	<path d="M243.9,148c-4.69,3.16-10.33,5-16.4,5H205v-5H243.9z"/>
	<path d="M205,153h-92.3c11.27,43.84,47.61,78.27,92.3,86.86v5.09c-2.16-0.4-4.3-0.85-6.41-1.36c-0.92-0.22-1.84-0.45-2.75-0.69
		c-0.9-0.24-1.81-0.49-2.71-0.75c-1.33-0.39-2.66-0.79-3.98-1.22c-1.46-0.48-2.92-0.98-4.36-1.51c0,0,0-0.01-0.01-0.01
		c-1.44-0.53-2.87-1.09-4.29-1.67c-1.42-0.59-2.83-1.2-4.22-1.83c-0.69-0.32-1.39-0.65-2.07-0.98c-0.58-0.27-1.15-0.55-1.72-0.84
		c-0.31-0.15-0.62-0.3-0.92-0.46c-0.49-0.25-0.97-0.5-1.45-0.75c-0.67-0.35-1.34-0.71-2.01-1.07c-0.66-0.37-1.33-0.75-1.99-1.13
		c-0.66-0.38-1.32-0.76-1.97-1.15c-1.3-0.78-2.59-1.58-3.86-2.41c-0.64-0.41-1.27-0.83-1.9-1.26c-1.25-0.85-2.49-1.72-3.71-2.61
		c-1.23-0.89-2.43-1.81-3.62-2.74c-0.82-0.65-1.63-1.31-2.43-1.98c-0.47-0.39-0.94-0.78-1.4-1.18c-0.66-0.57-1.31-1.14-1.96-1.72
		c-0.33-0.28-0.65-0.57-0.97-0.87c-0.32-0.3-0.64-0.59-0.96-0.89c-0.65-0.6-1.3-1.22-1.94-1.84c-0.61-0.59-1.21-1.19-1.81-1.79
		c-0.42-0.43-0.84-0.86-1.25-1.3c-0.72-0.75-1.43-1.51-2.13-2.27c-0.02-0.01-0.03-0.03-0.05-0.05c-0.68-0.75-1.35-1.51-2.02-2.28
		c-0.29-0.33-0.57-0.66-0.85-0.99c-0.19-0.22-0.38-0.45-0.57-0.68c-0.82-0.98-1.62-1.97-2.41-2.97c-0.93-1.19-1.85-2.39-2.74-3.62
		c-0.44-0.61-0.88-1.23-1.31-1.85c-0.26-0.36-0.51-0.72-0.76-1.09c-0.07-0.1-0.14-0.21-0.22-0.32c-0.36-0.53-0.72-1.08-1.07-1.62
		c-0.02-0.03-0.04-0.05-0.06-0.08c-0.02-0.03-0.04-0.06-0.05-0.09c-0.06-0.09-0.11-0.17-0.17-0.26c-0.32-0.48-0.63-0.97-0.94-1.46
		c-0.08-0.11-0.15-0.22-0.22-0.34c-0.01-0.02-0.02-0.04-0.03-0.06c-0.04-0.04-0.07-0.09-0.1-0.14c-0.04-0.08-0.09-0.15-0.14-0.23
		c-0.1-0.16-0.2-0.33-0.3-0.49c-0.03-0.04-0.06-0.09-0.08-0.14c-0.13-0.21-0.26-0.42-0.38-0.63c-0.23-0.37-0.45-0.74-0.67-1.12
		c-0.01-0.02-0.02-0.03-0.03-0.05c-0.44-0.73-0.87-1.48-1.29-2.23s-0.83-1.5-1.23-2.26c-0.05-0.08-0.09-0.16-0.14-0.25
		c-0.05-0.08-0.09-0.17-0.13-0.25c-0.09-0.17-0.18-0.34-0.27-0.5c-0.01-0.03-0.03-0.06-0.04-0.09h-0.01c0-0.01-0.01-0.03-0.01-0.04
		l-0.01-0.01c-0.13-0.24-0.25-0.49-0.38-0.73c-0.01-0.02-0.02-0.04-0.03-0.07c-0.01-0.02-0.03-0.04-0.03-0.07
		c-0.18-0.34-0.36-0.68-0.53-1.03c-0.06-0.12-0.12-0.25-0.18-0.38c-0.09-0.17-0.18-0.34-0.26-0.52c-0.11-0.22-0.22-0.44-0.32-0.67
		c-0.18-0.37-0.36-0.75-0.53-1.12c-0.19-0.38-0.36-0.75-0.53-1.13c-0.34-0.75-0.68-1.51-1.01-2.27c-0.19-0.44-0.38-0.88-0.56-1.32
		c-0.19-0.44-0.37-0.89-0.55-1.34c-0.16-0.37-0.31-0.75-0.45-1.13c-0.15-0.37-0.3-0.75-0.44-1.13c-0.03-0.05-0.05-0.1-0.06-0.15
		c-0.19-0.5-0.38-1-0.56-1.5c-0.21-0.55-0.41-1.11-0.6-1.67c-0.06-0.17-0.12-0.34-0.18-0.5c-0.03-0.12-0.07-0.23-0.11-0.34
		c-0.21-0.62-0.42-1.24-0.62-1.86c-0.44-1.38-0.87-2.76-1.26-4.16c-0.17-0.6-0.34-1.2-0.5-1.81c-0.13-0.47-0.25-0.94-0.37-1.42
		c-0.07-0.25-0.13-0.5-0.19-0.75c-0.11-0.42-0.21-0.85-0.31-1.27c-0.33-1.37-0.63-2.75-0.91-4.14H205V153z"/>
	<path d="M205,245.02v5.01c-0.31-0.05-0.61-0.1-0.91-0.16c-0.68-0.12-1.35-0.25-2.02-0.39c-0.28-0.06-0.56-0.12-0.84-0.18
		c-0.19-0.03-0.38-0.07-0.56-0.11c-0.86-0.18-1.72-0.37-2.57-0.58c-0.08-0.01-0.16-0.03-0.24-0.05c-0.06-0.01-0.12-0.03-0.18-0.04
		c-0.39-0.09-0.78-0.19-1.17-0.29c-0.45-0.11-0.89-0.23-1.34-0.34c-0.15-0.03-0.3-0.07-0.44-0.11c-0.95-0.25-1.89-0.51-2.82-0.78
		c-0.8-0.23-1.61-0.47-2.4-0.71c-0.25-0.07-0.5-0.15-0.75-0.24c-0.79-0.24-1.57-0.49-2.35-0.76c-0.47-0.15-0.92-0.31-1.38-0.47
		c-0.14-0.05-0.29-0.1-0.43-0.15c-0.42-0.15-0.83-0.29-1.25-0.45c-0.74-0.27-1.48-0.55-2.22-0.83c-0.04-0.02-0.09-0.03-0.13-0.05
		c-0.29-0.11-0.57-0.22-0.85-0.34c-0.01,0-0.02-0.01-0.02-0.01c-0.78-0.31-1.57-0.63-2.34-0.96c-0.07-0.03-0.15-0.06-0.22-0.09
		c-0.28-0.11-0.56-0.23-0.84-0.35c-0.83-0.36-1.65-0.72-2.47-1.09c-0.84-0.38-1.66-0.77-2.48-1.16c-0.09-0.04-0.17-0.08-0.25-0.12
		c-0.12-0.06-0.24-0.11-0.35-0.18c-0.45-0.22-0.9-0.44-1.34-0.66c-0.45-0.22-0.89-0.45-1.33-0.68c-0.82-0.42-1.64-0.85-2.45-1.3
		c-0.24-0.12-0.48-0.25-0.71-0.39c-0.06-0.04-0.13-0.07-0.19-0.11c-0.68-0.37-1.37-0.76-2.04-1.15c-0.03-0.02-0.07-0.04-0.1-0.06
		c-0.1-0.05-0.19-0.11-0.29-0.17c-0.75-0.44-1.5-0.88-2.24-1.34c-0.2-0.12-0.39-0.24-0.59-0.36c-0.82-0.51-1.64-1.03-2.45-1.56
		c-0.45-0.29-0.89-0.58-1.33-0.88c-0.45-0.3-0.89-0.6-1.33-0.91c-0.71-0.48-1.41-0.97-2.1-1.48c-0.04-0.02-0.08-0.05-0.12-0.08
		c-0.64-0.45-1.27-0.91-1.89-1.39c-0.56-0.41-1.12-0.84-1.67-1.27c-0.44-0.33-0.87-0.67-1.3-1.02c-0.39-0.3-0.78-0.61-1.17-0.93
		c-0.67-0.54-1.33-1.09-1.99-1.65c-0.82-0.7-1.63-1.41-2.44-2.13c-0.72-0.63-1.42-1.27-2.12-1.93c-0.89-0.82-1.76-1.66-2.63-2.51
		c-14.28-14.06-24.95-30.99-31.36-49.64V148c0.41,2.05,0.88,4.09,1.39,6.1c0,0.01,0,0.01,0.01,0.02c0.34,1.34,0.7,2.68,1.09,4
		c0.14,0.5,0.29,1,0.45,1.5c0.24,0.82,0.5,1.63,0.77,2.43c0.2,0.63,0.41,1.26,0.63,1.88c0.28,0.81,0.57,1.61,0.86,2.4
		c0.13,0.36,0.27,0.72,0.41,1.08c0.83,2.19,1.72,4.35,2.68,6.48c0.17,0.38,0.34,0.77,0.52,1.15c0.63,1.38,1.29,2.75,1.98,4.1
		c0.29,0.57,0.58,1.14,0.88,1.71c0.23,0.45,0.47,0.89,0.71,1.33c0.27,0.51,0.55,1.01,0.83,1.51c0.08,0.14,0.15,0.28,0.23,0.41
		c0.34,0.61,0.69,1.22,1.05,1.82v0.01c0.29,0.49,0.57,0.97,0.87,1.45c0.48,0.8,0.97,1.59,1.47,2.37c0.32,0.51,0.65,1.01,0.98,1.51
		c0.32,0.49,0.65,0.98,0.98,1.47c2.26,3.33,4.68,6.55,7.26,9.65c0.25,0.3,0.5,0.6,0.76,0.9c1.36,1.61,2.77,3.19,4.22,4.73
		c0.57,0.61,1.15,1.22,1.74,1.82c0.58,0.6,1.17,1.19,1.77,1.77c1.2,1.19,2.43,2.35,3.69,3.48c0.53,0.49,1.08,0.97,1.62,1.44
		c2.03,1.78,4.12,3.49,6.27,5.12c0.34,0.27,0.68,0.53,1.03,0.78c0.92,0.7,1.85,1.38,2.8,2.03c0.53,0.38,1.07,0.76,1.61,1.12
		c0.49,0.34,0.98,0.67,1.48,1c1.13,0.75,2.28,1.48,3.44,2.19c0.38,0.24,0.77,0.48,1.16,0.7c0.1,0.07,0.2,0.13,0.3,0.18
		c0.45,0.27,0.9,0.54,1.35,0.8c0.73,0.43,1.47,0.84,2.21,1.25c0.68,0.38,1.37,0.75,2.06,1.11c0.22,0.12,0.44,0.24,0.67,0.35
		c0.77,0.4,1.55,0.79,2.33,1.18c0.81,0.4,1.62,0.79,2.44,1.17c1.19,0.56,2.38,1.09,3.59,1.6c0.47,0.2,0.94,0.4,1.42,0.59
		c0.5,0.22,1,0.42,1.5,0.61c0.53,0.22,1.07,0.43,1.61,0.63c1.24,0.47,2.47,0.92,3.72,1.35c0.41,0.14,0.82,0.28,1.23,0.42
		c0.55,0.18,1.11,0.36,1.66,0.53c0.45,0.15,0.9,0.29,1.36,0.42c0.55,0.18,1.1,0.34,1.66,0.49c1.73,0.51,3.49,0.98,5.25,1.4
		c0.73,0.18,1.46,0.35,2.19,0.51c1.46,0.33,2.94,0.63,4.42,0.9C204.74,244.97,204.87,245,205,245.02z"/>
</g>
<g>
	<g>
		<path class="st0" d="M675.82,148C661.95,133.31,645,121.52,626,113.72V198h80.59C699.85,179.25,689.28,162.26,675.82,148z
			 M689.19,148c10.91,13.01,19.69,27.84,25.81,43.93V148H689.19z M626,208v34h88.93c0.05,1.5,0.07,3,0.07,4.5V208H626z M625.92,252
			c-0.37,6.99-2.08,13.71-4.92,19.87v109.35c1.69-0.61,3.35-1.26,5-1.95v0.01c0.06-0.03,0.13-0.05,0.19-0.08
			c0.03-0.01,0.05-0.02,0.08-0.03c0.17-0.07,0.34-0.14,0.51-0.22c0.74-0.3,1.48-0.62,2.21-0.94c0.47-0.2,0.94-0.41,1.41-0.62
			c0.65-0.3,1.3-0.59,1.94-0.9c0.32-0.15,0.64-0.29,0.96-0.45c0.32-0.15,0.64-0.3,0.95-0.46c0.04-0.01,0.07-0.03,0.11-0.05
			c0.35-0.17,0.69-0.34,1.03-0.51c0.57-0.28,1.13-0.57,1.69-0.85c0.18-0.1,0.36-0.19,0.54-0.28c0.52-0.27,1.03-0.54,1.54-0.82
			c0.45-0.24,0.9-0.48,1.35-0.73c0.64-0.35,1.27-0.7,1.9-1.06c0.74-0.42,1.48-0.85,2.21-1.29c0.28-0.17,0.56-0.33,0.84-0.5
			c0.28-0.17,0.56-0.34,0.84-0.51c0.12-0.07,0.23-0.14,0.35-0.21c0.25-0.15,0.5-0.3,0.74-0.46c0.62-0.38,1.23-0.77,1.83-1.16
			c0.03-0.03,0.07-0.05,0.1-0.07c1.54-0.99,3.06-2.02,4.56-3.08c0.04-0.02,0.08-0.05,0.12-0.08c1.44-1.01,2.86-2.05,4.25-3.11
			c0.02-0.02,0.04-0.03,0.06-0.05c0.42-0.32,0.84-0.65,1.26-0.98c0.3-0.23,0.6-0.46,0.9-0.7c0.36-0.28,0.71-0.57,1.07-0.86
			c0.35-0.28,0.7-0.57,1.06-0.86c0.7-0.58,1.4-1.16,2.09-1.76c0.66-0.56,1.32-1.14,1.97-1.71c0.15-0.14,0.3-0.27,0.45-0.41
			c0.56-0.5,1.11-1,1.66-1.51c0.36-0.33,0.71-0.66,1.07-1c0.3-0.29,0.61-0.58,0.91-0.87l0.93-0.9c0.27-0.26,0.55-0.53,0.82-0.81
			c0.03-0.02,0.07-0.06,0.1-0.09c0.09-0.09,0.19-0.18,0.27-0.28c0.49-0.48,0.97-0.97,1.45-1.46c0.25-0.26,0.51-0.53,0.76-0.8
			c0.49-0.52,0.98-1.04,1.47-1.56c0.3-0.32,0.59-0.64,0.89-0.96c0.29-0.32,0.58-0.64,0.87-0.97c0.56-0.61,1.1-1.23,1.64-1.86
			c0.12-0.14,0.25-0.28,0.37-0.43c0.52-0.6,1.03-1.21,1.54-1.83c0.36-0.44,0.74-0.89,1.11-1.34c0-0.01,0-0.01,0.01-0.02
			c0.08-0.09,0.15-0.19,0.23-0.28c0.25-0.31,0.5-0.63,0.75-0.95c0.37-0.47,0.74-0.94,1.11-1.41c0.1-0.14,0.21-0.28,0.32-0.42
			c0.05-0.06,0.09-0.12,0.14-0.18c0.32-0.42,0.63-0.84,0.94-1.26c0.51-0.67,1.01-1.35,1.49-2.04c0.17-0.23,0.34-0.46,0.5-0.69
			c0.02-0.03,0.04-0.06,0.06-0.09c0.44-0.62,0.88-1.25,1.31-1.88c0.55-0.79,1.08-1.59,1.61-2.4c0.53-0.81,1.05-1.61,1.56-2.43
			c0.32-0.5,0.63-1,0.93-1.51c0.36-0.59,0.71-1.17,1.06-1.76c0.37-0.62,0.73-1.24,1.09-1.87c0.36-0.62,0.71-1.26,1.06-1.89
			c0.34-0.62,0.68-1.24,1.01-1.87c0.28-0.52,0.56-1.05,0.83-1.58c0.02-0.02,0.03-0.05,0.04-0.07c0.52-1.01,1.03-2.02,1.52-3.04
			c0.2-0.4,0.39-0.8,0.59-1.21c0.27-0.57,0.54-1.14,0.8-1.72c0.71-1.54,1.39-3.1,2.04-4.67c0.27-0.64,0.53-1.28,0.79-1.93
			c0.24-0.6,0.48-1.2,0.71-1.81c0.02-0.04,0.03-0.08,0.05-0.12c0.02-0.04,0.03-0.09,0.05-0.13c0.02-0.04,0.03-0.09,0.05-0.13
			c0.18-0.49,0.37-0.96,0.54-1.45c0.24-0.64,0.47-1.28,0.7-1.93c0.22-0.62,0.44-1.25,0.65-1.89c0.1-0.3,0.2-0.6,0.3-0.9
			c0.23-0.7,0.46-1.4,0.67-2.11c0.02-0.04,0.03-0.08,0.04-0.12c0.26-0.82,0.51-1.65,0.75-2.48c0.2-0.71,0.42-1.4,0.6-2.12
			c0.01-0.02,0.01-0.05,0.02-0.07c0.01-0.02,0.01-0.05,0.02-0.07c0.06-0.2,0.11-0.41,0.17-0.61c0.15-0.55,0.29-1.1,0.43-1.65
			c0.01-0.04,0.02-0.07,0.03-0.11c0.1-0.37,0.19-0.74,0.27-1.11c0.03-0.1,0.05-0.19,0.07-0.29c0.02-0.05,0.03-0.1,0.04-0.16
			c0.08-0.29,0.15-0.58,0.22-0.88c0.02-0.08,0.03-0.16,0.05-0.24c0.06-0.2,0.11-0.41,0.15-0.61c0.16-0.7,0.32-1.4,0.47-2.11
			c0.05-0.2,0.09-0.4,0.13-0.6c0.14-0.64,0.27-1.29,0.39-1.94c0.05-0.25,0.1-0.5,0.14-0.74c0-0.01,0.01-0.03,0.01-0.04
			c0.12-0.61,0.23-1.23,0.34-1.85c0-0.03,0.01-0.05,0.01-0.08c0-0.02,0.01-0.03,0.01-0.05c0.14-0.77,0.27-1.53,0.39-2.3
			c0.07-0.43,0.14-0.86,0.2-1.3c0.09-0.59,0.17-1.18,0.25-1.77c0.11-0.77,0.21-1.55,0.3-2.33c0.03-0.22,0.05-0.45,0.08-0.67
			c0.07-0.59,0.14-1.19,0.2-1.79v-0.05c0.04-0.4,0.08-0.8,0.12-1.21c0.01-0.15,0.03-0.3,0.04-0.45c0.05-0.52,0.09-1.05,0.13-1.57
			c0.06-0.77,0.12-1.56,0.16-2.34c0.02-0.19,0.03-0.37,0.04-0.56c0.04-0.6,0.07-1.21,0.1-1.82c0.01-0.36,0.03-0.72,0.04-1.08H625.92
			z"/>
		<path class="st1" d="M625.92,252c-0.37,6.99-2.08,13.71-4.92,19.87c-1.39,3.05-3.07,5.95-5,8.68v102.4
			c1.11-0.35,2.22-0.73,3.33-1.12c0.56-0.2,1.12-0.4,1.67-0.61c1.69-0.61,3.35-1.26,5-1.95V252H625.92z M625.92,252
			c-0.37,6.99-2.08,13.71-4.92,19.87V296h5v-44H625.92z M709.27,286.57c0.2-0.71,0.42-1.4,0.6-2.12
			C709.68,285.16,709.48,285.86,709.27,286.57z M625.92,252c-0.37,6.99-2.08,13.71-4.92,19.87V296h5v-44H625.92z M709.27,286.57
			c0.2-0.71,0.42-1.4,0.6-2.12C709.68,285.16,709.48,285.86,709.27,286.57z M625.92,252c-0.37,6.99-2.08,13.71-4.92,19.87V296h5v-44
			H625.92z M709.27,286.57c0.2-0.71,0.42-1.4,0.6-2.12C709.68,285.16,709.48,285.86,709.27,286.57z M625.92,252
			c-0.37,6.99-2.08,13.71-4.92,19.87V296h5v-44H625.92z M709.27,286.57c0.2-0.71,0.42-1.4,0.6-2.12
			C709.68,285.16,709.48,285.86,709.27,286.57z M625.92,252c-0.37,6.99-2.08,13.71-4.92,19.87v109.35c1.69-0.61,3.35-1.26,5-1.95
			V252H625.92z M709.27,286.57c0.2-0.71,0.42-1.4,0.6-2.12C709.68,285.16,709.48,285.86,709.27,286.57z M625.92,252
			c-0.37,6.99-2.08,13.71-4.92,19.87V296h5v-44H625.92z M709.27,286.57c0.2-0.71,0.42-1.4,0.6-2.12
			C709.68,285.16,709.48,285.86,709.27,286.57z M625.92,252c-0.37,6.99-2.08,13.71-4.92,19.87V296h5v-44H625.92z M709.27,286.57
			c0.2-0.71,0.42-1.4,0.6-2.12C709.68,285.16,709.48,285.86,709.27,286.57z M625.92,252c-0.37,6.99-2.08,13.71-4.92,19.87V296h5v-44
			H625.92z M709.27,286.57c0.2-0.71,0.42-1.4,0.6-2.12C709.68,285.16,709.48,285.86,709.27,286.57z M625.92,252
			c-0.37,6.99-2.08,13.71-4.92,19.87V296h5v-44H625.92z M709.27,286.57c0.2-0.71,0.42-1.4,0.6-2.12
			C709.68,285.16,709.48,285.86,709.27,286.57z M616-5v5h104v247c-0.01,0.89-0.02,1.78-0.04,2.67c0,0.39-0.02,0.78-0.03,1.17
			c-0.01,0.39-0.03,0.78-0.04,1.16c-0.02,0.96-0.07,1.92-0.13,2.87c0,0,0,0.01,0,0.02v0.07c-0.04,0.68-0.08,1.34-0.13,2.02
			c0,0.11-0.01,0.22-0.02,0.33c-0.02,0.23-0.04,0.46-0.05,0.69c0,0.05-0.01,0.1-0.01,0.15l-0.15,1.74
			c-0.01,0.09-0.01,0.17-0.02,0.26c-0.02,0.19-0.04,0.39-0.06,0.58c-0.05,0.56-0.11,1.11-0.16,1.67c-0.01,0.02-0.01,0.03-0.01,0.05
			c-0.05,0.49-0.1,0.97-0.16,1.45c-0.01,0.1-0.03,0.19-0.04,0.29c-0.04,0.4-0.08,0.79-0.14,1.18c-0.01,0.12-0.02,0.23-0.04,0.34
			c-0.05,0.36-0.1,0.72-0.15,1.08c-0.08,0.65-0.17,1.3-0.28,1.94c-0.02,0.19-0.05,0.38-0.08,0.57c-0.06,0.42-0.13,0.84-0.2,1.26
			c-0.06,0.42-0.14,0.84-0.21,1.25c-0.07,0.43-0.14,0.85-0.22,1.28c-0.08,0.42-0.16,0.83-0.24,1.25c-0.15,0.82-0.31,1.63-0.48,2.44
			c-0.14,0.69-0.29,1.38-0.44,2.06c-0.04,0.18-0.08,0.36-0.12,0.54c-0.17,0.78-0.36,1.55-0.55,2.32c-0.03,0.16-0.07,0.32-0.11,0.48
			c-0.17,0.69-0.34,1.37-0.53,2.05c-0.16,0.61-0.32,1.22-0.49,1.83c-0.24,0.87-0.49,1.74-0.74,2.61c-0.08,0.26-0.16,0.53-0.24,0.79
			c-0.13,0.44-0.26,0.87-0.4,1.31c-0.27,0.88-0.55,1.75-0.84,2.62c-0.3,0.88-0.59,1.75-0.9,2.61c-0.24,0.68-0.49,1.36-0.73,2.03
			c-0.18,0.48-0.36,0.95-0.54,1.42c-0.11,0.3-0.23,0.61-0.35,0.91c-0.19,0.49-0.38,0.97-0.58,1.46c-0.32,0.8-0.65,1.61-0.99,2.41
			c-0.34,0.8-0.68,1.59-1.04,2.39c-0.06,0.14-0.12,0.28-0.18,0.41c-0.29,0.67-0.59,1.33-0.9,1.99c-0.35,0.75-0.7,1.5-1.07,2.25
			c-0.34,0.7-0.69,1.4-1.04,2.09c-0.24,0.48-0.48,0.95-0.72,1.42c-0.02,0.04-0.05,0.09-0.07,0.13c-1.2,2.3-2.45,4.56-3.76,6.79
			c-0.44,0.76-0.89,1.5-1.35,2.25c-0.39,0.63-0.79,1.27-1.19,1.9c-0.23,0.37-0.47,0.74-0.71,1.11c-0.02,0.03-0.04,0.07-0.06,0.1
			c-0.29,0.45-0.58,0.9-0.88,1.34c-0.49,0.74-0.99,1.47-1.49,2.2s-1,1.45-1.52,2.17c-0.24,0.35-0.49,0.68-0.74,1.02
			c-0.03,0.05-0.07,0.11-0.11,0.16c-0.63,0.87-1.27,1.72-1.92,2.57c-0.07,0.09-0.13,0.17-0.21,0.26c-0.45,0.6-0.92,1.21-1.39,1.8
			c-0.06,0.08-0.13,0.16-0.19,0.24c-0.1,0.13-0.2,0.26-0.31,0.38c-0.38,0.48-0.76,0.95-1.15,1.42c-0.35,0.44-0.71,0.88-1.09,1.31
			c-0.58,0.7-1.16,1.38-1.76,2.06c-0.45,0.52-0.9,1.03-1.36,1.54c-0.45,0.5-0.9,1-1.36,1.49c-0.93,1.02-1.88,2.03-2.85,3.02
			c-0.47,0.49-0.96,0.98-1.44,1.46c-0.47,0.47-0.95,0.94-1.42,1.4c-1.03,1-2.07,1.99-3.13,2.96c-0.42,0.38-0.84,0.77-1.26,1.14
			c-0.11,0.11-0.22,0.21-0.34,0.31c-0.03,0.02-0.05,0.05-0.08,0.08c-0.42,0.37-0.85,0.74-1.28,1.12c-0.52,0.45-1.04,0.9-1.56,1.34
			s-1.05,0.88-1.58,1.32c-0.53,0.43-1.06,0.87-1.59,1.29c-0.54,0.43-1.08,0.86-1.62,1.28c-1.13,0.89-2.28,1.75-3.45,2.6
			c-0.5,0.37-1,0.73-1.5,1.09c-0.7,0.5-1.4,0.99-2.11,1.48c-0.58,0.4-1.16,0.8-1.75,1.19c-0.48,0.32-0.97,0.64-1.46,0.96
			c-0.36,0.24-0.72,0.47-1.09,0.7c-0.72,0.46-1.46,0.92-2.19,1.37c-0.79,0.49-1.59,0.97-2.4,1.44c-0.01,0.01-0.03,0.02-0.04,0.02
			c-0.12,0.07-0.23,0.14-0.35,0.21c-0.61,0.36-1.22,0.71-1.84,1.06c-1.52,0.86-3.05,1.69-4.6,2.49c-0.38,0.2-0.76,0.4-1.14,0.59
			c-0.07,0.04-0.14,0.07-0.21,0.11c-0.22,0.11-0.45,0.22-0.67,0.33c-0.48,0.24-0.96,0.48-1.45,0.72c-0.62,0.3-1.24,0.6-1.87,0.89
			c-0.53,0.25-1.05,0.49-1.58,0.73c-0.02,0.01-0.05,0.02-0.07,0.03c-1.35,0.62-2.7,1.21-4.06,1.78c-0.82,0.34-1.64,0.68-2.47,1
			c-0.88,0.36-1.77,0.7-2.66,1.03c-0.89,0.34-1.78,0.66-2.68,0.98c-1.65,0.58-3.32,1.14-5,1.67v5.4l6.67-2.36
			c0.95-0.34,1.9-0.68,2.84-1.04c0.69-0.25,1.37-0.51,2.04-0.79c0.11-0.04,0.22-0.09,0.33-0.13c0.32-0.13,0.65-0.25,0.97-0.38
			c0.76-0.3,1.51-0.61,2.26-0.93c0.68-0.28,1.36-0.58,2.04-0.88c0.17-0.07,0.33-0.15,0.5-0.22c0.18-0.07,0.36-0.15,0.53-0.23
			c0.61-0.27,1.22-0.55,1.82-0.83c1.02-0.47,2.02-0.95,3.02-1.44c0.37-0.18,0.75-0.37,1.12-0.56c0.16-0.07,0.31-0.15,0.47-0.23
			c0.53-0.27,1.06-0.54,1.58-0.81c0.79-0.41,1.58-0.82,2.36-1.25c0.11-0.06,0.21-0.11,0.32-0.17c0.77-0.42,1.53-0.85,2.29-1.28
			c0.7-0.39,1.4-0.8,2.09-1.21c0.85-0.5,1.7-1.01,2.54-1.53c0.85-0.52,1.68-1.04,2.51-1.57c0.38-0.25,0.76-0.49,1.14-0.74
			c0.64-0.42,1.28-0.85,1.92-1.28c0.65-0.44,1.29-0.88,1.93-1.33c1.43-1,2.83-2.01,4.22-3.06c0.4-0.3,0.8-0.6,1.19-0.89
			c0.02-0.02,0.04-0.04,0.06-0.05c0.09-0.07,0.19-0.15,0.28-0.22c1.1-0.84,2.18-1.7,3.24-2.57c0.4-0.32,0.79-0.64,1.18-0.97
			c0.38-0.31,0.76-0.63,1.14-0.95c0.88-0.75,1.75-1.5,2.61-2.27c0.54-0.47,1.07-0.95,1.6-1.44c0.43-0.39,0.87-0.79,1.29-1.19
			c0.01-0.01,0.01-0.01,0.02-0.02c0.52-0.48,1.04-0.97,1.55-1.47c0.61-0.58,1.22-1.17,1.82-1.77l0.26-0.26
			c2.06-2.06,4.06-4.17,6.01-6.34c0.7-0.79,1.4-1.59,2.09-2.39c0.57-0.67,1.14-1.34,1.7-2.02c1.07-1.29,2.11-2.59,3.13-3.9
			c0.29-0.37,0.57-0.74,0.86-1.11c1.09-1.44,2.16-2.9,3.21-4.38c0.49-0.69,0.98-1.39,1.46-2.1c0.57-0.84,1.13-1.68,1.69-2.53
			c0.49-0.75,0.98-1.51,1.45-2.27c0.09-0.13,0.17-0.26,0.24-0.38c0.04-0.06,0.07-0.11,0.11-0.17c0.44-0.7,0.87-1.4,1.29-2.11
			c0.42-0.69,0.83-1.38,1.23-2.08c0.33-0.57,0.66-1.14,0.98-1.72c0.07-0.11,0.13-0.22,0.19-0.33c0.29-0.51,0.57-1.02,0.85-1.54
			c0.82-1.49,1.6-2.99,2.37-4.51c0.4-0.79,0.79-1.58,1.17-2.38c0.08-0.16,0.15-0.31,0.23-0.47c0.38-0.8,0.76-1.6,1.12-2.41
			c0.34-0.73,0.67-1.47,0.99-2.21c0.25-0.58,0.5-1.15,0.74-1.73c0.08-0.16,0.14-0.32,0.21-0.48c0.28-0.66,0.55-1.33,0.82-2
			c0.29-0.7,0.57-1.42,0.85-2.13c0-0.01,0-0.03,0.01-0.04c0.28-0.73,0.56-1.47,0.83-2.21c0.28-0.75,0.55-1.5,0.81-2.26
			c0.13-0.36,0.26-0.73,0.38-1.09c0.04-0.13,0.09-0.26,0.13-0.39c0.02-0.06,0.04-0.12,0.06-0.18c0.23-0.68,0.46-1.37,0.68-2.06
			c0.57-1.76,1.11-3.53,1.61-5.32c0.17-0.59,0.33-1.19,0.49-1.78c0.16-0.6,0.32-1.2,0.47-1.79c0.15-0.6,0.3-1.2,0.45-1.8
			c0.14-0.61,0.28-1.21,0.42-1.81c0.11-0.42,0.2-0.83,0.29-1.25c0.37-1.66,0.72-3.34,1.02-5.03c0-0.01,0.01-0.02,0.01-0.04
			c0.02-0.04,0.03-0.08,0.03-0.13v-0.04c0.17-0.89,0.33-1.78,0.48-2.68c0.13-0.78,0.25-1.56,0.37-2.35c0.04-0.23,0.07-0.46,0.11-0.7
			c0.01-0.07,0.02-0.14,0.03-0.22c0.11-0.76,0.21-1.52,0.31-2.3c0.09-0.67,0.17-1.35,0.25-2.03c0.01-0.11,0.03-0.23,0.04-0.34
			c0.03-0.27,0.06-0.55,0.09-0.82c0-0.03,0.01-0.06,0.01-0.09c0.09-0.78,0.16-1.55,0.23-2.33c0.1-0.94,0.17-1.88,0.23-2.83
			c0.07-0.95,0.13-1.89,0.18-2.84c0.07-0.95,0.11-1.9,0.13-2.85c0.01-0.39,0.03-0.78,0.04-1.17c0.01-0.39,0.03-0.78,0.03-1.17
			c0.02-0.88,0.03-1.77,0.04-2.66V-5H616z M709.27,286.57c0.2-0.71,0.42-1.4,0.6-2.12C709.68,285.16,709.48,285.86,709.27,286.57z
			 M621,296h5v-44h-0.08c-0.37,6.99-2.08,13.71-4.92,19.87V296z M621,252V99h-5v171.83c2.81-5.74,4.53-12.1,4.91-18.83H621z
			 M709.27,286.57c0.2-0.71,0.42-1.4,0.6-2.12C709.68,285.16,709.48,285.86,709.27,286.57z M625.92,252
			c-0.37,6.99-2.08,13.71-4.92,19.87V296h5v-44H625.92z M709.27,286.57c0.2-0.71,0.42-1.4,0.6-2.12
			C709.68,285.16,709.48,285.86,709.27,286.57z M625.92,252c-0.37,6.99-2.08,13.71-4.92,19.87V296h5v-44H625.92z M709.27,286.57
			c0.2-0.71,0.42-1.4,0.6-2.12C709.68,285.16,709.48,285.86,709.27,286.57z M625.92,252c-0.37,6.99-2.08,13.71-4.92,19.87V296h5v-44
			H625.92z M709.27,286.57c0.2-0.71,0.42-1.4,0.6-2.12C709.68,285.16,709.48,285.86,709.27,286.57z M625.92,252
			c-0.37,6.99-2.08,13.71-4.92,19.87v109.35c1.69-0.61,3.35-1.26,5-1.95V252H625.92z M709.27,286.57c0.2-0.71,0.42-1.4,0.6-2.12
			C709.68,285.16,709.48,285.86,709.27,286.57z M625.92,252c-0.37,6.99-2.08,13.71-4.92,19.87v109.35c1.69-0.61,3.35-1.26,5-1.95
			V252H625.92z M709.27,286.57c0.2-0.71,0.42-1.4,0.6-2.12C709.68,285.16,709.48,285.86,709.27,286.57z M625.92,252
			c-0.37,6.99-2.08,13.71-4.92,19.87V296h5v-44H625.92z M709.27,286.57c0.2-0.71,0.42-1.4,0.6-2.12
			C709.68,285.16,709.48,285.86,709.27,286.57z M625.92,252c-0.37,6.99-2.08,13.71-4.92,19.87V296h5v-44H625.92z M709.27,286.57
			c0.2-0.71,0.42-1.4,0.6-2.12C709.68,285.16,709.48,285.86,709.27,286.57z M625.92,252c-0.37,6.99-2.08,13.71-4.92,19.87V296h5v-44
			H625.92z M709.27,286.57c0.2-0.71,0.42-1.4,0.6-2.12C709.68,285.16,709.48,285.86,709.27,286.57z M625.92,252
			c-0.37,6.99-2.08,13.71-4.92,19.87c-1.39,3.05-3.07,5.95-5,8.68V296h5v85.22c1.69-0.61,3.35-1.26,5-1.95V252H625.92z"/>
		<rect x="616" class="st0" width="5" height="99"/>
		<rect x="715" y="99" class="st0" width="5" height="49"/>
		<path class="st0" d="M720,148v50h-2.83c-0.68-2.04-1.4-4.06-2.17-6.07V148H720z"/>
		<path class="st0" d="M626,99v3.97c-1.1-0.42-2.21-0.83-3.33-1.22l-1.67-0.59V99H626z"/>
		<path class="st0" d="M715,5v143h-25.81c-16.71-19.94-38.41-35.62-63.19-45.03V5H715z"/>
		<polygon class="st0" points="720,0 720,99 715,99 715,5 626,5 626,99 621,99 621,0 		"/>
	</g>
	<g>
		<path d="M517.07,252h-0.02l-0.01-0.68c-0.02-0.66-0.04-1.33-0.04-1.99V252h-88.89c0.07,1.95,0.18,3.89,0.34,5.82
			c0.03,0.5,0.08,0.99,0.13,1.49c0.04,0.58,0.1,1.16,0.16,1.74c0.09,0.85,0.18,1.71,0.29,2.56c0.08,0.77,0.18,1.53,0.29,2.28
			c0.07,0.55,0.15,1.1,0.24,1.65c0.07,0.51,0.15,1.02,0.23,1.52c0.12,0.79,0.25,1.57,0.4,2.35c0.08,0.52,0.18,1.03,0.28,1.55
			c0.08,0.44,0.16,0.88,0.25,1.31c0.09,0.49,0.19,0.97,0.3,1.45c0.05,0.3,0.12,0.6,0.18,0.89c0.14,0.66,0.29,1.31,0.44,1.96
			c0.16,0.69,0.32,1.37,0.49,2.05c0.12,0.5,0.24,1,0.38,1.5c0.13,0.53,0.27,1.06,0.41,1.59c0.06,0.2,0.11,0.41,0.17,0.61
			c0.2,0.75,0.41,1.5,0.63,2.24c0.01,0.03,0.02,0.06,0.03,0.08c0.2,0.72,0.42,1.44,0.65,2.15c0.23,0.78,0.48,1.56,0.73,2.33
			c0.14,0.4,0.27,0.81,0.41,1.21c0.19,0.56,0.38,1.13,0.58,1.69c0.22,0.64,0.45,1.27,0.69,1.9c0,0.03,0.01,0.05,0.02,0.08h0.01
			c0.26,0.72,0.53,1.44,0.81,2.16c0.06,0.16,0.12,0.31,0.18,0.46c0.29,0.74,0.59,1.48,0.89,2.22c0.19,0.46,0.38,0.91,0.57,1.36
			c0.23,0.56,0.47,1.11,0.71,1.66c0.68,1.55,1.39,3.1,2.12,4.62c0.25,0.53,0.51,1.06,0.78,1.59c0.27,0.56,0.55,1.12,0.84,1.67
			c0.27,0.54,0.54,1.07,0.83,1.61c0.42,0.8,0.85,1.6,1.29,2.39c1.03,1.86,2.1,3.7,3.21,5.51c0.3,0.51,0.61,1.01,0.93,1.51
			c2.05,3.27,4.22,6.44,6.53,9.53c0.35,0.48,0.71,0.96,1.08,1.44c0.47,0.61,0.95,1.22,1.43,1.83c0.25,0.32,0.5,0.64,0.75,0.95
			c0.45,0.55,0.9,1.1,1.35,1.64c0.51,0.62,1.02,1.23,1.54,1.83c0.12,0.15,0.25,0.29,0.37,0.43c0.54,0.63,1.08,1.25,1.64,1.86
			c0.58,0.65,1.16,1.29,1.76,1.93c1.29,1.39,2.6,2.76,3.95,4.1c0.61,0.6,1.23,1.21,1.85,1.8c0.65,0.63,1.31,1.26,1.98,1.87
			c0.55,0.51,1.1,1.01,1.66,1.51c0.15,0.14,0.3,0.27,0.45,0.41c0.65,0.57,1.31,1.15,1.97,1.71c0.69,0.6,1.39,1.18,2.09,1.76
			c0.71,0.58,1.41,1.15,2.13,1.72c0.71,0.57,1.43,1.13,2.16,1.68c0.02,0.02,0.04,0.03,0.06,0.05c1.4,1.06,2.81,2.1,4.25,3.11
			c0.04,0.03,0.08,0.06,0.12,0.08c1.5,1.06,3.02,2.09,4.56,3.08c0.88,0.58,1.77,1.14,2.67,1.69c0.67,0.41,1.35,0.82,2.03,1.22
			c0.73,0.44,1.47,0.87,2.21,1.29c1.07,0.61,2.15,1.21,3.25,1.79c0.51,0.28,1.02,0.55,1.54,0.82c0.74,0.38,1.48,0.76,2.23,1.13
			c0.34,0.17,0.68,0.34,1.03,0.51c0.67,0.33,1.34,0.65,2.02,0.96c0.64,0.31,1.29,0.6,1.94,0.9c0.47,0.21,0.94,0.42,1.41,0.62
			c0.73,0.32,1.47,0.64,2.21,0.94c0.13,0.06,0.26,0.12,0.39,0.17c0.07,0.03,0.15,0.06,0.22,0.09c0.06,0.02,0.11,0.04,0.17,0.07
			v-0.01c1.65,0.69,3.31,1.34,5,1.95V271.89C519.15,265.73,517.43,259,517.07,252z M428,208v38.5c0-1.5,0.02-3.01,0.07-4.5H517v-34
			H428z M517,247v2.14c0-0.34,0-0.68,0.01-1.02L517,247z"/>
		<path class="st1" d="M517,247v2.14c0-0.34,0-0.68,0.01-1.02L517,247z M517,247v2.14c0-0.34,0-0.68,0.01-1.02L517,247z
			 M520.33,391.25l6.67,2.36v-0.17C524.76,392.76,522.54,392.03,520.33,391.25z M522,271.89c-2.85-6.16-4.57-12.89-4.93-19.89h-0.02
			l-0.01-0.68c-0.02-0.66-0.04-1.33-0.04-1.99v129.94c1.65,0.69,3.31,1.34,5,1.95c0.55,0.21,1.11,0.41,1.67,0.61
			c1.11,0.39,2.22,0.77,3.33,1.12V280.56C525.07,277.84,523.39,274.94,522,271.89z M517,247v2.14c0-0.34,0-0.68,0.01-1.02L517,247z
			 M522,247v5h0.09c0.38,6.73,2.1,13.09,4.91,18.83V247H522z M517,247v2.14c0-0.34,0-0.68,0.01-1.02L517,247z M517,247v2.14
			c0-0.34,0-0.68,0.01-1.02L517,247z M517,247v2.14c0-0.34,0-0.68,0.01-1.02L517,247z"/>
	</g>
	<g>
		<path class="st0" d="M675.82,148C661.95,133.31,645,121.52,626,113.72V198h80.59C699.85,179.25,689.28,162.26,675.82,148z
			 M714.95,208H626v34h88.93c0.05,1.5,0.07,3,0.07,4.5v-38.34C714.99,208.11,714.97,208.05,714.95,208z M625.92,252
			c-0.37,6.99-2.08,13.71-4.92,19.87c-1.39,3.05-3.07,5.95-5,8.68c-4.37,6.21-10.03,11.5-16.67,15.45
			c-3.02,1.81-6.26,3.33-9.66,4.53c-5.81,2.06-11.93,3.11-18.17,3.11s-12.36-1.05-18.17-3.11c-3.4-1.2-6.63-2.72-9.66-4.53
			c-6.64-3.94-12.3-9.23-16.67-15.44c-1.93-2.72-3.61-5.62-5-8.67c-2.85-6.16-4.57-12.89-4.93-19.89h-0.02l-0.01-0.68
			c-0.02-0.66-0.04-1.33-0.04-1.99V252h-88.89c0.07,1.95,0.18,3.89,0.34,5.82c0.03,0.5,0.08,0.99,0.13,1.49
			c0.04,0.58,0.1,1.16,0.16,1.74c0.09,0.85,0.18,1.71,0.29,2.56c0.08,0.77,0.18,1.53,0.29,2.28c0.07,0.55,0.15,1.1,0.24,1.65
			c0.07,0.51,0.15,1.02,0.23,1.52c0.12,0.79,0.25,1.57,0.4,2.35c0.08,0.52,0.18,1.03,0.28,1.55c0.08,0.44,0.16,0.88,0.25,1.31
			c0.09,0.49,0.19,0.97,0.3,1.45c0.05,0.3,0.12,0.6,0.18,0.89c0.14,0.66,0.29,1.31,0.44,1.96c0.16,0.69,0.32,1.37,0.49,2.05
			c0.12,0.5,0.24,1,0.38,1.5c0.13,0.53,0.27,1.06,0.41,1.59c0.06,0.2,0.11,0.41,0.17,0.61c0.2,0.75,0.41,1.5,0.63,2.24
			c0.01,0.03,0.02,0.06,0.03,0.08c0.2,0.72,0.42,1.44,0.65,2.15c0.23,0.78,0.48,1.56,0.73,2.33c0.14,0.4,0.27,0.81,0.41,1.21
			c0.19,0.56,0.38,1.13,0.58,1.69c0.22,0.64,0.45,1.27,0.69,1.9c0,0.03,0.01,0.05,0.02,0.08h0.01c0.26,0.72,0.53,1.44,0.81,2.16
			c0.06,0.16,0.12,0.31,0.18,0.46c0.29,0.74,0.59,1.48,0.89,2.22c0.19,0.46,0.38,0.91,0.57,1.36c0.23,0.56,0.47,1.11,0.71,1.66
			c0.68,1.55,1.39,3.1,2.12,4.62c0.25,0.53,0.51,1.06,0.78,1.59c0.27,0.56,0.55,1.12,0.84,1.67c0.27,0.54,0.54,1.07,0.83,1.61
			c0.42,0.8,0.85,1.6,1.29,2.39c1.03,1.86,2.1,3.7,3.21,5.51c0.3,0.51,0.61,1.01,0.93,1.51c2.05,3.27,4.22,6.44,6.53,9.53
			c0.35,0.48,0.71,0.96,1.08,1.44c0.47,0.61,0.95,1.22,1.43,1.83c0.25,0.32,0.5,0.64,0.75,0.95c0.45,0.55,0.9,1.1,1.35,1.64
			c0.51,0.62,1.02,1.23,1.54,1.83c0.12,0.15,0.25,0.29,0.37,0.43c0.54,0.63,1.08,1.25,1.64,1.86c0.58,0.65,1.16,1.29,1.76,1.93
			c1.29,1.39,2.6,2.76,3.95,4.1c0.61,0.6,1.23,1.21,1.85,1.8c0.65,0.63,1.31,1.26,1.98,1.87c0.55,0.51,1.1,1.01,1.66,1.51
			c0.15,0.14,0.3,0.27,0.45,0.41c0.65,0.57,1.31,1.15,1.97,1.71c0.69,0.6,1.39,1.18,2.09,1.76c0.71,0.58,1.41,1.15,2.13,1.72
			c0.71,0.57,1.43,1.13,2.16,1.68c0.02,0.02,0.04,0.03,0.06,0.05c1.4,1.06,2.81,2.1,4.25,3.11c0.04,0.03,0.08,0.06,0.12,0.08
			c1.5,1.06,3.02,2.09,4.56,3.08c0.88,0.58,1.77,1.14,2.67,1.69c0.67,0.41,1.35,0.82,2.03,1.22c0.73,0.44,1.47,0.87,2.21,1.29
			c1.07,0.61,2.15,1.21,3.25,1.79c0.51,0.28,1.02,0.55,1.54,0.82c0.74,0.38,1.48,0.76,2.23,1.13c0.34,0.17,0.68,0.34,1.03,0.51
			c0.67,0.33,1.34,0.65,2.02,0.96c0.64,0.31,1.29,0.6,1.94,0.9c0.47,0.21,0.94,0.42,1.41,0.62c0.73,0.32,1.47,0.64,2.21,0.94
			c0.13,0.06,0.26,0.12,0.39,0.17c0.07,0.03,0.15,0.06,0.22,0.09c0.06,0.02,0.11,0.04,0.17,0.07v-0.01c1.65,0.69,3.31,1.34,5,1.95
			c0.55,0.21,1.11,0.41,1.67,0.61c1.11,0.39,2.22,0.77,3.33,1.12c14.32,4.68,29.27,7.05,44.5,7.05s30.18-2.37,44.5-7.05
			c1.11-0.35,2.22-0.73,3.33-1.12c0.56-0.2,1.12-0.4,1.67-0.61c1.69-0.61,3.35-1.26,5-1.95v0.01c0.06-0.03,0.13-0.05,0.19-0.08
			c0.03-0.01,0.05-0.02,0.08-0.03c0.17-0.07,0.34-0.14,0.51-0.22c0.74-0.3,1.48-0.62,2.21-0.94c0.47-0.2,0.94-0.41,1.41-0.62
			c0.65-0.3,1.3-0.59,1.94-0.9c0.32-0.15,0.64-0.29,0.96-0.45c0.32-0.15,0.64-0.3,0.95-0.46c0.04-0.01,0.07-0.03,0.11-0.05
			c0.35-0.17,0.69-0.34,1.03-0.51c0.57-0.28,1.13-0.57,1.69-0.85c0.18-0.1,0.36-0.19,0.54-0.28c0.52-0.27,1.03-0.54,1.54-0.82
			c0.45-0.24,0.9-0.48,1.35-0.73c0.64-0.35,1.27-0.7,1.9-1.06c0.74-0.42,1.48-0.85,2.21-1.29c0.28-0.17,0.56-0.33,0.84-0.5
			c0.28-0.17,0.56-0.34,0.84-0.51c0.12-0.07,0.23-0.14,0.35-0.21c0.25-0.15,0.5-0.3,0.74-0.46c0.62-0.38,1.23-0.77,1.83-1.16
			c0.03-0.03,0.07-0.05,0.1-0.07c1.54-0.99,3.06-2.02,4.56-3.08c0.04-0.02,0.08-0.05,0.12-0.08c1.44-1.01,2.86-2.05,4.25-3.11
			c0.02-0.02,0.04-0.03,0.06-0.05c0.42-0.32,0.84-0.65,1.26-0.98c0.3-0.23,0.6-0.46,0.9-0.7c0.36-0.28,0.71-0.57,1.07-0.86
			c0.35-0.28,0.7-0.57,1.06-0.86c0.7-0.58,1.4-1.16,2.09-1.76c0.66-0.56,1.32-1.14,1.97-1.71c0.15-0.14,0.3-0.27,0.45-0.41
			c0.56-0.5,1.11-1,1.66-1.51c0.36-0.33,0.71-0.66,1.07-1c0.3-0.29,0.61-0.58,0.91-0.87l0.93-0.9c0.27-0.26,0.55-0.53,0.82-0.81
			c0.03-0.02,0.07-0.06,0.1-0.09c0.09-0.09,0.19-0.18,0.27-0.28c0.49-0.48,0.97-0.97,1.45-1.46c0.25-0.26,0.51-0.53,0.76-0.8
			c0.49-0.52,0.98-1.04,1.47-1.56c0.3-0.32,0.59-0.64,0.89-0.96c0.29-0.32,0.58-0.64,0.87-0.97c0.56-0.61,1.1-1.23,1.64-1.86
			c0.12-0.14,0.25-0.28,0.37-0.43c0.52-0.6,1.03-1.21,1.54-1.83c0.36-0.44,0.74-0.89,1.11-1.34c0-0.01,0-0.01,0.01-0.02
			c0.08-0.09,0.15-0.19,0.23-0.28c0.25-0.31,0.5-0.63,0.75-0.95c0.37-0.47,0.74-0.94,1.11-1.41c0.1-0.14,0.21-0.28,0.32-0.42
			c0.05-0.06,0.09-0.12,0.14-0.18c0.32-0.42,0.63-0.84,0.94-1.26c0.51-0.67,1.01-1.35,1.49-2.04c0.17-0.23,0.34-0.46,0.5-0.69
			c0.02-0.03,0.04-0.06,0.06-0.09c0.44-0.62,0.88-1.25,1.31-1.88c0.55-0.79,1.08-1.59,1.61-2.4c0.53-0.81,1.05-1.61,1.56-2.43
			c0.32-0.5,0.63-1,0.93-1.51c0.36-0.59,0.71-1.17,1.06-1.76c0.37-0.62,0.73-1.24,1.09-1.87c0.36-0.62,0.71-1.26,1.06-1.89
			c0.34-0.62,0.68-1.24,1.01-1.87c0.28-0.52,0.56-1.05,0.83-1.58c0.02-0.02,0.03-0.05,0.04-0.07c0.52-1.01,1.03-2.02,1.52-3.04
			c0.2-0.4,0.39-0.8,0.59-1.21c0.27-0.57,0.54-1.14,0.8-1.72c0.71-1.54,1.39-3.1,2.04-4.67c0.27-0.64,0.53-1.28,0.79-1.93
			c0.24-0.6,0.48-1.2,0.71-1.81c0.02-0.04,0.03-0.08,0.05-0.12c0.02-0.04,0.03-0.09,0.05-0.13c0.02-0.04,0.03-0.09,0.05-0.13
			c0.18-0.49,0.37-0.96,0.54-1.45c0.24-0.64,0.47-1.28,0.7-1.93c0.22-0.62,0.44-1.25,0.65-1.89c0.1-0.3,0.2-0.6,0.3-0.9
			c0.23-0.7,0.46-1.4,0.67-2.11c0.02-0.04,0.03-0.08,0.04-0.12c0.26-0.82,0.51-1.65,0.75-2.48c0.2-0.71,0.42-1.4,0.6-2.12
			c0.01-0.02,0.01-0.05,0.02-0.07c0.01-0.02,0.01-0.05,0.02-0.07c0.06-0.2,0.11-0.41,0.17-0.61c0.15-0.55,0.29-1.1,0.43-1.65
			c0.01-0.04,0.02-0.07,0.03-0.11c0.1-0.37,0.19-0.74,0.27-1.11c0.03-0.1,0.05-0.19,0.07-0.29c0.02-0.05,0.03-0.1,0.04-0.16
			c0.08-0.29,0.15-0.58,0.22-0.88c0.02-0.08,0.03-0.16,0.05-0.24c0.06-0.2,0.11-0.41,0.15-0.61c0.16-0.7,0.32-1.4,0.47-2.11
			c0.05-0.2,0.09-0.4,0.13-0.6c0.14-0.64,0.27-1.29,0.39-1.94c0.05-0.25,0.1-0.5,0.14-0.74c0-0.01,0.01-0.03,0.01-0.04
			c0.12-0.61,0.23-1.23,0.34-1.85c0-0.03,0.01-0.05,0.01-0.08c0-0.02,0.01-0.03,0.01-0.05c0.14-0.77,0.27-1.53,0.39-2.3
			c0.07-0.43,0.14-0.86,0.2-1.3c0.09-0.59,0.17-1.18,0.25-1.77c0.11-0.77,0.21-1.55,0.3-2.33c0.03-0.22,0.05-0.45,0.08-0.67
			c0.07-0.59,0.14-1.19,0.2-1.79v-0.05c0.04-0.4,0.08-0.8,0.12-1.21c0.01-0.15,0.03-0.3,0.04-0.45c0.05-0.52,0.09-1.05,0.13-1.57
			c0.06-0.77,0.12-1.56,0.16-2.34c0.02-0.19,0.03-0.37,0.04-0.56c0.04-0.6,0.07-1.21,0.1-1.82c0.01-0.36,0.03-0.72,0.04-1.08H625.92
			z M428.05,208c-0.02,0.05-0.04,0.11-0.05,0.16v38.34c0-1.5,0.02-3.01,0.07-4.5H517v-34H428.05z M522,249.31V252h0.09
			C522.03,251.11,522,250.21,522,249.31z M522,247v2.14c0-0.72,0.02-1.43,0.05-2.14H522z M517,247v2.14c0-0.34,0-0.68,0.01-1.02
			L517,247z M620.91,252H621v-2.69C621,250.21,620.97,251.11,620.91,252z M620.95,247c0.03,0.71,0.05,1.42,0.05,2.14V247H620.95z"/>
		<path class="st1" d="M616,99.39V242h-0.27l0.22,5l0.01,0.21c0.02,0.64,0.04,1.28,0.04,1.93v21.69c2.81-5.74,4.53-12.1,4.91-18.83
			H621V101.16L616,99.39z M428,208v38.5c0-1.5,0.02-3.01,0.07-4.5c0.36-11.56,2.09-22.97,5.16-34H428z M428,208v38.5
			c0-1.5,0.02-3.01,0.07-4.5c0.36-11.56,2.09-22.97,5.16-34H428z M527,242v5h-5v5h0.09c0.38,6.73,2.1,13.09,4.91,18.83v-21.69
			c0-0.65,0.02-1.29,0.05-1.93l0.01-0.21l0.15-5H527z M428,208v38.5c0-1.5,0.02-3.01,0.07-4.5c0.36-11.56,2.09-22.97,5.16-34H428z
			 M527,388.21v5.23c1.83,0.56,3.66,1.08,5.51,1.56h38.99C555.99,395,541.04,392.62,527,388.21z M626,379.27v0.01
			c0.06-0.03,0.13-0.05,0.19-0.08C626.13,379.23,626.06,379.25,626,379.27z M626,379.27v0.01c0.06-0.03,0.13-0.05,0.19-0.08
			C626.13,379.23,626.06,379.25,626,379.27z M626,379.27v0.01c0.06-0.03,0.13-0.05,0.19-0.08
			C626.13,379.23,626.06,379.25,626,379.27z M626,379.27v0.01c0.06-0.03,0.13-0.05,0.19-0.08
			C626.13,379.23,626.06,379.25,626,379.27z M626,379.27v0.01c0.06-0.03,0.13-0.05,0.19-0.08
			C626.13,379.23,626.06,379.25,626,379.27z M626,379.27v0.01c0.06-0.03,0.13-0.05,0.19-0.08
			C626.13,379.23,626.06,379.25,626,379.27z M626,379.27v0.01c0.06-0.03,0.13-0.05,0.19-0.08
			C626.13,379.23,626.06,379.25,626,379.27z M626,379.27v0.01c0.06-0.03,0.13-0.05,0.19-0.08
			C626.13,379.23,626.06,379.25,626,379.27z M709.77,208c3.07,11.03,4.8,22.43,5.16,34c0.05,1.5,0.07,3,0.07,4.5V208H709.77z
			 M720,207.54V247c-0.01,0.89-0.02,1.78-0.04,2.67c0,0.39-0.02,0.78-0.03,1.17c-0.01,0.39-0.03,0.78-0.04,1.16
			c-0.02,0.96-0.07,1.92-0.13,2.87c0,0,0,0.01,0,0.02v0.07c-0.04,0.68-0.08,1.34-0.13,2.02c0,0.11-0.01,0.22-0.02,0.33
			c-0.02,0.23-0.04,0.46-0.05,0.69c0,0.05-0.01,0.1-0.01,0.15l-0.15,1.74c-0.01,0.09-0.01,0.17-0.02,0.26
			c-0.02,0.19-0.04,0.39-0.06,0.58c-0.05,0.56-0.11,1.11-0.16,1.67c-0.01,0.02-0.01,0.03-0.01,0.05c-0.05,0.49-0.1,0.97-0.16,1.45
			c-0.01,0.1-0.03,0.19-0.04,0.29c-0.04,0.4-0.08,0.79-0.14,1.18c-0.01,0.12-0.02,0.23-0.04,0.34c-0.05,0.36-0.1,0.72-0.15,1.08
			c-0.08,0.65-0.17,1.3-0.28,1.94c-0.02,0.19-0.05,0.38-0.08,0.57c-0.06,0.42-0.13,0.84-0.2,1.26c-0.06,0.42-0.14,0.84-0.21,1.25
			c-0.07,0.43-0.14,0.85-0.22,1.28c-0.08,0.42-0.16,0.83-0.24,1.25c-0.15,0.82-0.31,1.63-0.48,2.44c-0.14,0.69-0.29,1.38-0.44,2.06
			c-0.04,0.18-0.08,0.36-0.12,0.54c-0.17,0.78-0.36,1.55-0.55,2.32c-0.03,0.16-0.07,0.32-0.11,0.48c-0.17,0.69-0.34,1.37-0.53,2.05
			c-0.16,0.61-0.32,1.22-0.49,1.83c-0.24,0.87-0.49,1.74-0.74,2.61c-0.08,0.26-0.16,0.53-0.24,0.79c-0.13,0.44-0.26,0.87-0.4,1.31
			c-0.27,0.88-0.55,1.75-0.84,2.62c-0.3,0.88-0.59,1.75-0.9,2.61c-0.24,0.68-0.49,1.36-0.73,2.03c-0.18,0.48-0.36,0.95-0.54,1.42
			c-0.11,0.3-0.23,0.61-0.35,0.91c-0.19,0.49-0.38,0.97-0.58,1.46c-0.32,0.8-0.65,1.61-0.99,2.41c-0.34,0.8-0.68,1.59-1.04,2.39
			c-0.06,0.14-0.12,0.28-0.18,0.41c-0.29,0.67-0.59,1.33-0.9,1.99c-0.35,0.75-0.7,1.5-1.07,2.25c-0.34,0.7-0.69,1.4-1.04,2.09
			c-0.24,0.48-0.48,0.95-0.72,1.42c-0.02,0.04-0.05,0.09-0.07,0.13c-1.2,2.3-2.45,4.56-3.76,6.79c-0.44,0.76-0.89,1.5-1.35,2.25
			c-0.39,0.63-0.79,1.27-1.19,1.9c-0.23,0.37-0.47,0.74-0.71,1.11c-0.02,0.03-0.04,0.07-0.06,0.1c-0.29,0.45-0.58,0.9-0.88,1.34
			c-0.49,0.74-0.99,1.47-1.49,2.2s-1,1.45-1.52,2.17c-0.24,0.35-0.49,0.68-0.74,1.02c-0.03,0.05-0.07,0.11-0.11,0.16
			c-0.63,0.87-1.27,1.72-1.92,2.57c-0.07,0.09-0.13,0.17-0.21,0.26c-0.45,0.6-0.92,1.21-1.39,1.8c-0.06,0.08-0.13,0.16-0.19,0.24
			c-0.1,0.13-0.2,0.26-0.31,0.38c-0.38,0.48-0.76,0.95-1.15,1.42c-0.35,0.44-0.71,0.88-1.09,1.31c-0.58,0.7-1.16,1.38-1.76,2.06
			c-0.45,0.52-0.9,1.03-1.36,1.54c-0.45,0.5-0.9,1-1.36,1.49c-0.93,1.02-1.88,2.03-2.85,3.02c-0.47,0.49-0.96,0.98-1.44,1.46
			c-0.47,0.47-0.95,0.94-1.42,1.4c-1.03,1-2.07,1.99-3.13,2.96c-0.42,0.38-0.84,0.77-1.26,1.14c-0.11,0.11-0.22,0.21-0.34,0.31
			c-0.03,0.02-0.05,0.05-0.08,0.08c-0.42,0.37-0.85,0.74-1.28,1.12c-0.52,0.45-1.04,0.9-1.56,1.34s-1.05,0.88-1.58,1.32
			c-0.53,0.43-1.06,0.87-1.59,1.29c-0.54,0.43-1.08,0.86-1.62,1.28c-1.13,0.89-2.28,1.75-3.45,2.6c-0.5,0.37-1,0.73-1.5,1.09
			c-0.7,0.5-1.4,0.99-2.11,1.48c-0.58,0.4-1.16,0.8-1.75,1.19c-0.48,0.32-0.97,0.64-1.46,0.96c-0.36,0.24-0.72,0.47-1.09,0.7
			c-0.72,0.46-1.46,0.92-2.19,1.37c-0.79,0.49-1.59,0.97-2.4,1.44c-0.01,0.01-0.03,0.02-0.04,0.02c-0.12,0.07-0.23,0.14-0.35,0.21
			c-0.61,0.36-1.22,0.71-1.84,1.06c-1.52,0.86-3.05,1.69-4.6,2.49c-0.38,0.2-0.76,0.4-1.14,0.59c-0.07,0.04-0.14,0.07-0.21,0.11
			c-0.22,0.11-0.45,0.22-0.67,0.33c-0.48,0.24-0.96,0.48-1.45,0.72c-0.62,0.3-1.24,0.6-1.87,0.89c-0.53,0.25-1.05,0.49-1.58,0.73
			c-0.02,0.01-0.05,0.02-0.07,0.03c-1.35,0.62-2.7,1.21-4.06,1.78c-0.82,0.34-1.64,0.68-2.47,1c-0.88,0.36-1.77,0.7-2.66,1.03
			c-0.89,0.34-1.78,0.66-2.68,0.98c-1.65,0.58-3.32,1.14-5,1.67c-14.04,4.41-28.99,6.79-44.5,6.79h38.99c1.85-0.48,3.68-1,5.51-1.56
			c2.24-0.68,4.46-1.41,6.67-2.19c0.95-0.34,1.9-0.68,2.84-1.04c0.69-0.25,1.37-0.51,2.04-0.79c0.11-0.04,0.22-0.09,0.33-0.13
			c0.32-0.13,0.65-0.25,0.97-0.38c0.76-0.3,1.51-0.61,2.26-0.93c0.68-0.28,1.36-0.58,2.04-0.88c0.17-0.07,0.33-0.15,0.5-0.22
			c0.18-0.07,0.36-0.15,0.53-0.23c0.61-0.27,1.22-0.55,1.82-0.83c1.02-0.47,2.02-0.95,3.02-1.44c0.37-0.18,0.75-0.37,1.12-0.56
			c0.16-0.07,0.31-0.15,0.47-0.23c0.53-0.27,1.06-0.54,1.58-0.81c0.79-0.41,1.58-0.82,2.36-1.25c0.11-0.06,0.21-0.11,0.32-0.17
			c0.77-0.42,1.53-0.85,2.29-1.28c0.7-0.39,1.4-0.8,2.09-1.21c0.85-0.5,1.7-1.01,2.54-1.53c0.85-0.52,1.68-1.04,2.51-1.57
			c0.38-0.25,0.76-0.49,1.14-0.74c0.64-0.42,1.28-0.85,1.92-1.28c0.65-0.44,1.29-0.88,1.93-1.33c1.43-1,2.83-2.01,4.22-3.06
			c0.4-0.3,0.8-0.6,1.19-0.89c0.02-0.02,0.04-0.04,0.06-0.05c0.09-0.07,0.19-0.15,0.28-0.22c1.1-0.85,2.17-1.7,3.24-2.57
			c0.4-0.32,0.79-0.64,1.18-0.97c0.38-0.31,0.76-0.63,1.14-0.95c0.88-0.75,1.75-1.5,2.61-2.27c0.54-0.47,1.07-0.95,1.6-1.44
			c0.43-0.39,0.87-0.79,1.29-1.19c0.01-0.01,0.01-0.01,0.02-0.02c0.52-0.48,1.04-0.97,1.55-1.47c0.61-0.58,1.22-1.17,1.82-1.77
			l0.26-0.26c2.06-2.06,4.06-4.17,6.01-6.34c0.7-0.79,1.4-1.59,2.09-2.39c0.57-0.67,1.14-1.34,1.7-2.02
			c1.07-1.29,2.11-2.59,3.13-3.9c0.29-0.37,0.57-0.74,0.86-1.11c1.09-1.44,2.16-2.9,3.21-4.38c0.49-0.69,0.98-1.39,1.46-2.1
			c0.57-0.84,1.13-1.68,1.69-2.53c0.49-0.75,0.98-1.51,1.45-2.27c0.09-0.13,0.17-0.26,0.24-0.38c0.04-0.06,0.07-0.11,0.11-0.17
			c0.44-0.7,0.87-1.4,1.29-2.11c0.42-0.69,0.83-1.38,1.23-2.08c0.33-0.57,0.66-1.14,0.98-1.72c0.07-0.11,0.13-0.22,0.19-0.33
			c0.29-0.51,0.57-1.02,0.85-1.54c0.82-1.49,1.6-2.99,2.37-4.51c0.4-0.79,0.79-1.58,1.17-2.38c0.08-0.16,0.15-0.31,0.23-0.47
			c0.38-0.8,0.76-1.6,1.12-2.41c0.34-0.73,0.67-1.47,0.99-2.21c0.25-0.58,0.5-1.15,0.74-1.73c0.08-0.16,0.14-0.32,0.21-0.48
			c0.28-0.66,0.55-1.33,0.82-2c0.29-0.7,0.57-1.42,0.85-2.13c0-0.01,0-0.03,0.01-0.04c0.28-0.73,0.56-1.47,0.83-2.21
			c0.28-0.75,0.55-1.5,0.81-2.26c0.13-0.36,0.26-0.73,0.38-1.09c0.04-0.13,0.09-0.26,0.13-0.39c0.02-0.06,0.04-0.12,0.06-0.18
			c0.23-0.68,0.46-1.37,0.68-2.06c0.57-1.76,1.11-3.53,1.61-5.32c0.17-0.59,0.33-1.19,0.49-1.78c0.16-0.6,0.32-1.2,0.47-1.79
			c0.15-0.6,0.3-1.2,0.45-1.8c0.14-0.61,0.28-1.21,0.42-1.81c0.11-0.42,0.2-0.83,0.29-1.25c0.37-1.67,0.71-3.34,1.02-5.03
			c0-0.01,0.01-0.02,0.01-0.04c0.02-0.04,0.03-0.08,0.03-0.13v-0.04c0.17-0.89,0.33-1.78,0.48-2.68c0.13-0.78,0.25-1.56,0.37-2.35
			c0.04-0.23,0.07-0.46,0.11-0.7c0.01-0.07,0.02-0.14,0.03-0.22c0.11-0.76,0.21-1.52,0.31-2.3c0.09-0.67,0.17-1.35,0.25-2.03
			c0.01-0.11,0.03-0.23,0.04-0.34c0.03-0.27,0.06-0.55,0.09-0.82c0-0.03,0.01-0.06,0.01-0.09c0.09-0.78,0.16-1.55,0.23-2.33
			c0.09-0.95,0.16-1.89,0.23-2.83c0.07-0.95,0.13-1.89,0.18-2.84s0.1-1.9,0.13-2.85c0.01-0.39,0.03-0.78,0.04-1.17
			c0.01-0.39,0.03-0.78,0.03-1.17c0.02-0.88,0.03-1.77,0.04-2.66v-0.5C725,233.27,723.33,220.19,720,207.54z M715,246.5V208h-5.23
			c3.07,11.03,4.8,22.43,5.16,34C714.98,243.5,715,245,715,246.5z M626,379.27v0.01c0.06-0.03,0.13-0.05,0.19-0.08
			C626.13,379.23,626.06,379.25,626,379.27z M709.77,208c3.07,11.03,4.8,22.43,5.16,34c0.05,1.5,0.07,3,0.07,4.5V208H709.77z
			 M626,379.27v0.01c0.06-0.03,0.13-0.05,0.19-0.08C626.13,379.23,626.06,379.25,626,379.27z M626,379.27v0.01
			c0.06-0.03,0.13-0.05,0.19-0.08C626.13,379.23,626.06,379.25,626,379.27z M626,379.27v0.01c0.06-0.03,0.13-0.05,0.19-0.08
			C626.13,379.23,626.06,379.25,626,379.27z M626,379.27v0.01c0.06-0.03,0.13-0.05,0.19-0.08
			C626.13,379.23,626.06,379.25,626,379.27z M626,379.27v0.01c0.06-0.03,0.13-0.05,0.19-0.08
			C626.13,379.23,626.06,379.25,626,379.27z M626,379.27v0.01c0.06-0.03,0.13-0.05,0.19-0.08
			C626.13,379.23,626.06,379.25,626,379.27z M626,379.27v0.01c0.06-0.03,0.13-0.05,0.19-0.08
			C626.13,379.23,626.06,379.25,626,379.27z M626,379.27v0.01c0.06-0.03,0.13-0.05,0.19-0.08
			C626.13,379.23,626.06,379.25,626,379.27z M516.83,379.21c0.06,0.02,0.11,0.04,0.17,0.07v-0.01
			C516.94,379.25,516.89,379.23,516.83,379.21z M436.81,295.92c0,0.03,0.01,0.05,0.02,0.08h0.01
			C436.83,295.98,436.82,295.95,436.81,295.92z"/>
		<path class="st0" d="M717.17,198H715v-6.07C715.77,193.94,716.49,195.96,717.17,198z"/>
		<path class="st0" d="M621,381.22v5.32c-1.65,0.58-3.32,1.14-5,1.67v-5.26c1.11-0.35,2.22-0.73,3.33-1.12
			C619.89,381.63,620.45,381.43,621,381.22z"/>
		<path class="st0" d="M616,382.95v5.26c-14.04,4.41-28.99,6.79-44.5,6.79s-30.46-2.38-44.5-6.79v-5.26
			c14.32,4.68,29.27,7.05,44.5,7.05S601.68,387.63,616,382.95z"/>
		<path class="st0" d="M527,382.95v5.26c-1.68-0.53-3.35-1.09-5-1.67v-5.32c0.55,0.21,1.11,0.41,1.67,0.61
			C524.78,382.22,525.89,382.6,527,382.95z"/>
		<path class="st0" d="M522,381.22v5.32c-42.19-14.91-75.64-48.35-90.55-90.54h5.39c0.26,0.72,0.53,1.44,0.81,2.16
			c0.06,0.16,0.12,0.31,0.18,0.46c0.29,0.74,0.59,1.48,0.89,2.22c0.19,0.46,0.38,0.91,0.57,1.36c0.23,0.56,0.47,1.11,0.71,1.66
			c0.68,1.55,1.39,3.1,2.12,4.62c0.25,0.53,0.51,1.06,0.78,1.59c0.27,0.56,0.55,1.12,0.84,1.67c0.27,0.54,0.54,1.07,0.83,1.61
			c0.42,0.8,0.85,1.6,1.29,2.39c1.03,1.86,2.1,3.7,3.21,5.51c0.3,0.51,0.61,1.01,0.93,1.51c2.05,3.27,4.22,6.44,6.53,9.53
			c0.35,0.48,0.71,0.96,1.08,1.44c0.47,0.61,0.95,1.22,1.43,1.83c0.25,0.32,0.5,0.64,0.75,0.95c0.45,0.55,0.9,1.1,1.35,1.64
			c0.5,0.62,1.02,1.23,1.54,1.83c0.12,0.15,0.25,0.29,0.37,0.43c0.54,0.63,1.08,1.25,1.64,1.86c0.58,0.65,1.16,1.29,1.76,1.93
			c1.29,1.39,2.6,2.76,3.95,4.1c0.61,0.6,1.23,1.21,1.85,1.8c0.65,0.64,1.31,1.26,1.98,1.87c0.55,0.51,1.1,1.01,1.66,1.51
			c0.15,0.14,0.3,0.27,0.45,0.41c0.65,0.57,1.31,1.15,1.97,1.71c0.69,0.6,1.39,1.18,2.09,1.76c0.7,0.59,1.41,1.16,2.13,1.72
			c0.71,0.57,1.44,1.13,2.16,1.68c0.02,0.02,0.04,0.03,0.06,0.05c1.4,1.06,2.81,2.1,4.25,3.11c0.04,0.03,0.08,0.06,0.12,0.08
			c1.5,1.06,3.02,2.09,4.56,3.08c0.88,0.58,1.77,1.14,2.67,1.69c0.67,0.41,1.35,0.82,2.03,1.22c0.73,0.44,1.47,0.87,2.21,1.29
			c1.07,0.61,2.15,1.21,3.25,1.79c0.51,0.28,1.02,0.55,1.54,0.82c0.74,0.38,1.48,0.76,2.23,1.13c0.34,0.17,0.68,0.34,1.03,0.51
			c0.67,0.33,1.34,0.65,2.02,0.96c0.64,0.31,1.29,0.6,1.94,0.9c0.47,0.21,0.94,0.42,1.41,0.62c0.73,0.32,1.47,0.64,2.21,0.94
			c0.13,0.06,0.26,0.12,0.39,0.17c0.07,0.03,0.15,0.06,0.22,0.09c0.06,0.02,0.11,0.04,0.17,0.07v-0.01
			C518.65,379.96,520.31,380.61,522,381.22z"/>
		<path class="st0" d="M436.83,296h-5.38c-4.9-13.84-7.79-28.62-8.34-44h5c0.07,1.95,0.18,3.89,0.34,5.82
			c0.03,0.5,0.08,0.99,0.13,1.49c0.04,0.58,0.1,1.16,0.16,1.74c0.09,0.85,0.18,1.71,0.29,2.56c0.08,0.77,0.18,1.53,0.29,2.28
			c0.07,0.55,0.15,1.11,0.24,1.65c0.07,0.51,0.15,1.02,0.23,1.52c0.12,0.79,0.25,1.57,0.4,2.35c0.08,0.52,0.18,1.03,0.28,1.55
			c0.08,0.44,0.16,0.88,0.25,1.31c0.09,0.49,0.19,0.97,0.3,1.45c0.05,0.3,0.12,0.6,0.18,0.89c0.14,0.66,0.29,1.31,0.44,1.96
			c0.16,0.69,0.32,1.37,0.49,2.05c0.12,0.5,0.24,1,0.38,1.5c0.13,0.53,0.27,1.06,0.41,1.59c0.06,0.2,0.11,0.41,0.17,0.61
			c0.2,0.75,0.41,1.5,0.63,2.24c0.01,0.03,0.02,0.06,0.03,0.08c0.2,0.72,0.42,1.44,0.65,2.15c0.23,0.78,0.48,1.56,0.73,2.33
			c0.14,0.4,0.27,0.81,0.41,1.21c0.19,0.56,0.38,1.13,0.58,1.69c0.22,0.64,0.45,1.27,0.69,1.9
			C436.81,295.95,436.82,295.97,436.83,296z"/>
		<path class="st0" d="M522,252v19.89c-2.85-6.16-4.57-12.89-4.93-19.89H522z"/>
		<path class="st0" d="M527,270.83v9.73c-1.93-2.72-3.61-5.62-5-8.67V252h0.09C522.47,258.73,524.19,265.09,527,270.83z"/>
		<path class="st0" d="M555.53,296h-11.86c-6.64-3.94-12.3-9.23-16.67-15.44v-9.73c5.65,11.6,15.71,20.65,28,24.99
			C555.18,295.88,555.35,295.94,555.53,296z"/>
		<path class="st0" d="M599.33,296c-3.02,1.81-6.26,3.33-9.66,4.53c-5.81,2.06-11.93,3.11-18.17,3.11s-12.36-1.05-18.17-3.11
			c-3.4-1.2-6.63-2.72-9.66-4.53h11.86c5.01,1.72,10.38,2.64,15.97,2.64s10.96-0.92,15.97-2.64H599.33z"/>
		<path class="st0" d="M616,270.83v9.72c-4.37,6.21-10.03,11.5-16.67,15.45h-11.86c0.18-0.06,0.35-0.12,0.53-0.18
			C600.29,291.48,610.35,282.43,616,270.83z"/>
		<path class="st0" d="M621,252v19.87c-1.39,3.05-3.07,5.95-5,8.68v-9.72c2.81-5.74,4.53-12.1,4.91-18.83H621z"/>
		<path class="st0" d="M625.92,252c-0.37,6.99-2.08,13.71-4.92,19.87V252H625.92z"/>
		<path class="st0" d="M715,191.93V198h-3.11c-6.43-18.62-16.45-35.57-29.25-50h6.55C700.1,161.01,708.88,175.84,715,191.93z"/>
		<rect x="621" y="148" class="st0" width="5" height="50"/>
		<path class="st0" d="M626,102.97v5.36c-1.65-0.65-3.32-1.28-5-1.87v-5.3l1.67,0.59C623.79,102.14,624.9,102.55,626,102.97z"/>
		<path class="st0" d="M626,108.33V148h-5v-41.54C622.68,107.05,624.35,107.68,626,108.33z"/>
		<path class="st0" d="M689.19,148h-6.55c-15.37-17.32-34.73-31.02-56.64-39.67v-5.36C650.78,112.38,672.48,128.06,689.19,148z"/>
		<path class="st0" d="M682.64,148h-6.82C661.95,133.31,645,121.52,626,113.72v-5.39C647.91,116.98,667.27,130.68,682.64,148z"/>
		<path class="st0" d="M711.89,198h-5.3c-6.74-18.75-17.31-35.74-30.77-50h6.82C695.44,162.43,705.46,179.38,711.89,198z"/>
	</g>
	<g>
		<path class="st0" d="M517,208v34h-88.93c-0.05,1.49-0.07,3-0.07,4.5V208H517z"/>
		<path class="st1" d="M517,247v2.14c0-0.34,0-0.68,0.01-1.02L517,247z M517.04,251.32c-0.02-0.66-0.04-1.33-0.04-1.99V252h0.05
			L517.04,251.32z M428,242v4.5c0-1.5,0.02-3.01,0.07-4.5H428z M517,247v2.14c0-0.34,0-0.68,0.01-1.02L517,247z M428,242v4.5
			c0-1.5,0.02-3.01,0.07-4.5H428z M517,247v2.14c0-0.34,0-0.68,0.01-1.02L517,247z M522,247v5h5v-5H522z M517,247v2.14
			c0-0.34,0-0.68,0.01-1.02L517,247z M428,242v4.5c0-1.5,0.02-3.01,0.07-4.5H428z M517,247v2.14c0-0.34,0-0.68,0.01-1.02L517,247z
			 M428,242v4.5c0-1.5,0.02-3.01,0.07-4.5H428z M517,247v2.14c0-0.34,0-0.68,0.01-1.02L517,247z"/>
		<path class="st0" d="M428.11,252h-5c-0.07-1.66-0.1-3.33-0.11-5h5C428.01,248.67,428.04,250.34,428.11,252z"/>
		<path class="st0" d="M428,208.16V247h-5v-0.5C423,233.25,424.73,220.39,428,208.16z"/>
		<path class="st0" d="M522,203v44h-5v-39h-88.95c0.44-1.68,0.92-3.35,1.43-5H522z"/>
		<path class="st0" d="M522,247v5h-4.95l-0.01-0.68c-0.02-0.66-0.04-1.33-0.04-1.99v-0.19c0-0.34,0-0.68,0.01-1.02L517,247H522z"/>
		<path class="st0" d="M517,242v5h-89v-0.5c0-1.5,0.02-3.01,0.07-4.5H517z"/>
		<path class="st0" d="M517,247v5h-88.89c-0.07-1.66-0.1-3.33-0.11-5H517z"/>
	</g>
	<g>
		<path class="st0" d="M715,208v38.5c0-1.5-0.02-3-0.07-4.5H626v-34H715z"/>
		<path class="st1" d="M714.93,242c0.05,1.5,0.07,3,0.07,4.5V242H714.93z M714.93,242c0.05,1.5,0.07,3,0.07,4.5V242H714.93z
			 M714.93,242c0.05,1.5,0.07,3,0.07,4.5V242H714.93z M714.93,242c0.05,1.5,0.07,3,0.07,4.5V242H714.93z M714.93,242
			c0.05,1.5,0.07,3,0.07,4.5V242H714.93z M714.93,242c0.05,1.5,0.07,3,0.07,4.5V242H714.93z M720,198v49
			c-0.01,0.89-0.02,1.78-0.04,2.67c0,0.39-0.02,0.78-0.03,1.17c-0.01,0.39-0.03,0.78-0.04,1.16H725v-54H720z M714.93,242
			c0.05,1.5,0.07,3,0.07,4.5V242H714.93z M714.93,242c0.05,1.5,0.07,3,0.07,4.5V242H714.93z M714.93,242c0.05,1.5,0.07,3,0.07,4.5
			V242H714.93z M714.93,242c0.05,1.5,0.07,3,0.07,4.5V242H714.93z M714.93,242c0.05,1.5,0.07,3,0.07,4.5V242H714.93z M616,198v54h5
			v-54H616z"/>
		<path class="st0" d="M720,203v4.54c-0.39-1.52-0.81-3.03-1.27-4.54H720z"/>
		<path class="st0" d="M720,198v5h-1.27c-0.13-0.49-0.28-0.97-0.43-1.46c-0.36-1.19-0.74-2.37-1.13-3.54H720z"/>
		<path class="st0" d="M718.73,203H715v-5h2.17c0.39,1.17,0.77,2.35,1.13,3.54C718.45,202.03,718.6,202.51,718.73,203z"/>
		<path class="st0" d="M720,207.54v38.96c0-13.25-1.73-26.11-5-38.34V203h3.73C719.19,204.51,719.61,206.02,720,207.54z"/>
		<rect x="621" y="247" class="st0" width="5" height="5"/>
		<rect x="621" y="203" class="st0" width="5" height="44"/>
		<rect x="621" y="198" class="st0" width="5" height="5"/>
		<path class="st0" d="M715,203v5h-0.05c-0.44-1.68-0.92-3.35-1.43-5H715z"/>
		<path class="st0" d="M715,198v5h-1.48c-0.51-1.68-1.06-3.35-1.63-5H715z"/>
		<path class="st0" d="M714.95,208h-5.18c-0.33-1.18-0.67-2.36-1.03-3.53c-0.15-0.49-0.3-0.98-0.46-1.47h5.24
			C714.03,204.65,714.51,206.32,714.95,208z"/>
		<path class="st0" d="M713.52,203h-5.24c-0.53-1.68-1.1-3.35-1.69-5h5.3C712.46,199.65,713.01,201.32,713.52,203z"/>
		<path class="st0" d="M708.28,203H626v-5h80.59C707.18,199.65,707.75,201.32,708.28,203z"/>
		<path class="st0" d="M709.77,208H626v-5h82.28c0.16,0.49,0.31,0.98,0.46,1.47C709.1,205.64,709.44,206.82,709.77,208z"/>
		<path class="st0" d="M715,246.5v0.48c0,0.01,0,0.01,0,0.02h-89v-5h88.93C714.98,243.5,715,245,715,246.5z"/>
		<path class="st0" d="M720,246.5v0.5c-0.01,0.89-0.02,1.78-0.04,2.67c0,0.39-0.02,0.78-0.03,1.17c-0.01,0.39-0.03,0.78-0.04,1.16
			c-0.02,0.96-0.07,1.92-0.13,2.87c0,0,0,0.01,0,0.02v0.07c-0.04,0.68-0.08,1.34-0.13,2.02c0,0.11-0.01,0.22-0.02,0.33
			c-0.02,0.23-0.04,0.46-0.05,0.69c0,0.05-0.01,0.1-0.01,0.15l-0.15,1.74c-0.01,0.09-0.01,0.17-0.02,0.26
			c-0.02,0.19-0.04,0.39-0.06,0.58c-0.05,0.56-0.11,1.11-0.16,1.67c-0.01,0.02-0.01,0.03-0.01,0.05c-0.05,0.49-0.1,0.97-0.16,1.45
			c-0.01,0.1-0.03,0.19-0.04,0.29c-0.04,0.4-0.08,0.79-0.14,1.18c-0.01,0.12-0.02,0.23-0.04,0.34c-0.05,0.36-0.1,0.72-0.15,1.08
			c-0.08,0.65-0.17,1.3-0.28,1.94c-0.02,0.19-0.05,0.38-0.08,0.57c-0.06,0.42-0.13,0.84-0.2,1.26c-0.06,0.42-0.14,0.84-0.21,1.25
			c-0.07,0.43-0.14,0.85-0.22,1.28c-0.08,0.42-0.16,0.83-0.24,1.25c-0.15,0.82-0.31,1.63-0.48,2.44c-0.14,0.69-0.29,1.38-0.44,2.06
			c-0.04,0.18-0.08,0.36-0.12,0.54c-0.17,0.78-0.36,1.55-0.55,2.32c-0.03,0.16-0.07,0.32-0.11,0.48c-0.17,0.69-0.34,1.37-0.53,2.05
			c-0.16,0.61-0.32,1.22-0.49,1.83c-0.24,0.87-0.49,1.74-0.74,2.61c-0.08,0.26-0.16,0.53-0.24,0.79c-0.13,0.44-0.26,0.87-0.4,1.31
			c-0.27,0.88-0.55,1.75-0.84,2.62c-0.3,0.88-0.59,1.75-0.9,2.61c-0.24,0.68-0.49,1.36-0.73,2.03c-0.18,0.48-0.36,0.95-0.54,1.42
			c-0.11,0.3-0.23,0.61-0.35,0.91c-0.19,0.49-0.38,0.97-0.58,1.46c-0.32,0.8-0.65,1.61-0.99,2.41c-0.34,0.8-0.68,1.59-1.04,2.39
			c-0.06,0.14-0.12,0.28-0.18,0.41c-0.29,0.67-0.59,1.33-0.9,1.99c-0.35,0.75-0.7,1.5-1.07,2.25c-0.34,0.7-0.69,1.4-1.04,2.09
			c-0.24,0.48-0.48,0.95-0.72,1.42c-0.02,0.04-0.05,0.09-0.07,0.13c-1.2,2.3-2.45,4.56-3.76,6.79c-0.44,0.76-0.89,1.5-1.35,2.25
			c-0.39,0.63-0.79,1.27-1.19,1.9c-0.23,0.37-0.47,0.74-0.71,1.11c-0.02,0.03-0.04,0.07-0.06,0.1c-0.29,0.45-0.58,0.9-0.88,1.34
			c-0.49,0.74-0.99,1.47-1.49,2.2s-1,1.45-1.52,2.17c-0.24,0.35-0.49,0.68-0.74,1.02c-0.03,0.05-0.07,0.11-0.11,0.16
			c-0.63,0.87-1.27,1.72-1.92,2.57c-0.07,0.09-0.13,0.17-0.21,0.26c-0.45,0.6-0.92,1.21-1.39,1.8c-0.06,0.08-0.13,0.16-0.19,0.24
			c-0.1,0.13-0.2,0.26-0.31,0.38c-0.38,0.48-0.76,0.95-1.15,1.42c-0.35,0.44-0.71,0.88-1.09,1.31c-0.58,0.7-1.16,1.38-1.76,2.06
			c-0.45,0.52-0.9,1.03-1.36,1.54c-0.45,0.5-0.9,1-1.36,1.49c-0.93,1.02-1.88,2.03-2.85,3.02c-0.47,0.49-0.96,0.98-1.44,1.46
			c-0.47,0.47-0.95,0.94-1.42,1.4c-1.03,1-2.07,1.99-3.13,2.96c-0.42,0.38-0.84,0.77-1.26,1.14c-0.11,0.11-0.22,0.21-0.34,0.31
			c-0.03,0.02-0.05,0.05-0.08,0.08c-0.42,0.37-0.85,0.74-1.28,1.12c-0.52,0.45-1.04,0.9-1.56,1.34s-1.05,0.88-1.58,1.32
			c-0.53,0.43-1.06,0.87-1.59,1.29c-0.54,0.43-1.08,0.86-1.62,1.28c-1.13,0.89-2.28,1.75-3.45,2.6c-0.5,0.37-1,0.73-1.5,1.09
			c-0.7,0.5-1.4,0.99-2.11,1.48c-0.58,0.4-1.16,0.8-1.75,1.19c-0.48,0.32-0.97,0.64-1.46,0.96c-0.36,0.24-0.72,0.47-1.09,0.7
			c-0.72,0.46-1.46,0.92-2.19,1.37c-0.79,0.49-1.59,0.97-2.4,1.44c-0.01,0.01-0.03,0.02-0.04,0.02c-0.12,0.07-0.23,0.14-0.35,0.21
			c-0.61,0.36-1.22,0.71-1.84,1.06c-1.52,0.86-3.05,1.69-4.6,2.49c-0.38,0.2-0.76,0.4-1.14,0.59c-0.07,0.04-0.14,0.07-0.21,0.11
			c-0.22,0.11-0.45,0.22-0.67,0.33c-0.48,0.24-0.96,0.48-1.45,0.72c-0.62,0.3-1.24,0.6-1.87,0.89c-0.53,0.25-1.05,0.49-1.58,0.73
			c-0.02,0.01-0.05,0.02-0.07,0.03c-1.35,0.62-2.7,1.21-4.06,1.78c-0.82,0.34-1.64,0.68-2.47,1c-0.88,0.36-1.77,0.7-2.66,1.03
			c-0.89,0.34-1.78,0.66-2.68,0.98v-5.32c1.69-0.61,3.35-1.26,5-1.95v0.01c0.06-0.03,0.13-0.05,0.19-0.08
			c0.03-0.01,0.05-0.02,0.08-0.03c0.17-0.07,0.34-0.14,0.51-0.22c0.74-0.3,1.48-0.62,2.21-0.94c0.47-0.2,0.94-0.41,1.41-0.62
			c0.65-0.3,1.3-0.59,1.94-0.9c0.32-0.15,0.64-0.29,0.96-0.45c0.32-0.15,0.64-0.3,0.95-0.46c0.04-0.01,0.07-0.03,0.11-0.05
			c0.35-0.17,0.69-0.34,1.03-0.51c0.57-0.28,1.13-0.57,1.69-0.85c0.18-0.1,0.36-0.19,0.54-0.28c0.52-0.27,1.03-0.54,1.54-0.82
			c0.45-0.24,0.9-0.48,1.35-0.73c0.64-0.35,1.27-0.7,1.9-1.06c0.74-0.42,1.48-0.85,2.21-1.29c0.28-0.17,0.56-0.33,0.84-0.5
			c0.28-0.17,0.56-0.34,0.84-0.51c0.12-0.07,0.23-0.14,0.35-0.21c0.25-0.15,0.5-0.3,0.74-0.46c0.62-0.38,1.23-0.77,1.83-1.16
			c0.03-0.03,0.07-0.05,0.1-0.07c1.54-0.99,3.06-2.02,4.56-3.08c0.04-0.02,0.08-0.05,0.12-0.08c1.44-1.01,2.86-2.05,4.25-3.11
			c0.02-0.02,0.04-0.03,0.06-0.05c0.42-0.32,0.84-0.65,1.26-0.98c0.3-0.23,0.6-0.46,0.9-0.7c0.36-0.28,0.71-0.57,1.07-0.86
			c0.35-0.28,0.7-0.57,1.06-0.86c0.7-0.58,1.4-1.16,2.09-1.76c0.66-0.56,1.32-1.14,1.97-1.71c0.15-0.14,0.3-0.27,0.45-0.41
			c0.56-0.5,1.11-1,1.66-1.51c0.36-0.33,0.71-0.66,1.07-1c0.3-0.29,0.61-0.58,0.91-0.87l0.93-0.9c0.27-0.26,0.55-0.53,0.82-0.81
			c0.03-0.02,0.07-0.06,0.1-0.09c0.09-0.09,0.19-0.18,0.27-0.28c0.49-0.48,0.97-0.97,1.45-1.46c0.25-0.26,0.51-0.53,0.76-0.8
			c0.49-0.52,0.98-1.04,1.47-1.56c0.3-0.32,0.59-0.64,0.89-0.96c0.29-0.32,0.58-0.64,0.87-0.97c0.56-0.61,1.1-1.23,1.64-1.86
			c0.12-0.14,0.25-0.28,0.37-0.43c0.52-0.6,1.03-1.21,1.54-1.83c0.36-0.44,0.74-0.89,1.11-1.34c0-0.01,0-0.01,0.01-0.02
			c0.08-0.09,0.15-0.19,0.23-0.28c0.25-0.31,0.5-0.63,0.75-0.95c0.37-0.47,0.74-0.94,1.11-1.41c0.1-0.14,0.21-0.28,0.32-0.42
			c0.05-0.06,0.09-0.12,0.14-0.18c0.32-0.42,0.63-0.84,0.94-1.26c0.51-0.67,1.01-1.35,1.49-2.04c0.17-0.23,0.34-0.46,0.5-0.69
			c0.02-0.03,0.04-0.06,0.06-0.09c0.44-0.62,0.88-1.25,1.31-1.88c0.55-0.79,1.08-1.59,1.61-2.4c0.53-0.81,1.05-1.61,1.56-2.43
			c0.32-0.5,0.63-1,0.93-1.51c0.36-0.59,0.71-1.17,1.06-1.76c0.37-0.62,0.73-1.24,1.09-1.87c0.36-0.62,0.71-1.26,1.06-1.89
			c0.34-0.62,0.68-1.24,1.01-1.87c0.28-0.52,0.56-1.05,0.83-1.58c0.02-0.02,0.03-0.05,0.04-0.07c0.52-1.01,1.03-2.02,1.52-3.04
			c0.2-0.4,0.39-0.8,0.59-1.21c0.27-0.57,0.54-1.14,0.8-1.72c0.71-1.54,1.39-3.1,2.04-4.67c0.27-0.64,0.53-1.28,0.79-1.93
			c0.24-0.6,0.48-1.2,0.71-1.81c0.02-0.04,0.03-0.08,0.05-0.12c0.02-0.04,0.03-0.09,0.05-0.13c0.02-0.04,0.03-0.09,0.05-0.13
			c0.18-0.49,0.37-0.96,0.54-1.45c0.24-0.64,0.47-1.28,0.7-1.93c0.22-0.62,0.44-1.25,0.65-1.89c0.1-0.3,0.2-0.6,0.3-0.9
			c0.23-0.7,0.46-1.4,0.67-2.11c0.02-0.04,0.03-0.08,0.04-0.12c0.26-0.82,0.51-1.65,0.75-2.48c0.2-0.71,0.42-1.4,0.6-2.12
			c0.01-0.02,0.01-0.05,0.02-0.07c0.01-0.02,0.01-0.05,0.02-0.07c0.06-0.2,0.11-0.41,0.17-0.61c0.15-0.55,0.29-1.1,0.43-1.65
			c0.01-0.04,0.02-0.07,0.03-0.11c0.1-0.37,0.19-0.74,0.27-1.11c0.03-0.1,0.05-0.19,0.07-0.29c0.02-0.05,0.03-0.1,0.04-0.16
			c0.08-0.29,0.15-0.58,0.22-0.88c0.02-0.08,0.03-0.16,0.05-0.24c0.06-0.2,0.11-0.41,0.15-0.61c0.16-0.7,0.32-1.4,0.47-2.11
			c0.05-0.2,0.09-0.4,0.13-0.6c0.14-0.64,0.27-1.29,0.39-1.94c0.05-0.25,0.1-0.5,0.14-0.74c0-0.01,0.01-0.03,0.01-0.04
			c0.12-0.61,0.23-1.23,0.34-1.85c0-0.03,0.01-0.05,0.01-0.08c0-0.02,0.01-0.03,0.01-0.05c0.14-0.77,0.27-1.53,0.39-2.3
			c0.07-0.43,0.14-0.86,0.2-1.3c0.09-0.59,0.17-1.18,0.25-1.77c0.11-0.77,0.21-1.55,0.3-2.33c0.03-0.22,0.05-0.45,0.08-0.67
			c0.07-0.59,0.14-1.19,0.2-1.79v-0.05c0.04-0.4,0.08-0.8,0.12-1.21c0.01-0.15,0.03-0.3,0.04-0.45c0.05-0.52,0.09-1.05,0.13-1.57
			c0.06-0.77,0.12-1.56,0.16-2.34c0.02-0.19,0.03-0.37,0.04-0.56c0.04-0.6,0.07-1.21,0.1-1.82c0.01-0.36,0.03-0.72,0.04-1.08
			c0.03-0.76,0.06-1.53,0.07-2.3c0.02-0.9,0.03-1.8,0.04-2.7c0-0.01,0-0.01,0-0.02v-38.82C718.27,220.39,720,233.25,720,246.5z"/>
		<path class="st0" d="M715,247c-0.01,0.9-0.02,1.8-0.04,2.7c-0.01,0.77-0.04,1.54-0.07,2.3H626v-5H715z"/>
		<path d="M616,249.14v0.15c-0.06,18.76-11.98,35.56-29.67,41.82c-4.74,1.68-9.73,2.53-14.83,2.53s-10.09-0.85-14.83-2.53
			c-17.69-6.26-29.61-23.06-29.67-41.8v-0.17c0-0.65,0.02-1.29,0.05-1.93l0.01-0.21h88.89l0.01,0.21
			C615.98,247.85,616,248.49,616,249.14z"/>
	</g>
</g>
</svg>
