<?xml version="1.0" encoding="utf-8"?>
<!-- Generator: Adobe Illustrator 25.1.0, SVG Export Plug-In . SVG Version: 6.00 Build 0)  -->
<svg version="1.1" id="Layer_1" xmlns="http://www.w3.org/2000/svg" xmlns:xlink="http://www.w3.org/1999/xlink" x="0px" y="0px"
	 viewBox="0 0 242 57" style="enable-background:new 0 0 242 57;" xml:space="preserve">
<style type="text/css">
	.st0{fill:#E9B949;}
	.st1{fill:#FFFFFF;}
</style>
<path d="M57.05,0.71C50.96,1.55,45.42,3.1,40.84,5.26c-5.46,2.58-9.15,5.84-10.65,9.42l-0.06,0.14H0V0.71H57.05z"/>
<path d="M102.11,14.82h-29.6c-1.39-0.45-3.07-0.71-4.88-0.71H33.51c3.37-6.29,14.3-11.22,27.71-12.4c2.1-0.19,4.25-0.28,6.42-0.28
	C84.25,1.42,98.71,7.05,102.11,14.82z"/>
<path d="M125.76,0.71v14.11h-14.86v-0.14h0.17c-0.05-0.13-0.11-0.25-0.17-0.38C107.55,7.15,95.14,1.65,79.75,0.71H125.76z"/>
<rect x="127.24" y="1.42" width="55.89" height="12.68"/>
<rect x="214.05" y="0.71" width="27.95" height="14.11"/>
<g>
	<polygon class="st0" points="184.62,0.71 184.62,14.82 183.14,14.82 183.14,14.11 127.24,14.11 127.24,1.42 183.14,1.42 
		183.14,0.71 	"/>
	<path class="st1" d="M124.27,0v15.53h61.84V0H124.27z M125.76,14.82V0.71h57.38v14.11H125.76z"/>
	<polygon class="st0" points="127.24,1.42 127.24,14.11 183.14,14.11 183.14,14.82 125.76,14.82 125.76,0.71 183.14,0.71 
		183.14,1.42 	"/>
</g>
<path d="M64.42,35.84c-0.67-0.02-1.33-0.06-1.99-0.1c-0.5-0.03-1-0.07-1.49-0.11v0.28h-7.14v-0.57h-22.3V21.8h0.13
	c0.08,0.2,0.17,0.39,0.27,0.59c0.03,0.06,0.06,0.12,0.09,0.18c0.02,0.04,0.04,0.07,0.06,0.11c0.04,0.07,0.07,0.14,0.11,0.2
	c0.05,0.09,0.1,0.17,0.15,0.26c0.05,0.09,0.11,0.19,0.17,0.28c0.03,0.05,0.06,0.1,0.1,0.15c0.05,0.08,0.1,0.15,0.15,0.23
	c0.04,0.07,0.1,0.14,0.14,0.21c0.01,0.02,0.02,0.03,0.03,0.05c0.02,0.02,0.04,0.05,0.05,0.07c0.06,0.08,0.12,0.16,0.18,0.24
	c0.03,0.04,0.07,0.09,0.1,0.13c0,0,0.01,0.01,0.01,0.01c0.02,0.02,0.04,0.05,0.06,0.07c0,0.01,0.01,0.01,0.02,0.02
	c0.04,0.05,0.09,0.11,0.13,0.16c0.04,0.05,0.09,0.11,0.13,0.16c0.01,0.02,0.03,0.04,0.04,0.06c0.02,0.02,0.04,0.05,0.06,0.07
	c0.02,0.02,0.04,0.04,0.06,0.07c0.05,0.06,0.11,0.13,0.17,0.19c0.1,0.11,0.2,0.22,0.3,0.32c0.05,0.05,0.1,0.11,0.16,0.16
	c0.05,0.05,0.1,0.11,0.16,0.16c0.01,0.01,0.02,0.03,0.04,0.04c0.02,0.02,0.04,0.04,0.06,0.06c0.02,0.03,0.05,0.05,0.08,0.07
	c0.02,0.02,0.04,0.04,0.05,0.05c0.05,0.05,0.1,0.1,0.16,0.15c0.01,0.01,0.01,0.02,0.03,0.03c0.02,0.02,0.05,0.05,0.07,0.07
	c0.01,0.01,0.02,0.02,0.03,0.03c0,0,0,0,0.01,0c0,0,0,0,0.01,0.01c0,0,0.01,0.01,0.01,0.01c0.15,0.14,0.31,0.28,0.47,0.42
	c0.05,0.04,0.09,0.08,0.14,0.12c0.18,0.15,0.36,0.3,0.56,0.45c0.03,0.02,0.06,0.05,0.09,0.07c0.05,0.04,0.1,0.08,0.16,0.12
	c0,0,0.01,0.01,0.01,0.01c0.02,0.02,0.04,0.03,0.06,0.04c0.1,0.08,0.2,0.15,0.31,0.23c0.01,0.01,0.01,0.01,0.02,0.02
	c0.01,0.01,0.02,0.02,0.03,0.02c0.12,0.09,0.25,0.19,0.38,0.28c0.07,0.05,0.15,0.1,0.23,0.16c0.13,0.09,0.26,0.18,0.39,0.26
	c0.26,0.18,0.54,0.35,0.81,0.52c0.14,0.09,0.28,0.17,0.42,0.25c0.1,0.06,0.2,0.11,0.29,0.17c0.06,0.03,0.11,0.07,0.17,0.1
	c0.08,0.05,0.17,0.09,0.25,0.14c0.2,0.11,0.4,0.22,0.6,0.32c0.01,0,0.01,0.01,0.01,0.01c0.21,0.11,0.42,0.22,0.63,0.32
	c0.12,0.06,0.25,0.12,0.37,0.19c0.18,0.09,0.36,0.17,0.54,0.26c0.19,0.09,0.38,0.18,0.58,0.26c0.1,0.04,0.19,0.08,0.29,0.13
	c0.1,0.04,0.19,0.08,0.29,0.12c0.19,0.08,0.39,0.16,0.58,0.25c0.14,0.06,0.28,0.11,0.42,0.17c0.24,0.1,0.48,0.19,0.72,0.28
	c0.35,0.13,0.71,0.26,1.08,0.39c0.36,0.13,0.73,0.25,1.1,0.37c0.19,0.06,0.37,0.12,0.56,0.18c0.38,0.12,0.76,0.23,1.15,0.34
	c0.19,0.06,0.39,0.11,0.59,0.16c0.2,0.05,0.4,0.11,0.59,0.16c0.2,0.05,0.4,0.1,0.6,0.15c0.17,0.04,0.34,0.09,0.51,0.13
	c0.03,0.01,0.06,0.01,0.09,0.02v0c0.03,0.01,0.07,0.02,0.1,0.02c0.17,0.04,0.34,0.08,0.51,0.12c0.21,0.05,0.41,0.09,0.62,0.14
	c0.41,0.09,0.83,0.18,1.25,0.26c0.42,0.08,0.85,0.16,1.28,0.24c0,0,0,0,0,0c0.43,0.08,0.86,0.15,1.3,0.22
	c0.39,0.06,0.79,0.12,1.18,0.17c0.27,0.04,0.54,0.07,0.81,0.11c0.27,0.03,0.54,0.07,0.82,0.1c0.63,0.07,1.26,0.14,1.91,0.19
	c0.04,0,0.09,0.01,0.13,0.01c0.05,0,0.1,0.01,0.15,0.01c0.09,0.01,0.19,0.02,0.28,0.02c0.05,0.01,0.11,0.01,0.16,0.01
	c0.13,0.01,0.27,0.02,0.4,0.03c0.06,0.01,0.12,0.01,0.18,0.01c0.04,0,0.09,0.01,0.14,0.01c0.01,0,0.03,0,0.04,0
	c0.11,0.01,0.22,0.01,0.33,0.02c0.03,0,0.06,0,0.1,0.01c0.12,0.01,0.25,0.02,0.38,0.02c0.01,0,0.03,0,0.05,0
	c0.04,0,0.08,0,0.12,0.01c0.06,0,0.13,0.01,0.19,0.01c0.2,0.01,0.39,0.02,0.59,0.03C64.27,35.84,64.35,35.84,64.42,35.84z"/>
<path d="M64.82,35.86c-0.06,0-0.13,0-0.19-0.01c0.02,0,0.04,0,0.07,0C64.73,35.86,64.78,35.86,64.82,35.86z"/>
<path d="M65.09,35.87c-0.05,0-0.1,0-0.15-0.01h0C64.99,35.86,65.04,35.87,65.09,35.87z"/>
<path d="M66.78,35.91c-0.25,0-0.5-0.01-0.74-0.01c-0.04,0-0.07,0-0.1,0c0.1,0,0.2,0,0.29,0.01C66.41,35.9,66.6,35.9,66.78,35.91z"/>
<path d="M33.51,22.51h34.13c1.8,0,3.48-0.26,4.88-0.71h29.6c-3.4,7.77-17.86,13.39-34.47,13.39c-2.16,0-4.32-0.09-6.42-0.28
	c-0.09-0.01-0.18-0.02-0.27-0.02C47.66,33.67,36.86,28.76,33.51,22.51z"/>
<path d="M66.78,35.91c-1.99-0.02-3.94-0.11-5.84-0.28c-0.04,0-0.08-0.01-0.12-0.01c-14.72-1.3-26.37-6.8-29.32-13.82h0.13
	c2.94,7.01,14.59,12.52,29.3,13.82C62.84,35.79,64.79,35.88,66.78,35.91z"/>
<path d="M200.92,21.8h-14.81v7.13h23.96C208.06,26.26,204.92,23.83,200.92,21.8z M204.89,21.8c3.24,1.85,5.85,3.97,7.67,6.26V21.8
	H204.89z M214.05,21.8v14.11H242V21.8H214.05z M186.11,30.35v4.84h26.44c0.01,0.21,0.02,0.43,0.02,0.64v-5.49H186.11z M127.24,30.35
	v5.49c0-0.21,0.01-0.43,0.02-0.64h26.44v-4.84H127.24z M127.24,30.35v5.49c0-0.21,0.01-0.43,0.02-0.64h26.44v-4.84H127.24z
	 M127.24,30.35v5.49c0-0.21,0.01-0.43,0.02-0.64h26.44v-4.84H127.24z M127.24,30.35v5.49c0-0.21,0.01-0.43,0.02-0.64h26.44v-4.84
	H127.24z M127.24,30.35v5.49c0-0.21,0.01-0.43,0.02-0.64h26.44v-4.84H127.24z M127.24,30.35v5.49c0-0.21,0.01-0.43,0.02-0.64h26.44
	v-4.84H127.24z M127.24,30.35v5.49c0-0.21,0.01-0.43,0.02-0.64h26.44v-4.84H127.24z"/>
<path d="M184.62,21.8v14.11h-27.95v-6.98h-32.41v6.98H78.16c0.69-0.1,1.38-0.2,2.06-0.31c15.34-1.03,27.64-6.6,30.78-13.79H184.62z"
	/>
<path d="M169.91,57H60.95V42.89h65.77c4.44,6.22,14.6,11.31,27.98,13.57c0.66,0.11,1.32,0.22,1.98,0.31v-0.75
	C160.85,56.66,165.29,57,169.91,57z"/>
<path d="M209.94,42.89c-0.05,0.07-0.11,0.14-0.16,0.21c-0.01,0.01-0.01,0.01-0.01,0.02c-0.01,0.01-0.01,0.01-0.01,0.02
	c-0.01,0.01-0.01,0.01-0.01,0.02c-0.07,0.09-0.14,0.17-0.21,0.26c-0.08,0.09-0.15,0.18-0.23,0.28c-0.19,0.22-0.4,0.45-0.61,0.67
	c-0.08,0.08-0.16,0.16-0.24,0.25c-0.06,0.06-0.12,0.12-0.18,0.17c-0.15,0.15-0.3,0.29-0.45,0.43c0,0-0.01,0.01-0.01,0.01
	c-0.08,0.08-0.16,0.15-0.25,0.23c-0.1,0.09-0.2,0.18-0.3,0.27c-0.1,0.09-0.21,0.18-0.32,0.27c-0.11,0.09-0.21,0.18-0.32,0.27
	c-0.1,0.08-0.21,0.17-0.32,0.25c-0.09,0.07-0.18,0.14-0.28,0.22c-0.15,0.12-0.31,0.23-0.46,0.35c-0.16,0.12-0.32,0.23-0.48,0.34
	c-0.13,0.09-0.26,0.18-0.39,0.27c-0.01,0-0.01,0.01-0.02,0.01c-0.05,0.03-0.1,0.07-0.15,0.1c-0.14,0.1-0.29,0.2-0.44,0.29
	c-0.09,0.06-0.18,0.12-0.28,0.18c-0.01,0.01-0.03,0.02-0.04,0.03c-0.03,0.02-0.07,0.04-0.1,0.06c-0.11,0.07-0.22,0.13-0.33,0.2
	c-0.07,0.05-0.15,0.09-0.22,0.14c-0.02,0.01-0.04,0.03-0.07,0.04c0,0,0,0,0,0c-0.11,0.06-0.22,0.13-0.33,0.19
	c-0.15,0.09-0.3,0.18-0.46,0.26c-0.04,0.02-0.07,0.04-0.11,0.06c-0.16,0.09-0.32,0.18-0.49,0.27c-0.09,0.05-0.17,0.09-0.26,0.14
	c-0.09,0.05-0.18,0.09-0.26,0.14c-0.15,0.07-0.29,0.15-0.44,0.22c-0.07,0.04-0.15,0.08-0.23,0.11c-0.14,0.07-0.29,0.14-0.43,0.21
	c-0.02,0.01-0.05,0.03-0.08,0.04c-0.01,0-0.02,0.01-0.03,0.01c-0.08,0.04-0.16,0.08-0.24,0.12l-0.28,0.13
	c-0.09,0.04-0.18,0.08-0.27,0.12c-0.11,0.05-0.21,0.1-0.32,0.14c-0.16,0.07-0.33,0.14-0.49,0.22c-0.04,0.02-0.09,0.04-0.13,0.06
	c-0.19,0.08-0.39,0.16-0.59,0.24c-0.21,0.09-0.41,0.17-0.62,0.25c-0.11,0.04-0.21,0.08-0.32,0.12c-0.11,0.04-0.21,0.08-0.32,0.12
	c-0.09,0.03-0.18,0.07-0.27,0.1c-0.12,0.05-0.25,0.09-0.37,0.14c-0.01,0-0.01,0-0.02,0.01c-0.41,0.15-0.84,0.3-1.26,0.44
	c-0.01,0-0.02,0.01-0.04,0.01c-0.45,0.15-0.9,0.3-1.36,0.44c-0.01,0-0.02,0.01-0.03,0.01c-0.18,0.06-0.36,0.11-0.54,0.17
	c-0.07,0.02-0.15,0.04-0.22,0.07c-0.04,0.01-0.07,0.02-0.1,0.03c-0.08,0.02-0.17,0.05-0.25,0.07c-0.08,0.02-0.17,0.05-0.25,0.07
	c-0.22,0.06-0.44,0.12-0.66,0.18c-0.19,0.05-0.37,0.1-0.56,0.15c-0.13,0.04-0.27,0.07-0.4,0.1c-0.15,0.04-0.3,0.08-0.46,0.12
	c-0.05,0.01-0.11,0.03-0.16,0.04c-0.17,0.04-0.33,0.08-0.5,0.12c-0.1,0.02-0.2,0.05-0.31,0.07c-0.01,0-0.02,0.01-0.03,0.01
	c-0.09,0.02-0.19,0.04-0.28,0.07c-0.1,0.02-0.19,0.04-0.29,0.06c-0.19,0.04-0.38,0.09-0.58,0.13c-0.14,0.03-0.28,0.06-0.42,0.09
	c-0.22,0.05-0.44,0.09-0.66,0.13c-0.05,0.01-0.1,0.02-0.15,0.03c-0.01,0-0.01,0-0.02,0c-0.02,0-0.04,0.01-0.06,0.01v0
	c-0.49,0.1-0.98,0.19-1.49,0.28c-0.16,0.03-0.33,0.06-0.5,0.09c-0.33,0.06-0.66,0.11-0.99,0.16c-4.26,0.67-8.7,1-13.23,1
	s-8.97-0.34-13.23-1c-0.33-0.05-0.66-0.1-0.99-0.16c-0.17-0.03-0.33-0.06-0.5-0.09c-0.5-0.09-1-0.18-1.49-0.28v0
	c-0.02,0-0.03-0.01-0.05-0.01c-0.02,0-0.04-0.01-0.07-0.01c-0.04-0.01-0.08-0.02-0.12-0.02c-0.22-0.04-0.44-0.09-0.66-0.13
	c-0.14-0.03-0.28-0.06-0.42-0.09c-0.19-0.04-0.39-0.08-0.58-0.13c-0.2-0.04-0.4-0.09-0.6-0.14c-0.1-0.02-0.21-0.05-0.31-0.07
	c-0.22-0.05-0.44-0.11-0.66-0.16c-0.15-0.04-0.31-0.08-0.46-0.12c-0.33-0.08-0.65-0.17-0.97-0.26c-0.22-0.06-0.44-0.12-0.66-0.18
	c-0.2-0.06-0.4-0.12-0.6-0.17c-0.27-0.08-0.53-0.16-0.79-0.24c-0.46-0.14-0.91-0.29-1.36-0.44c-0.01,0-0.02-0.01-0.04-0.01
	c-0.43-0.14-0.85-0.29-1.26-0.44c-0.01,0-0.01,0-0.02-0.01c-0.22-0.08-0.43-0.16-0.64-0.24c-0.21-0.08-0.42-0.16-0.63-0.25
	c-0.21-0.08-0.42-0.17-0.62-0.25c-0.2-0.08-0.39-0.16-0.59-0.24c-0.04-0.02-0.09-0.04-0.13-0.06c-0.17-0.07-0.33-0.14-0.49-0.22
	c-0.2-0.09-0.4-0.18-0.59-0.27c-0.18-0.08-0.37-0.17-0.55-0.26c-0.4-0.19-0.79-0.39-1.17-0.58c-0.18-0.09-0.35-0.18-0.52-0.28
	c-0.17-0.09-0.33-0.18-0.49-0.27c-0.04-0.02-0.07-0.04-0.11-0.06c-0.15-0.09-0.31-0.17-0.46-0.26c-0.13-0.08-0.27-0.16-0.4-0.23
	c-0.07-0.04-0.15-0.09-0.22-0.14c-0.14-0.09-0.29-0.17-0.43-0.26c-0.11-0.07-0.22-0.14-0.32-0.21c-0.69-0.44-1.33-0.89-1.94-1.36
	c-0.1-0.07-0.19-0.14-0.28-0.22c-0.33-0.26-0.65-0.52-0.95-0.79c-0.13-0.11-0.26-0.23-0.38-0.34c-0.09-0.08-0.17-0.15-0.25-0.23
	c-0.09-0.08-0.17-0.16-0.25-0.24c-0.08-0.08-0.16-0.15-0.23-0.23c-0.22-0.22-0.43-0.44-0.63-0.66c-0.07-0.08-0.14-0.16-0.21-0.24
	c-0.06-0.06-0.11-0.13-0.17-0.19c-0.09-0.11-0.18-0.21-0.26-0.32c-0.02-0.02-0.04-0.04-0.05-0.07c-0.08-0.1-0.16-0.21-0.24-0.31
	h31.76c0.9,0.26,1.86,0.47,2.87,0.65c1.73,0.29,3.55,0.44,5.4,0.44s3.67-0.15,5.4-0.44c1.01-0.17,1.97-0.39,2.87-0.65H209.94z"/>
<path d="M242,42.89V57h-72.09c4.61,0,9.06-0.34,13.23-0.97c0.5-0.08,1-0.16,1.49-0.24c0.27-0.05,0.53-0.09,0.8-0.14
	c0.26-0.05,0.53-0.1,0.79-0.15c0.25-0.05,0.49-0.09,0.73-0.14c0.4-0.08,0.81-0.17,1.21-0.25c0.01,0,0.01,0,0.02,0
	c0.16-0.03,0.31-0.07,0.47-0.1c0.19-0.04,0.37-0.08,0.56-0.13c0.15-0.03,0.29-0.07,0.43-0.1c0.07-0.02,0.13-0.03,0.2-0.05
	c0.02-0.01,0.04-0.01,0.06-0.02c0.11-0.03,0.23-0.06,0.34-0.08c0.46-0.11,0.92-0.23,1.37-0.35c0.18-0.05,0.37-0.1,0.55-0.15
	c0.04-0.01,0.07-0.02,0.1-0.03c0,0,0.01,0,0.01,0c0.24-0.07,0.48-0.14,0.71-0.21c0.22-0.06,0.44-0.13,0.65-0.2
	c0.11-0.03,0.22-0.07,0.32-0.1c0.15-0.05,0.29-0.09,0.43-0.14c0.18-0.06,0.35-0.11,0.52-0.17c0.21-0.07,0.42-0.14,0.63-0.21
	c0.15-0.05,0.3-0.1,0.45-0.16c0.35-0.12,0.69-0.24,1.03-0.37c0.16-0.06,0.32-0.12,0.48-0.18c0.16-0.06,0.32-0.12,0.47-0.18
	c0.16-0.06,0.32-0.13,0.47-0.19c0.15-0.06,0.31-0.13,0.46-0.19c0.13-0.05,0.26-0.11,0.38-0.16c0.01,0,0.01-0.01,0.02-0.01
	c0.04-0.01,0.07-0.03,0.1-0.04c0.12-0.05,0.25-0.11,0.37-0.16c0.32-0.14,0.62-0.28,0.93-0.42c0.14-0.07,0.28-0.13,0.42-0.2
	c0.14-0.07,0.29-0.14,0.43-0.21c0.29-0.14,0.57-0.28,0.85-0.43c0.14-0.07,0.27-0.14,0.4-0.21c0.14-0.07,0.27-0.15,0.4-0.22
	c0.18-0.1,0.35-0.19,0.52-0.29c0.11-0.06,0.22-0.12,0.32-0.19c0.12-0.07,0.23-0.13,0.34-0.2c0.03-0.02,0.06-0.04,0.09-0.05
	c0.02-0.01,0.04-0.02,0.06-0.03c0.14-0.08,0.28-0.17,0.41-0.26c0.02-0.01,0.04-0.02,0.06-0.04c0.19-0.12,0.38-0.24,0.57-0.37
	c0.01-0.01,0.02-0.02,0.03-0.02c0.07-0.05,0.15-0.1,0.22-0.15c0.15-0.1,0.3-0.21,0.45-0.31c0.15-0.1,0.3-0.21,0.44-0.31
	c0.09-0.06,0.18-0.13,0.26-0.19c0.01,0,0.01-0.01,0.02-0.01c0.07-0.05,0.14-0.11,0.21-0.16c0.12-0.09,0.24-0.18,0.35-0.27
	c0.14-0.11,0.27-0.21,0.4-0.32c0.39-0.32,0.76-0.64,1.12-0.97c0.01-0.01,0.01-0.01,0.02-0.02c0.07-0.07,0.14-0.13,0.21-0.2
	c0.1-0.1,0.21-0.2,0.31-0.3c0.11-0.11,0.21-0.21,0.32-0.32c0.09-0.09,0.18-0.19,0.27-0.28c0.02-0.02,0.04-0.04,0.05-0.06
	c0.11-0.11,0.21-0.23,0.31-0.34c0.1-0.11,0.2-0.23,0.29-0.34c0.06-0.07,0.12-0.14,0.17-0.21c0.04-0.04,0.07-0.09,0.1-0.13
	c0.05-0.07,0.11-0.13,0.16-0.2c0.07-0.1,0.15-0.19,0.22-0.29H242z"/>
<rect x="0" y="42.89" width="26.46" height="14.11"/>
<rect x="0" y="21.8" width="26.46" height="14.11"/>
<rect x="215.54" y="0.71" width="26.46" height="14.11"/>
<rect x="33" y="42.89" width="26.46" height="13.4"/>
<rect x="31.51" y="42.89" width="29.43" height="14.11"/>
<path d="M60.95,22.51v12.38c-13.29-1.22-24.09-6.13-27.44-12.38H60.95z"/>
<path d="M60.95,35.62L60.95,35.62c-0.04,0.01-0.08,0-0.12,0c-14.72-1.3-26.37-6.8-29.32-13.82h0.13
	C34.58,28.82,46.23,34.32,60.95,35.62z"/>
<g>
	<path d="M59.46,36.93v19.36H33V27.62c1.81,1.55,4.08,2.97,6.79,4.25C45.25,34.44,52.03,36.19,59.46,36.93z"/>
	<path class="st1" d="M32.92,24.06L32.88,24C32.89,24.01,32.9,24.03,32.92,24.06c0.01,0.01,0.03,0.04,0.04,0.06
		C32.95,24.1,32.93,24.08,32.92,24.06z M60.83,35.62c-0.44-0.04-0.88-0.08-1.31-0.13c-0.22-0.02-0.43-0.05-0.65-0.07
		c-0.52-0.06-1.05-0.13-1.56-0.2c-0.17-0.02-0.33-0.04-0.49-0.07c-0.14-0.02-0.27-0.04-0.4-0.06c-0.16-0.02-0.33-0.05-0.49-0.08
		c-0.12-0.02-0.24-0.04-0.37-0.06c-0.37-0.06-0.74-0.13-1.11-0.19c-0.16-0.03-0.32-0.06-0.48-0.09c-0.15-0.03-0.3-0.06-0.45-0.09
		c-0.14-0.03-0.28-0.06-0.42-0.08c-0.36-0.07-0.71-0.15-1.07-0.23c-0.24-0.05-0.48-0.11-0.73-0.17c-0.23-0.06-0.46-0.11-0.69-0.17
		c-0.07-0.02-0.13-0.03-0.2-0.05c-0.21-0.05-0.41-0.1-0.61-0.16c-0.22-0.06-0.44-0.12-0.66-0.18c-0.13-0.04-0.27-0.08-0.4-0.11
		c-0.03-0.01-0.06-0.02-0.09-0.03c-0.12-0.03-0.23-0.07-0.34-0.1c-0.34-0.1-0.69-0.21-1.02-0.31c-0.15-0.05-0.29-0.09-0.44-0.14
		c-0.16-0.05-0.32-0.11-0.48-0.16c-0.28-0.09-0.56-0.19-0.83-0.29c-0.1-0.04-0.21-0.07-0.31-0.11c-0.64-0.23-1.26-0.48-1.86-0.73
		c-0.16-0.07-0.32-0.14-0.48-0.21c-0.37-0.16-0.74-0.33-1.1-0.5c-0.18-0.08-0.35-0.17-0.53-0.25c-0.18-0.09-0.35-0.17-0.52-0.26
		c-0.43-0.22-0.85-0.44-1.25-0.67c-0.08-0.04-0.15-0.09-0.23-0.13c-0.77-0.44-1.49-0.9-2.16-1.38c-0.1-0.07-0.2-0.14-0.29-0.21
		c-0.1-0.07-0.2-0.14-0.29-0.22c-0.15-0.11-0.29-0.22-0.44-0.34c-0.09-0.07-0.17-0.14-0.26-0.21v0c-0.11-0.09-0.21-0.17-0.31-0.26
		c-0.02-0.02-0.04-0.04-0.07-0.06c-0.08-0.07-0.17-0.14-0.25-0.22c-0.07-0.06-0.14-0.13-0.21-0.19c-0.09-0.08-0.18-0.16-0.26-0.24
		c-0.21-0.19-0.4-0.39-0.59-0.58c-0.05-0.05-0.1-0.11-0.15-0.16c-0.29-0.3-0.55-0.61-0.8-0.92c-0.04-0.05-0.08-0.1-0.12-0.15
		c-0.09-0.11-0.17-0.23-0.26-0.34c-0.07-0.09-0.13-0.18-0.19-0.27c-0.08-0.11-0.16-0.23-0.23-0.35c-0.05-0.07-0.09-0.14-0.13-0.21
		c-0.12-0.19-0.22-0.38-0.32-0.57c0,0,0,0,0,0l-0.41-0.58l-0.72-1l-0.77-1.07v1.55l0.16,0.37c0.34,0.8,0.78,1.58,1.33,2.34
		c1.91,2.66,5.08,5.07,9.32,7.07c0.26,0.12,0.52,0.24,0.78,0.36c0.21,0.09,0.42,0.19,0.63,0.28c0.24,0.1,0.48,0.2,0.73,0.3
		c0.2,0.08,0.39,0.16,0.59,0.24c0.12,0.05,0.23,0.09,0.35,0.13c0.13,0.05,0.26,0.1,0.39,0.15c0.16,0.06,0.33,0.12,0.5,0.18
		c0.18,0.07,0.37,0.13,0.56,0.2c0.01,0,0.02,0.01,0.04,0.01c0.21,0.07,0.41,0.14,0.62,0.21c0.13,0.04,0.26,0.09,0.4,0.13
		c0.13,0.04,0.26,0.08,0.4,0.13c0.24,0.08,0.48,0.15,0.73,0.22c0.06,0.02,0.12,0.03,0.18,0.05c0.22,0.07,0.44,0.13,0.67,0.19
		c0.03,0.01,0.06,0.02,0.09,0.02c0.01,0,0.02,0.01,0.03,0.01c0.2,0.06,0.4,0.11,0.61,0.16c0.02,0.01,0.04,0.01,0.06,0.02
		c0.07,0.02,0.14,0.04,0.21,0.06c0.24,0.06,0.48,0.13,0.73,0.19c0.13,0.03,0.26,0.07,0.4,0.1c0.13,0.03,0.26,0.06,0.4,0.09
		c0.03,0.01,0.07,0.02,0.1,0.03c0.02,0.01,0.05,0.01,0.07,0.02c0.24,0.06,0.49,0.11,0.74,0.17c0.24,0.05,0.49,0.1,0.73,0.16
		c0.08,0.02,0.17,0.03,0.25,0.05c0.02,0,0.04,0.01,0.07,0.01c0.23,0.05,0.46,0.09,0.7,0.14c0,0,0,0,0.01,0
		c0.08,0.02,0.17,0.03,0.25,0.05c0.01,0,0.03,0,0.04,0.01c0.22,0.04,0.44,0.08,0.66,0.12c0.12,0.02,0.25,0.04,0.37,0.06
		c0.04,0.01,0.09,0.01,0.13,0.02c0.14,0.02,0.27,0.05,0.41,0.07c0.23,0.04,0.46,0.07,0.7,0.11c0.07,0.01,0.15,0.02,0.22,0.03
		c0.23,0.03,0.48,0.07,0.71,0.1c0.28,0.04,0.56,0.08,0.84,0.11c0.04,0.01,0.09,0.01,0.13,0.02c0.13,0.02,0.26,0.03,0.4,0.05
		c0.12,0.01,0.23,0.03,0.35,0.04c0.02,0,0.04,0,0.05,0.01c0.02,0,0.05,0.01,0.07,0.01c0.25,0.03,0.51,0.06,0.76,0.08
		c0.05,0.01,0.11,0.01,0.17,0.02c0.08,0.01,0.17,0.02,0.25,0.03c0.2,0.02,0.4,0.04,0.6,0.06c0.09,0.01,0.18,0.02,0.27,0.02v-0.71
		C60.91,35.63,60.87,35.62,60.83,35.62z M61.22,35.64c0.09,0.01,0.19,0.02,0.28,0.02c0.05,0.01,0.11,0.01,0.16,0.01
		c0.04,0,0.08,0.01,0.12,0.01c0.09,0.01,0.19,0.02,0.28,0.02c0.06,0.01,0.12,0.01,0.18,0.01L61.22,35.64z"/>
	<polygon points="60.95,42.89 60.95,57 31.51,57 31.51,42.89 33,42.89 33,56.29 59.46,56.29 59.46,42.89 	"/>
	<path d="M60.95,36.34v6.55h-1.49v-5.96c-0.21-0.02-0.42-0.04-0.62-0.07c-0.21-0.02-0.41-0.05-0.62-0.07
		c-0.15-0.02-0.3-0.04-0.45-0.05c-0.13-0.01-0.25-0.03-0.38-0.05c-0.21-0.03-0.41-0.05-0.61-0.08c-0.17-0.02-0.33-0.05-0.5-0.07
		c-0.17-0.02-0.34-0.05-0.51-0.07c-0.2-0.03-0.4-0.06-0.6-0.09c-0.16-0.03-0.32-0.05-0.48-0.08c-0.18-0.03-0.36-0.06-0.54-0.09
		c-1.09-0.19-2.16-0.4-3.2-0.63c-0.15-0.03-0.3-0.07-0.46-0.1c-0.19-0.04-0.38-0.09-0.56-0.13c-0.23-0.06-0.46-0.11-0.69-0.17
		C49,35.11,48.77,35.06,48.55,35c0,0-0.01,0-0.01,0c-0.22-0.06-0.44-0.12-0.66-0.18c-0.01,0-0.01,0-0.02-0.01
		c-0.22-0.06-0.44-0.12-0.66-0.19c-0.2-0.06-0.39-0.11-0.58-0.17c-0.06-0.02-0.11-0.03-0.16-0.05c-0.4-0.12-0.79-0.25-1.18-0.37
		c-0.5-0.16-0.99-0.33-1.48-0.51c-0.13-0.05-0.26-0.09-0.38-0.14c-0.18-0.07-0.36-0.13-0.53-0.2c-0.13-0.05-0.27-0.1-0.4-0.16
		c-0.02-0.01-0.05-0.02-0.07-0.03c-0.16-0.06-0.31-0.12-0.46-0.19c-0.16-0.07-0.32-0.13-0.47-0.2c-0.13-0.05-0.26-0.11-0.4-0.17
		c-0.1-0.04-0.21-0.09-0.31-0.13c-0.16-0.07-0.32-0.14-0.47-0.21c-0.17-0.08-0.34-0.16-0.51-0.24c-2.71-1.28-4.98-2.7-6.79-4.25
		v15.27h-1.49v-18.6c1.91,2.66,5.08,5.07,9.32,7.07c0.26,0.12,0.52,0.24,0.78,0.36c0.21,0.09,0.42,0.19,0.63,0.28
		c0.24,0.1,0.48,0.21,0.73,0.3c0.2,0.08,0.39,0.16,0.59,0.24c0.12,0.05,0.23,0.09,0.35,0.13c0.13,0.05,0.26,0.1,0.39,0.15
		c0.16,0.06,0.33,0.12,0.5,0.18c0.18,0.07,0.37,0.13,0.56,0.2c0.01,0,0.02,0.01,0.04,0.01c0.21,0.07,0.41,0.14,0.62,0.21
		c0.13,0.04,0.26,0.09,0.4,0.13c0.13,0.04,0.26,0.08,0.4,0.13c0.24,0.08,0.48,0.15,0.73,0.22c0.06,0.02,0.12,0.03,0.18,0.05
		c0.22,0.07,0.44,0.13,0.67,0.19c0.03,0.01,0.06,0.02,0.09,0.02c0.01,0,0.02,0.01,0.03,0.01c0.2,0.06,0.4,0.11,0.61,0.16
		c0.02,0.01,0.04,0.01,0.06,0.02c0.07,0.02,0.14,0.04,0.21,0.06c0.24,0.06,0.48,0.13,0.73,0.19c0.13,0.03,0.26,0.07,0.4,0.1
		c0.13,0.03,0.26,0.06,0.4,0.09c0.03,0.01,0.07,0.02,0.1,0.03c0.02,0.01,0.05,0.01,0.07,0.02c0.24,0.06,0.49,0.11,0.74,0.17
		c0.24,0.05,0.49,0.11,0.73,0.16c0.08,0.02,0.17,0.03,0.25,0.05c0.02,0,0.04,0.01,0.07,0.01c0.23,0.05,0.46,0.09,0.7,0.14
		c0,0,0,0,0.01,0c0.08,0.02,0.17,0.03,0.25,0.05c0.01,0,0.03,0,0.04,0.01c0.22,0.04,0.44,0.08,0.66,0.12
		c0.12,0.02,0.25,0.04,0.37,0.06c0.04,0.01,0.09,0.01,0.13,0.02c0.14,0.02,0.27,0.05,0.41,0.07c0.23,0.04,0.46,0.07,0.7,0.11
		c0.07,0.01,0.15,0.02,0.22,0.03c0.23,0.03,0.48,0.07,0.71,0.1c0.28,0.04,0.56,0.08,0.84,0.11c0.04,0.01,0.09,0.01,0.13,0.02
		c0.13,0.02,0.26,0.03,0.4,0.05c0.12,0.01,0.23,0.03,0.35,0.04c0.02,0,0.04,0,0.05,0.01c0.02,0,0.05,0.01,0.07,0.01
		c0.25,0.03,0.51,0.06,0.76,0.08c0.05,0.01,0.11,0.01,0.17,0.02c0.08,0.01,0.17,0.02,0.25,0.03c0.2,0.02,0.4,0.04,0.6,0.06
		C60.76,36.33,60.85,36.33,60.95,36.34z"/>
</g>
<path d="M60.95,1v13.82h-29.3C34.58,7.81,46.23,2.3,60.95,1z"/>
<g>
	<path d="M102.17,14.96c-0.02-0.05-0.04-0.09-0.06-0.14C98.71,7.05,84.25,1.42,67.64,1.42c-2.16,0-4.32,0.09-6.42,0.28
		c-13.41,1.18-24.34,6.11-27.71,12.4h34.13c1.8,0,3.48,0.26,4.88,0.71c2.35,0.75,3.89,2.04,3.89,3.49c0,1.45-1.55,2.74-3.89,3.49
		c-1.39,0.45-3.07,0.71-4.88,0.71H33.51c3.35,6.25,14.15,11.15,27.44,12.38c0.09,0.01,0.18,0.02,0.27,0.02
		c2.1,0.19,4.26,0.28,6.42,0.28c16.62,0,31.07-5.62,34.47-13.39c0.02-0.05,0.04-0.09,0.06-0.14c0.46-1.1,0.69-2.22,0.69-3.35
		C102.86,17.19,102.63,16.06,102.17,14.96z"/>
	<path class="st1" d="M64.69,35.85c-0.02,0-0.04,0-0.07,0c0.07,0,0.13,0,0.19,0.01C64.78,35.86,64.73,35.86,64.69,35.85z
		 M64.94,35.86c0.05,0,0.1,0,0.15,0.01c0.07,0,0.14,0.01,0.21,0.01C65.18,35.87,65.06,35.87,64.94,35.86z M32.92,24.06
		C32.92,24.05,32.91,24.05,32.92,24.06c0.01,0.01,0.03,0.04,0.04,0.06C32.95,24.1,32.93,24.08,32.92,24.06z M34.71,26.11
		c-0.03-0.02-0.05-0.05-0.08-0.07c0.04,0.04,0.08,0.09,0.13,0.13c0.05,0.05,0.1,0.1,0.16,0.15C34.85,26.24,34.78,26.17,34.71,26.11z
		 M35.23,26.59c-0.01-0.01-0.03-0.02-0.04-0.04c0.03,0.03,0.06,0.06,0.1,0.09c0.05,0.04,0.1,0.09,0.15,0.13
		c0.05,0.04,0.1,0.09,0.16,0.13C35.47,26.81,35.35,26.7,35.23,26.59z M35.06,26.44C35.06,26.44,35.05,26.43,35.06,26.44
		C35.05,26.43,35.06,26.44,35.06,26.44c0,0,0.01,0.01,0.01,0.01C35.07,26.45,35.06,26.44,35.06,26.44z M36.49,27.63
		c-0.01-0.01-0.02-0.01-0.03-0.02C36.47,27.62,36.48,27.63,36.49,27.63C36.49,27.64,36.49,27.64,36.49,27.63z M37.92,28.65
		c0.26,0.17,0.54,0.35,0.81,0.52C38.46,29,38.19,28.83,37.92,28.65z M47.65,33.08c0.38,0.12,0.76,0.23,1.15,0.34
		C48.41,33.31,48.03,33.2,47.65,33.08z M52.4,34.33c0.42,0.09,0.83,0.18,1.25,0.26C53.24,34.51,52.82,34.42,52.4,34.33z
		 M53.66,34.59c0.42,0.08,0.85,0.16,1.28,0.24C54.51,34.75,54.08,34.67,53.66,34.59z M54.94,34.83c0.43,0.08,0.86,0.15,1.3,0.22
		C55.8,34.98,55.37,34.91,54.94,34.83z M60.95,35.62l0.02,0c0.04,0,0.07,0.01,0.11,0.01C61.03,35.63,60.99,35.62,60.95,35.62z
		 M61.5,35.66c0.05,0.01,0.11,0.01,0.16,0.01c0.04,0,0.08,0.01,0.12,0.01C61.69,35.68,61.59,35.67,61.5,35.66z M64.2,35.83
		c-0.2-0.01-0.39-0.02-0.59-0.03c-0.07,0-0.13-0.01-0.19-0.01c-0.04,0-0.08,0-0.12-0.01c-0.01,0-0.03,0-0.05,0
		c-0.13-0.01-0.26-0.01-0.38-0.02c-0.03,0-0.07,0-0.1-0.01c-0.11-0.01-0.22-0.01-0.33-0.02v0.01c0.66,0.05,1.32,0.08,1.99,0.1
		C64.35,35.84,64.27,35.84,64.2,35.83z M35.05,26.43C35.05,26.43,35.06,26.44,35.05,26.43L35.05,26.43
		C35.06,26.44,35.05,26.43,35.05,26.43z M34.71,26.11c0.02,0.02,0.04,0.04,0.05,0.05c0.05,0.05,0.1,0.1,0.16,0.15
		C34.85,26.24,34.78,26.17,34.71,26.11z M32.92,24.06C32.92,24.05,32.91,24.05,32.92,24.06c0.01,0.01,0.03,0.04,0.04,0.06
		C32.95,24.1,32.93,24.08,32.92,24.06z M30.79,21.09h-0.97l0.2,0.48l0.16,0.37c0.34,0.8,0.78,1.58,1.33,2.34v-2.19L30.79,21.09z
		 M66.23,35.9c-0.1,0-0.2,0-0.29-0.01c0.03,0,0.07,0,0.1,0c0.25,0.01,0.49,0.01,0.74,0.01C66.6,35.9,66.41,35.9,66.23,35.9z"/>
	<path d="M62.43,35.73L62.43,35.73c-0.5-0.03-1-0.06-1.49-0.11c-0.04,0-0.08-0.01-0.12-0.01c-0.44-0.04-0.88-0.08-1.31-0.13
		c-0.22-0.02-0.43-0.05-0.65-0.07c-0.52-0.06-1.05-0.13-1.56-0.2c-0.17-0.02-0.33-0.04-0.49-0.07c-0.14-0.02-0.27-0.04-0.4-0.06
		c-0.16-0.02-0.33-0.05-0.49-0.08c-0.12-0.02-0.24-0.04-0.37-0.06c-0.37-0.06-0.74-0.13-1.11-0.19c-0.16-0.03-0.32-0.06-0.48-0.09
		c-0.15-0.03-0.3-0.06-0.45-0.09c-0.14-0.03-0.28-0.06-0.42-0.08c-0.36-0.07-0.71-0.15-1.07-0.23c-0.24-0.05-0.48-0.11-0.73-0.17
		c-0.23-0.06-0.46-0.11-0.69-0.17c-0.07-0.02-0.13-0.03-0.2-0.05c-0.21-0.05-0.41-0.1-0.61-0.16c-0.22-0.06-0.44-0.12-0.66-0.18
		c-0.13-0.04-0.27-0.08-0.4-0.11c-0.03-0.01-0.06-0.02-0.09-0.03c-0.12-0.03-0.23-0.07-0.34-0.1c-0.34-0.1-0.69-0.21-1.02-0.31
		c-0.15-0.05-0.29-0.09-0.44-0.14c-0.16-0.05-0.32-0.11-0.48-0.16c-0.28-0.09-0.56-0.19-0.83-0.29c-0.1-0.04-0.21-0.07-0.31-0.11
		c-0.64-0.23-1.26-0.48-1.86-0.73c-0.16-0.07-0.32-0.14-0.48-0.21c-0.37-0.16-0.74-0.33-1.1-0.5c-0.18-0.08-0.35-0.17-0.53-0.25
		c-0.18-0.09-0.35-0.17-0.52-0.26c-0.43-0.22-0.85-0.44-1.25-0.67c-0.08-0.04-0.15-0.09-0.23-0.13c-0.77-0.44-1.49-0.9-2.16-1.38
		c-0.1-0.07-0.2-0.14-0.29-0.21c-0.1-0.07-0.2-0.14-0.29-0.22c-0.15-0.11-0.29-0.22-0.44-0.34c-0.09-0.07-0.17-0.14-0.26-0.21v0
		c-0.11-0.09-0.21-0.17-0.31-0.26c-0.02-0.02-0.04-0.04-0.07-0.06c-0.08-0.07-0.17-0.14-0.25-0.22c-0.07-0.06-0.14-0.13-0.21-0.19
		c-0.09-0.08-0.18-0.16-0.26-0.24c-0.21-0.19-0.4-0.39-0.59-0.58c-0.05-0.05-0.1-0.11-0.15-0.16c-0.29-0.3-0.55-0.61-0.8-0.92
		c-0.04-0.05-0.08-0.1-0.12-0.15c-0.09-0.11-0.17-0.23-0.26-0.34c-0.07-0.09-0.13-0.18-0.19-0.27c-0.08-0.11-0.16-0.23-0.23-0.35
		c-0.05-0.07-0.09-0.14-0.13-0.21c-0.12-0.19-0.22-0.38-0.32-0.57l0.76,1.06c0.06,0.09,0.12,0.18,0.18,0.27
		c0.01,0.02,0.02,0.03,0.03,0.05c0.02,0.02,0.04,0.05,0.05,0.07c0.06,0.08,0.12,0.16,0.18,0.24c0.05,0.07,0.11,0.14,0.17,0.21
		c0,0.01,0.01,0.01,0.02,0.02c0.04,0.05,0.08,0.11,0.13,0.16c0.04,0.05,0.09,0.11,0.13,0.16c0.05,0.06,0.11,0.13,0.16,0.19
		c0.05,0.06,0.11,0.13,0.17,0.19c0.1,0.11,0.2,0.22,0.3,0.32c0.05,0.05,0.1,0.11,0.16,0.16c0.05,0.05,0.1,0.11,0.16,0.16
		c0.03,0.03,0.06,0.06,0.1,0.1c0.04,0.04,0.08,0.09,0.13,0.13c0.05,0.05,0.1,0.1,0.16,0.15c0,0,0.01,0.01,0.01,0.01
		c0,0,0.01,0.01,0.01,0.01c0.04,0.03,0.07,0.07,0.11,0.1l0,0c0,0,0,0,0,0.01c0.01,0,0.01,0.01,0.01,0.01
		c0.03,0.02,0.05,0.05,0.08,0.07c0.01,0.01,0.02,0.02,0.04,0.04c0.03,0.03,0.06,0.06,0.1,0.09c0.05,0.04,0.1,0.09,0.15,0.13
		c0.27,0.24,0.56,0.47,0.86,0.71c0.01,0.01,0.01,0.01,0.02,0.02c0.03,0.02,0.06,0.05,0.09,0.07c0.01,0.01,0.03,0.02,0.04,0.03
		c0.01,0.01,0.02,0.02,0.04,0.03c0.02,0.02,0.04,0.03,0.07,0.05c0.09,0.07,0.18,0.14,0.28,0.21c0.02,0.01,0.03,0.02,0.05,0.04
		c0,0,0.01,0.01,0.01,0.01c0.01,0,0.01,0.01,0.02,0.01c0.1,0.08,0.21,0.16,0.32,0.23c0.02,0.02,0.04,0.03,0.07,0.05
		c0.07,0.05,0.15,0.1,0.23,0.16c0.13,0.09,0.26,0.18,0.39,0.26c0.26,0.17,0.54,0.35,0.81,0.52c0.23,0.14,0.47,0.28,0.72,0.42
		c0.06,0.03,0.11,0.07,0.17,0.1c0.08,0.05,0.17,0.09,0.25,0.14c0.2,0.11,0.4,0.22,0.6,0.32c0.01,0,0.01,0.01,0.01,0.01
		c0.21,0.11,0.42,0.22,0.63,0.32c0.12,0.06,0.25,0.12,0.37,0.19c0.18,0.09,0.36,0.17,0.54,0.26c0.19,0.09,0.38,0.18,0.58,0.26
		c0.1,0.04,0.19,0.08,0.29,0.13c0.1,0.04,0.19,0.08,0.29,0.12c0.19,0.08,0.39,0.17,0.58,0.25c0.14,0.06,0.28,0.11,0.42,0.17
		c0.24,0.1,0.48,0.19,0.72,0.28c0.35,0.13,0.71,0.26,1.08,0.39c0.36,0.13,0.73,0.25,1.1,0.37c0.19,0.06,0.37,0.12,0.56,0.18
		c0.38,0.12,0.76,0.23,1.15,0.34c0.19,0.06,0.39,0.11,0.59,0.16c0.2,0.05,0.4,0.11,0.59,0.16c0.2,0.05,0.4,0.1,0.6,0.15
		c0.14,0.04,0.29,0.07,0.43,0.11c0.09,0.02,0.18,0.04,0.27,0.07c0.17,0.04,0.34,0.08,0.51,0.12c0.2,0.05,0.41,0.09,0.62,0.14
		c0.42,0.09,0.83,0.18,1.25,0.26c0.42,0.08,0.85,0.16,1.28,0.24c0,0,0,0,0,0c0.43,0.08,0.86,0.15,1.3,0.22
		c0.39,0.06,0.79,0.12,1.18,0.17c0.27,0.04,0.54,0.07,0.81,0.11c0.27,0.03,0.54,0.07,0.82,0.1c0.63,0.07,1.26,0.14,1.91,0.19l0.02,0
		c0.04,0,0.07,0.01,0.11,0.01c0.05,0,0.1,0.01,0.15,0.01c0.09,0.01,0.19,0.02,0.28,0.02c0.05,0.01,0.11,0.01,0.16,0.01
		c0.04,0,0.08,0.01,0.12,0.01c0.09,0.01,0.19,0.02,0.28,0.02c0.06,0.01,0.12,0.01,0.18,0.01c0.04,0,0.09,0.01,0.14,0.01
		C62.4,35.73,62.42,35.73,62.43,35.73z"/>
	<path d="M67.64,0.71c-2.28,0-4.52,0.1-6.69,0.29c-14.72,1.3-26.36,6.8-29.3,13.82h-1.52l0.06-0.14c1.5-3.58,5.19-6.84,10.65-9.42
		c4.58-2.16,10.13-3.71,16.22-4.55H67.64z"/>
	<path d="M103.63,21.8c-3.38,8.05-18.21,14.11-35.99,14.11c-0.29,0-0.57,0-0.85,0c-0.18,0-0.37,0-0.55-0.01c-0.07,0-0.13,0-0.19,0
		c-0.04,0-0.07,0-0.1,0c-0.21,0-0.43-0.01-0.64-0.02c-0.2-0.01-0.4-0.01-0.61-0.02c-0.02,0-0.04,0-0.07,0c-0.01,0-0.03,0-0.04,0
		c-0.01,0-0.02,0-0.03,0c-0.05,0-0.09,0-0.14-0.01c-0.07,0-0.15-0.01-0.23-0.01c-0.2-0.01-0.39-0.02-0.59-0.03
		c-0.07,0-0.13-0.01-0.19-0.01c-0.04,0-0.08,0-0.12-0.01c-0.01,0-0.03,0-0.05,0c-0.13-0.01-0.26-0.01-0.38-0.02
		c-0.03,0-0.07,0-0.1-0.01c-0.11-0.01-0.22-0.01-0.33-0.02c-0.01,0-0.03,0-0.04,0c-0.05,0-0.1-0.01-0.14-0.01
		c-0.06,0-0.12-0.01-0.18-0.01c-0.1-0.01-0.19-0.01-0.28-0.02c-0.04,0-0.08-0.01-0.12-0.01c-0.05,0-0.11-0.01-0.16-0.01
		c-0.09-0.01-0.19-0.01-0.28-0.02c-0.05,0-0.1-0.01-0.15-0.01c-0.04,0-0.09-0.01-0.13-0.01v-0.73c0.09,0.01,0.18,0.02,0.27,0.02
		c2.1,0.19,4.26,0.28,6.42,0.28c16.62,0,31.07-5.62,34.47-13.39H103.63z"/>
	<path d="M104.35,18.31c0,1.2-0.25,2.36-0.72,3.49h-1.52c0.02-0.05,0.04-0.09,0.06-0.14c0.46-1.1,0.69-2.22,0.69-3.35
		c0-1.13-0.23-2.25-0.69-3.35c-0.02-0.05-0.04-0.09-0.06-0.14h1.52C104.1,15.95,104.35,17.12,104.35,18.31z"/>
	<path d="M103.63,14.82h-1.52C98.71,7.05,84.25,1.42,67.64,1.42c-2.16,0-4.32,0.09-6.42,0.28c-13.41,1.18-24.34,6.11-27.71,12.4
		h34.13c1.8,0,3.48,0.26,4.88,0.71H31.64C34.58,7.81,46.23,2.3,60.95,1c2.17-0.19,4.41-0.29,6.69-0.29
		C85.42,0.71,100.25,6.77,103.63,14.82z"/>
	<path d="M76.41,18.31c0,1.45-1.55,2.74-3.89,3.49h-4.88c4.02,0,7.28-1.56,7.28-3.49c0-1.93-3.26-3.49-7.28-3.49h4.88
		C74.86,15.57,76.41,16.86,76.41,18.31z"/>
	<path d="M72.51,21.8c-1.39,0.45-3.07,0.71-4.88,0.71h-6.69V21.8H72.51z"/>
	<path d="M60.95,22.51H33.51c3.35,6.25,14.15,11.15,27.44,12.38v0.73c-0.64-0.06-1.28-0.12-1.91-0.19c-0.27-0.03-0.55-0.06-0.82-0.1
		c-0.27-0.03-0.54-0.07-0.81-0.11c-0.4-0.06-0.79-0.11-1.18-0.17c-0.43-0.07-0.87-0.14-1.3-0.22c0,0,0,0,0,0
		c-0.43-0.08-0.85-0.16-1.28-0.24c-0.42-0.08-0.84-0.17-1.25-0.26c-0.21-0.05-0.41-0.09-0.62-0.14c-0.17-0.04-0.34-0.08-0.51-0.12
		C51.19,34.05,51.09,34.03,51,34c-0.15-0.04-0.29-0.07-0.43-0.11c-0.2-0.05-0.4-0.1-0.6-0.15c-0.2-0.05-0.4-0.11-0.59-0.16
		c-0.2-0.05-0.39-0.11-0.59-0.16c-0.39-0.11-0.77-0.23-1.15-0.34c-0.19-0.06-0.38-0.12-0.56-0.18c-0.37-0.12-0.74-0.25-1.1-0.37
		c-0.37-0.13-0.72-0.26-1.08-0.39c-0.24-0.09-0.48-0.19-0.72-0.28c-0.14-0.06-0.28-0.11-0.42-0.17c-0.2-0.08-0.39-0.16-0.58-0.25
		c-0.1-0.04-0.19-0.08-0.29-0.12c-0.1-0.04-0.19-0.08-0.29-0.13c-0.19-0.09-0.39-0.17-0.58-0.26c-0.18-0.08-0.36-0.17-0.54-0.26
		c-0.12-0.06-0.25-0.12-0.37-0.19c-0.21-0.11-0.43-0.22-0.63-0.32c-0.01,0-0.01,0-0.01-0.01c-0.2-0.11-0.4-0.22-0.6-0.32
		c-0.09-0.05-0.17-0.09-0.25-0.14c-0.06-0.03-0.11-0.06-0.17-0.1c-0.24-0.14-0.48-0.28-0.72-0.42c-0.28-0.17-0.55-0.34-0.81-0.52
		c-0.13-0.09-0.26-0.18-0.39-0.26c-0.08-0.05-0.15-0.1-0.23-0.16c-0.02-0.01-0.04-0.03-0.07-0.05c-0.11-0.08-0.21-0.15-0.32-0.23
		c-0.01,0-0.01-0.01-0.02-0.01c-0.01,0-0.01-0.01-0.01-0.01c-0.02-0.01-0.03-0.02-0.05-0.04c-0.1-0.07-0.19-0.14-0.28-0.21
		c-0.02-0.02-0.04-0.03-0.07-0.05c0,0-0.01-0.01-0.01-0.01c-0.01-0.01-0.02-0.01-0.03-0.02c-0.01-0.01-0.03-0.02-0.04-0.03
		c-0.03-0.02-0.06-0.05-0.09-0.07c-0.01-0.01-0.02-0.01-0.02-0.02c-0.04-0.03-0.08-0.06-0.11-0.09c-0.07-0.05-0.13-0.11-0.2-0.16
		c0,0-0.01,0-0.01-0.01c-0.13-0.1-0.26-0.21-0.38-0.32c-0.12-0.11-0.25-0.21-0.37-0.32c-0.01-0.01-0.03-0.02-0.04-0.04
		c-0.01-0.01-0.03-0.02-0.04-0.04c-0.03-0.02-0.05-0.05-0.08-0.07c0,0-0.01-0.01-0.01-0.01h0c0,0,0,0,0-0.01l0,0
		c-0.04-0.03-0.07-0.07-0.11-0.1c0,0-0.01-0.01-0.01-0.01c0,0-0.01-0.01-0.01-0.01c-0.05-0.05-0.11-0.1-0.16-0.15
		c-0.02-0.02-0.04-0.04-0.05-0.05c-0.03-0.02-0.05-0.05-0.08-0.07c-0.03-0.03-0.07-0.06-0.1-0.1c-0.05-0.05-0.11-0.11-0.16-0.16
		c-0.06-0.05-0.11-0.11-0.16-0.16c-0.1-0.11-0.2-0.22-0.3-0.32c-0.06-0.06-0.11-0.13-0.17-0.19c-0.06-0.06-0.11-0.13-0.16-0.19
		c-0.05-0.05-0.09-0.11-0.13-0.16c-0.04-0.05-0.09-0.11-0.13-0.16c-0.01-0.01-0.01-0.01-0.02-0.02c-0.06-0.07-0.11-0.14-0.17-0.21
		c-0.06-0.08-0.12-0.16-0.18-0.24c-0.02-0.02-0.04-0.05-0.05-0.07c-0.01-0.02-0.02-0.03-0.03-0.05c-0.06-0.09-0.12-0.18-0.18-0.27
		c-0.13-0.2-0.26-0.39-0.37-0.59c-0.05-0.09-0.1-0.17-0.15-0.26c-0.04-0.07-0.07-0.13-0.11-0.2c-0.02-0.04-0.04-0.07-0.06-0.11
		c-0.03-0.06-0.06-0.12-0.09-0.18c-0.1-0.2-0.19-0.39-0.27-0.59h29.3V22.51z"/>
	<path d="M60.95,35.63v0.71c-0.09-0.01-0.18-0.01-0.27-0.02c-0.2-0.02-0.4-0.04-0.6-0.06c-0.08-0.01-0.17-0.02-0.25-0.03
		c-0.06,0-0.11-0.01-0.17-0.02c-0.26-0.03-0.51-0.05-0.76-0.08c-0.02,0-0.05,0-0.07-0.01c-0.02,0-0.04,0-0.05-0.01
		c-0.12-0.01-0.23-0.03-0.35-0.04c-0.13-0.02-0.26-0.03-0.4-0.05c-0.04,0-0.09-0.01-0.13-0.02c-0.28-0.04-0.56-0.07-0.84-0.11
		c-0.24-0.03-0.48-0.07-0.71-0.1c-0.07-0.01-0.15-0.02-0.22-0.03c-0.23-0.03-0.47-0.07-0.7-0.11c-0.14-0.02-0.27-0.04-0.41-0.07
		c-0.04-0.01-0.09-0.01-0.13-0.02c-0.12-0.02-0.25-0.04-0.37-0.06c-0.22-0.04-0.44-0.08-0.66-0.12c-0.01,0-0.03,0-0.04-0.01
		c-0.09-0.02-0.17-0.03-0.25-0.05c0,0-0.01,0-0.01,0c-0.23-0.04-0.47-0.09-0.7-0.14c-0.02,0-0.04-0.01-0.07-0.01
		c-0.08-0.02-0.17-0.03-0.25-0.05c-0.25-0.05-0.49-0.1-0.73-0.16c-0.25-0.05-0.49-0.11-0.74-0.17c-0.03-0.01-0.05-0.01-0.07-0.02
		c-0.04-0.01-0.07-0.02-0.1-0.03c-0.13-0.03-0.27-0.06-0.4-0.09c-0.13-0.03-0.26-0.06-0.4-0.1c-0.24-0.06-0.49-0.12-0.73-0.19
		c-0.07-0.02-0.14-0.04-0.21-0.06c-0.02-0.01-0.04-0.01-0.06-0.02c-0.2-0.05-0.41-0.11-0.61-0.16c-0.01,0-0.02-0.01-0.03-0.01
		c-0.03-0.01-0.06-0.02-0.09-0.02c-0.22-0.06-0.45-0.13-0.67-0.19c-0.06-0.02-0.12-0.03-0.18-0.05c-0.24-0.07-0.49-0.15-0.73-0.22
		c-0.13-0.04-0.26-0.08-0.4-0.13c-0.13-0.04-0.26-0.09-0.4-0.13c-0.21-0.07-0.42-0.14-0.62-0.21c-0.01,0-0.02-0.01-0.04-0.01
		c-0.19-0.06-0.38-0.13-0.56-0.2c-0.17-0.06-0.33-0.12-0.5-0.18c-0.13-0.05-0.26-0.1-0.39-0.15c-0.12-0.04-0.23-0.09-0.35-0.13
		c-0.2-0.08-0.4-0.16-0.59-0.24c-0.24-0.1-0.48-0.2-0.73-0.3c-0.21-0.09-0.42-0.18-0.63-0.28c-0.26-0.12-0.52-0.24-0.78-0.36
		c-4.25-2-7.42-4.42-9.32-7.07V21.8c0.12,0.29,0.26,0.58,0.41,0.87c0,0,0,0,0,0c0.1,0.19,0.21,0.38,0.32,0.57
		c0.04,0.07,0.09,0.14,0.13,0.21c0.07,0.12,0.15,0.23,0.23,0.35c0.06,0.09,0.12,0.18,0.19,0.27c0.08,0.12,0.17,0.23,0.26,0.34
		c0.04,0.05,0.08,0.1,0.12,0.15c0.25,0.31,0.51,0.62,0.8,0.92c0.05,0.05,0.1,0.11,0.15,0.16c0.19,0.2,0.38,0.39,0.59,0.58
		c0.09,0.08,0.17,0.16,0.26,0.24c0.07,0.06,0.14,0.13,0.21,0.19c0.08,0.07,0.16,0.14,0.25,0.22c0.02,0.02,0.04,0.04,0.07,0.06
		c0.1,0.09,0.21,0.17,0.31,0.26v0c0.09,0.07,0.17,0.14,0.26,0.21c0.14,0.11,0.29,0.23,0.44,0.34c0.1,0.07,0.19,0.14,0.29,0.22
		c0.1,0.07,0.19,0.14,0.29,0.21c0.67,0.47,1.39,0.93,2.16,1.38c0.07,0.04,0.15,0.09,0.23,0.13c0.4,0.23,0.82,0.45,1.25,0.67
		c0.17,0.09,0.34,0.17,0.52,0.26c0.17,0.09,0.35,0.17,0.53,0.25c0.36,0.17,0.72,0.33,1.1,0.5c0.16,0.07,0.32,0.14,0.48,0.21
		c0.6,0.25,1.22,0.5,1.86,0.73c0.1,0.04,0.2,0.08,0.31,0.11c0.27,0.1,0.55,0.2,0.83,0.29c0.16,0.05,0.32,0.11,0.48,0.16
		c0.15,0.05,0.29,0.1,0.44,0.14c0.34,0.11,0.68,0.21,1.02,0.31c0.11,0.03,0.23,0.07,0.34,0.1c0.03,0.01,0.06,0.02,0.09,0.03
		c0.13,0.04,0.27,0.08,0.4,0.11c0.22,0.06,0.44,0.12,0.66,0.18c0.2,0.05,0.41,0.11,0.61,0.16c0.07,0.02,0.13,0.03,0.2,0.05
		c0.23,0.06,0.46,0.11,0.69,0.17c0.24,0.06,0.48,0.11,0.73,0.17c0.35,0.08,0.71,0.16,1.07,0.23c0.14,0.03,0.28,0.06,0.42,0.08
		c0.15,0.03,0.3,0.06,0.45,0.09c0.16,0.03,0.32,0.06,0.48,0.09c0.37,0.07,0.73,0.13,1.11,0.19c0.12,0.02,0.24,0.04,0.37,0.06
		c0.16,0.03,0.33,0.05,0.49,0.08c0.13,0.02,0.27,0.04,0.4,0.06c0.16,0.03,0.33,0.05,0.49,0.07c0.51,0.07,1.04,0.14,1.56,0.2
		c0.22,0.03,0.43,0.05,0.65,0.07c0.43,0.05,0.87,0.09,1.31,0.13C60.87,35.62,60.91,35.63,60.95,35.63z"/>
</g>
<g>
	<g>
		<path class="st0" d="M200.92,21.8c-4.12-2.09-9.16-3.77-14.81-4.88v12.01h23.96C208.06,26.26,204.92,23.83,200.92,21.8z
			 M204.89,21.8c3.24,1.85,5.85,3.97,7.67,6.26V21.8H204.89z M186.11,30.35v4.84h26.44c0.01,0.21,0.02,0.43,0.02,0.64v-5.49H186.11z
			 M186.08,36.62c-0.11,1-0.62,1.95-1.46,2.83v15.58c0.5-0.09,1-0.18,1.49-0.28v0c0.02,0,0.04-0.01,0.06-0.01c0.01,0,0.01,0,0.02,0
			c0.05-0.01,0.1-0.02,0.15-0.03c0.22-0.04,0.44-0.09,0.66-0.13c0.14-0.03,0.28-0.06,0.42-0.09c0.19-0.04,0.39-0.08,0.58-0.13
			c0.1-0.02,0.19-0.04,0.29-0.06c0.1-0.02,0.19-0.04,0.28-0.07c0.01,0,0.02,0,0.03-0.01c0.1-0.02,0.21-0.05,0.31-0.07
			c0.17-0.04,0.34-0.08,0.5-0.12c0.05-0.01,0.11-0.03,0.16-0.04c0.15-0.04,0.31-0.08,0.46-0.12c0.13-0.03,0.27-0.07,0.4-0.1
			c0.19-0.05,0.38-0.1,0.56-0.15c0.22-0.06,0.44-0.12,0.66-0.18c0.08-0.02,0.17-0.05,0.25-0.07c0.08-0.02,0.17-0.05,0.25-0.07
			c0.04-0.01,0.07-0.02,0.1-0.03c0.07-0.02,0.15-0.04,0.22-0.07c0.18-0.05,0.37-0.11,0.54-0.17c0.01,0,0.02-0.01,0.03-0.01
			c0.46-0.14,0.91-0.29,1.36-0.44c0.01,0,0.02-0.01,0.04-0.01c0.43-0.14,0.85-0.29,1.26-0.44c0.01,0,0.01,0,0.02-0.01
			c0.12-0.05,0.25-0.09,0.37-0.14c0.09-0.03,0.18-0.07,0.27-0.1c0.11-0.04,0.21-0.08,0.32-0.12c0.1-0.04,0.21-0.08,0.32-0.12
			c0.21-0.08,0.42-0.17,0.62-0.25c0.2-0.08,0.39-0.16,0.59-0.24c0.04-0.02,0.09-0.04,0.13-0.06c0.17-0.07,0.33-0.14,0.49-0.22
			c0.11-0.05,0.21-0.09,0.32-0.14c0.09-0.04,0.18-0.08,0.27-0.12l0.28-0.13c0.08-0.04,0.16-0.08,0.24-0.12
			c0.01,0,0.02-0.01,0.03-0.01c0.03-0.01,0.06-0.03,0.08-0.04c0.15-0.07,0.29-0.14,0.43-0.21c0.07-0.04,0.15-0.08,0.23-0.11
			c0.15-0.07,0.29-0.15,0.44-0.22c0.09-0.05,0.18-0.09,0.26-0.14c0.09-0.05,0.17-0.09,0.26-0.14c0.17-0.09,0.33-0.18,0.49-0.27
			c0.04-0.02,0.07-0.04,0.11-0.06c0.15-0.09,0.31-0.17,0.46-0.26c0.11-0.06,0.22-0.13,0.33-0.19c0,0,0,0,0,0
			c0.02-0.01,0.04-0.03,0.07-0.04c0.07-0.04,0.15-0.09,0.22-0.14c0.11-0.07,0.22-0.13,0.33-0.2c0.03-0.02,0.06-0.04,0.1-0.06
			c0.01-0.01,0.03-0.02,0.04-0.03c0.1-0.06,0.19-0.12,0.28-0.18c0.15-0.1,0.3-0.19,0.44-0.29c0.05-0.03,0.1-0.07,0.15-0.1
			c0.01,0,0.01-0.01,0.02-0.01c0.13-0.09,0.26-0.18,0.39-0.27c0.16-0.11,0.32-0.23,0.48-0.34c0.16-0.12,0.31-0.23,0.46-0.35
			c0.1-0.07,0.19-0.14,0.28-0.22c0.11-0.08,0.21-0.17,0.32-0.25c0.11-0.09,0.22-0.18,0.32-0.27c0.11-0.09,0.21-0.18,0.32-0.27
			c0.1-0.09,0.2-0.18,0.3-0.27c0.08-0.07,0.17-0.15,0.25-0.23c0.01,0,0.01-0.01,0.01-0.01c0.15-0.14,0.31-0.29,0.45-0.43
			c0.06-0.06,0.12-0.11,0.18-0.17c0.08-0.08,0.16-0.16,0.24-0.25c0.21-0.22,0.41-0.44,0.61-0.67c0.08-0.09,0.16-0.18,0.23-0.28
			c0.07-0.09,0.14-0.17,0.21-0.26c0.01-0.01,0.01-0.01,0.01-0.02c0.01-0.01,0.01-0.01,0.01-0.02c0.01-0.01,0.01-0.01,0.01-0.02
			c0.05-0.07,0.11-0.14,0.16-0.21c0.07-0.09,0.14-0.18,0.21-0.28c0.07-0.09,0.13-0.18,0.19-0.27c0.03-0.04,0.06-0.09,0.09-0.13
			c0.07-0.1,0.14-0.2,0.2-0.3c0.01-0.01,0.01-0.01,0.01-0.02c0.08-0.12,0.15-0.24,0.22-0.35c0.06-0.1,0.12-0.2,0.18-0.3
			c0,0,0-0.01,0.01-0.01c0,0,0-0.01,0.01-0.01c0.02-0.03,0.03-0.06,0.05-0.09c0.04-0.08,0.09-0.16,0.13-0.24
			c0-0.01,0.01-0.01,0.01-0.02c0.03-0.05,0.06-0.11,0.08-0.16c0.01-0.01,0.01-0.03,0.02-0.04c0.01-0.01,0.01-0.01,0.01-0.02
			c0.02-0.04,0.04-0.08,0.07-0.13c0.01-0.01,0.01-0.02,0.01-0.03c0.02-0.03,0.03-0.06,0.04-0.09c0.05-0.1,0.1-0.2,0.14-0.3
			c0.01-0.03,0.03-0.06,0.04-0.09c0.04-0.09,0.08-0.18,0.12-0.28c0.01-0.04,0.03-0.07,0.04-0.11c0,0,0,0,0-0.01
			c0.04-0.09,0.07-0.18,0.1-0.26c0,0,0-0.01,0-0.01c0,0,0,0,0-0.01c0.04-0.11,0.08-0.22,0.12-0.33c0.02-0.06,0.04-0.12,0.06-0.19
			c0.03-0.08,0.05-0.17,0.07-0.25c0.03-0.11,0.06-0.22,0.09-0.33c0.01-0.03,0.01-0.06,0.02-0.1c0.02-0.08,0.04-0.17,0.06-0.26v-0.01
			c0.01-0.06,0.02-0.11,0.04-0.17c0-0.02,0.01-0.04,0.01-0.06c0.01-0.07,0.03-0.15,0.04-0.22c0.02-0.11,0.04-0.22,0.05-0.33
			c0.01-0.03,0.01-0.05,0.01-0.08c0.01-0.09,0.02-0.17,0.03-0.26c0-0.05,0.01-0.1,0.01-0.15H186.08z"/>
		<path class="st1" d="M186.08,36.62c-0.11,1-0.62,1.95-1.46,2.83c-0.41,0.43-0.91,0.85-1.49,1.24v14.59
			c0.33-0.05,0.66-0.1,0.99-0.16c0.17-0.03,0.33-0.06,0.5-0.09c0.5-0.09,1-0.18,1.49-0.28V36.62H186.08z M186.08,36.62
			c-0.11,1-0.62,1.95-1.46,2.83v3.44h1.49v-6.27H186.08z M210.86,41.55c0.06-0.1,0.12-0.2,0.18-0.3
			C210.99,41.35,210.93,41.45,210.86,41.55z M186.08,36.62c-0.11,1-0.62,1.95-1.46,2.83v3.44h1.49v-6.27H186.08z M210.86,41.55
			c0.06-0.1,0.12-0.2,0.18-0.3C210.99,41.35,210.93,41.45,210.86,41.55z M186.08,36.62c-0.11,1-0.62,1.95-1.46,2.83v3.44h1.49v-6.27
			H186.08z M210.86,41.55c0.06-0.1,0.12-0.2,0.18-0.3C210.99,41.35,210.93,41.45,210.86,41.55z M186.08,36.62
			c-0.11,1-0.62,1.95-1.46,2.83v3.44h1.49v-6.27H186.08z M210.86,41.55c0.06-0.1,0.12-0.2,0.18-0.3
			C210.99,41.35,210.93,41.45,210.86,41.55z M186.08,36.62c-0.11,1-0.62,1.95-1.46,2.83v15.58c0.5-0.09,1-0.18,1.49-0.28V36.62
			H186.08z M210.86,41.55c0.06-0.1,0.12-0.2,0.18-0.3C210.99,41.35,210.93,41.45,210.86,41.55z M186.08,36.62
			c-0.11,1-0.62,1.95-1.46,2.83v3.44h1.49v-6.27H186.08z M210.86,41.55c0.06-0.1,0.12-0.2,0.18-0.3
			C210.99,41.35,210.93,41.45,210.86,41.55z M186.08,36.62c-0.11,1-0.62,1.95-1.46,2.83v3.44h1.49v-6.27H186.08z M210.86,41.55
			c0.06-0.1,0.12-0.2,0.18-0.3C210.99,41.35,210.93,41.45,210.86,41.55z M186.08,36.62c-0.11,1-0.62,1.95-1.46,2.83v3.44h1.49v-6.27
			H186.08z M210.86,41.55c0.06-0.1,0.12-0.2,0.18-0.3C210.99,41.35,210.93,41.45,210.86,41.55z M186.08,36.62
			c-0.11,1-0.62,1.95-1.46,2.83v3.44h1.49v-6.27H186.08z M210.86,41.55c0.06-0.1,0.12-0.2,0.18-0.3
			C210.99,41.35,210.93,41.45,210.86,41.55z M183.14,0v0.71h30.92v35.2c0,0.13-0.01,0.25-0.01,0.38c0,0.06-0.01,0.11-0.01,0.17
			c0,0.06-0.01,0.11-0.01,0.17c-0.01,0.14-0.02,0.27-0.04,0.41c0,0,0,0,0,0v0.01c-0.01,0.1-0.02,0.19-0.04,0.29
			c0,0.02,0,0.03-0.01,0.05c-0.01,0.03-0.01,0.07-0.01,0.1c0,0.01,0,0.01,0,0.02l-0.04,0.25c0,0.01,0,0.02-0.01,0.04
			c-0.01,0.03-0.01,0.06-0.02,0.08c-0.01,0.08-0.03,0.16-0.05,0.24c0,0,0,0,0,0.01c-0.01,0.07-0.03,0.14-0.05,0.21
			c0,0.01-0.01,0.03-0.01,0.04c-0.01,0.06-0.02,0.11-0.04,0.17c0,0.02-0.01,0.03-0.01,0.05c-0.01,0.05-0.03,0.1-0.04,0.15
			c-0.02,0.09-0.05,0.19-0.08,0.28c-0.01,0.03-0.01,0.05-0.02,0.08c-0.02,0.06-0.04,0.12-0.06,0.18c-0.02,0.06-0.04,0.12-0.06,0.18
			c-0.02,0.06-0.04,0.12-0.07,0.18c-0.02,0.06-0.05,0.12-0.07,0.18c-0.04,0.12-0.09,0.23-0.14,0.35c-0.04,0.1-0.09,0.2-0.13,0.29
			c-0.01,0.03-0.02,0.05-0.04,0.08c-0.05,0.11-0.11,0.22-0.16,0.33c-0.01,0.02-0.02,0.05-0.03,0.07c-0.05,0.1-0.1,0.2-0.16,0.29
			c-0.05,0.09-0.1,0.17-0.15,0.26c-0.07,0.12-0.15,0.25-0.22,0.37c-0.02,0.04-0.05,0.08-0.07,0.11c-0.04,0.06-0.08,0.12-0.12,0.19
			c-0.08,0.13-0.16,0.25-0.25,0.37c-0.09,0.13-0.18,0.25-0.27,0.37c-0.07,0.1-0.15,0.19-0.22,0.29c-0.05,0.07-0.11,0.14-0.16,0.2
			c-0.03,0.04-0.07,0.09-0.1,0.13c-0.06,0.07-0.11,0.14-0.17,0.21c-0.1,0.11-0.19,0.23-0.29,0.34c-0.1,0.11-0.2,0.23-0.31,0.34
			c-0.02,0.02-0.04,0.04-0.05,0.06c-0.09,0.1-0.18,0.19-0.27,0.28c-0.1,0.11-0.21,0.21-0.32,0.32c-0.1,0.1-0.21,0.2-0.31,0.3
			c-0.07,0.07-0.14,0.14-0.21,0.2c-0.01,0.01-0.01,0.01-0.02,0.02c-0.36,0.33-0.73,0.65-1.12,0.97c-0.13,0.11-0.26,0.21-0.4,0.32
			c-0.12,0.09-0.23,0.18-0.35,0.27c-0.07,0.05-0.14,0.11-0.21,0.16c-0.01,0-0.01,0.01-0.02,0.01c-0.09,0.06-0.17,0.13-0.26,0.19
			c-0.15,0.11-0.29,0.21-0.44,0.31c-0.15,0.1-0.3,0.21-0.45,0.31c-0.07,0.05-0.15,0.1-0.22,0.15c-0.01,0.01-0.02,0.02-0.03,0.02
			c-0.19,0.12-0.38,0.25-0.57,0.37c-0.02,0.01-0.04,0.02-0.06,0.04c-0.13,0.09-0.27,0.17-0.41,0.26c-0.02,0.01-0.04,0.02-0.06,0.03
			c-0.03,0.02-0.06,0.04-0.09,0.05c-0.11,0.07-0.23,0.14-0.34,0.2c-0.1,0.06-0.21,0.13-0.32,0.19c-0.17,0.1-0.34,0.2-0.52,0.29
			c-0.13,0.07-0.27,0.15-0.4,0.22c-0.13,0.07-0.27,0.14-0.4,0.21c-0.28,0.15-0.56,0.29-0.85,0.43c-0.14,0.07-0.29,0.14-0.43,0.21
			c-0.14,0.07-0.28,0.13-0.42,0.2c-0.31,0.14-0.62,0.28-0.93,0.42c-0.12,0.05-0.25,0.11-0.37,0.16c-0.03,0.02-0.07,0.03-0.1,0.04
			c-0.01,0-0.01,0.01-0.02,0.01c-0.12,0.05-0.25,0.11-0.38,0.16c-0.15,0.06-0.31,0.13-0.46,0.19c-0.15,0.06-0.31,0.13-0.47,0.19
			c-0.16,0.06-0.32,0.12-0.47,0.18c-0.16,0.06-0.32,0.12-0.48,0.18c-0.34,0.13-0.68,0.25-1.03,0.37c-0.15,0.05-0.3,0.1-0.45,0.16
			c-0.21,0.07-0.42,0.14-0.63,0.21c-0.17,0.06-0.34,0.11-0.52,0.17c-0.14,0.05-0.29,0.09-0.43,0.14c-0.11,0.03-0.21,0.07-0.32,0.1
			c-0.21,0.07-0.43,0.13-0.65,0.2c-0.23,0.07-0.47,0.14-0.71,0.21c0,0-0.01,0-0.01,0c-0.04,0.01-0.07,0.02-0.1,0.03
			c-0.18,0.05-0.36,0.1-0.55,0.15c-0.45,0.12-0.91,0.24-1.37,0.35c-0.11,0.03-0.23,0.06-0.34,0.08c-0.02,0.01-0.04,0.01-0.06,0.02
			c-0.07,0.02-0.13,0.03-0.2,0.05c-0.14,0.03-0.29,0.07-0.43,0.1c-0.18,0.04-0.37,0.09-0.56,0.13c-0.16,0.04-0.31,0.07-0.47,0.1
			c-0.01,0-0.01,0-0.02,0c-0.4,0.09-0.8,0.17-1.21,0.25c-0.24,0.05-0.49,0.1-0.73,0.14c-0.26,0.05-0.53,0.1-0.79,0.15
			c-0.26,0.05-0.53,0.09-0.8,0.14c-0.49,0.08-0.99,0.16-1.49,0.24v0.77l1.98-0.34c0.28-0.05,0.56-0.1,0.84-0.15
			c0.21-0.04,0.41-0.07,0.61-0.11c0.03-0.01,0.07-0.01,0.1-0.02c0.1-0.02,0.19-0.04,0.29-0.05c0.23-0.04,0.45-0.09,0.67-0.13
			c0.2-0.04,0.4-0.08,0.61-0.13c0.05-0.01,0.1-0.02,0.15-0.03c0.05-0.01,0.11-0.02,0.16-0.03c0.18-0.04,0.36-0.08,0.54-0.12
			c0.3-0.07,0.6-0.14,0.9-0.21c0.11-0.03,0.22-0.05,0.33-0.08c0.05-0.01,0.09-0.02,0.14-0.03c0.16-0.04,0.32-0.08,0.47-0.12
			c0.23-0.06,0.47-0.12,0.7-0.18c0.03-0.01,0.06-0.02,0.1-0.02c0.23-0.06,0.45-0.12,0.68-0.18c0.21-0.06,0.42-0.11,0.62-0.17
			c0.25-0.07,0.51-0.14,0.76-0.22c0.25-0.07,0.5-0.15,0.75-0.22c0.11-0.04,0.23-0.07,0.34-0.11c0.19-0.06,0.38-0.12,0.57-0.18
			c0.19-0.06,0.38-0.13,0.57-0.19c0.43-0.14,0.84-0.29,1.25-0.44c0.12-0.04,0.24-0.09,0.35-0.13c0.01,0,0.01-0.01,0.02-0.01
			c0.03-0.01,0.06-0.02,0.08-0.03c0.33-0.12,0.65-0.24,0.96-0.37c0.12-0.05,0.23-0.09,0.35-0.14c0.11-0.04,0.23-0.09,0.34-0.14
			c0.26-0.11,0.52-0.21,0.78-0.32c0.16-0.07,0.32-0.14,0.48-0.21c0.13-0.06,0.26-0.11,0.38-0.17c0,0,0,0,0.01,0
			c0.15-0.07,0.31-0.14,0.46-0.21c0.18-0.08,0.36-0.17,0.54-0.25l0.08-0.04c0.61-0.29,1.21-0.59,1.79-0.9
			c0.21-0.11,0.42-0.23,0.62-0.34c0.17-0.1,0.34-0.19,0.51-0.29c0.32-0.18,0.63-0.37,0.93-0.56c0.09-0.05,0.17-0.11,0.26-0.16
			c0.32-0.21,0.64-0.41,0.95-0.62c0.15-0.1,0.29-0.2,0.43-0.3c0.17-0.12,0.34-0.24,0.5-0.36c0.15-0.11,0.29-0.22,0.43-0.32
			c0.03-0.02,0.05-0.04,0.07-0.05c0.01-0.01,0.02-0.02,0.03-0.02c0.13-0.1,0.26-0.2,0.38-0.3c0.12-0.1,0.25-0.2,0.37-0.3
			c0.1-0.08,0.2-0.16,0.29-0.25c0.02-0.02,0.04-0.03,0.06-0.05c0.09-0.07,0.17-0.15,0.25-0.22c0.24-0.21,0.48-0.43,0.7-0.64
			c0.12-0.11,0.23-0.23,0.35-0.34c0.02-0.02,0.04-0.04,0.07-0.07c0.11-0.11,0.23-0.23,0.33-0.34c0.1-0.1,0.2-0.21,0.29-0.31
			c0.07-0.08,0.15-0.16,0.22-0.25c0.02-0.02,0.04-0.05,0.06-0.07c0.08-0.09,0.16-0.19,0.24-0.28c0.09-0.1,0.17-0.2,0.25-0.3
			c0,0,0,0,0-0.01c0.08-0.1,0.17-0.21,0.25-0.31c0.08-0.11,0.16-0.21,0.24-0.32c0.04-0.05,0.08-0.1,0.11-0.16
			c0.01-0.02,0.03-0.04,0.04-0.06c0.01-0.01,0.01-0.02,0.02-0.03c0.07-0.1,0.14-0.2,0.2-0.29c0.17-0.25,0.33-0.5,0.48-0.76
			c0.05-0.08,0.1-0.17,0.15-0.25c0.05-0.09,0.1-0.17,0.14-0.26c0.04-0.09,0.09-0.17,0.13-0.26c0.04-0.09,0.08-0.17,0.12-0.26
			c0.03-0.06,0.06-0.12,0.09-0.18c0.11-0.24,0.21-0.48,0.3-0.72c0,0,0,0,0-0.01c0.01-0.01,0.01-0.01,0.01-0.02v-0.01
			c0.05-0.13,0.1-0.25,0.14-0.38c0.04-0.11,0.07-0.22,0.11-0.33c0.01-0.03,0.02-0.07,0.03-0.1c0-0.01,0.01-0.02,0.01-0.03
			c0.03-0.11,0.06-0.22,0.09-0.33c0.03-0.1,0.05-0.19,0.07-0.29c0-0.02,0.01-0.03,0.01-0.05c0.01-0.04,0.02-0.08,0.03-0.12
			c0,0,0-0.01,0-0.01c0.03-0.11,0.05-0.22,0.07-0.33c0.03-0.13,0.05-0.27,0.07-0.4c0.02-0.14,0.04-0.27,0.05-0.4
			c0.02-0.14,0.03-0.27,0.04-0.41c0-0.06,0.01-0.11,0.01-0.17c0-0.06,0.01-0.11,0.01-0.17c0.01-0.13,0.01-0.25,0.01-0.38V0H183.14z
			 M210.86,41.55c0.06-0.1,0.12-0.2,0.18-0.3C210.99,41.35,210.93,41.45,210.86,41.55z M184.62,42.89h1.49v-6.27h-0.02
			c-0.11,1-0.62,1.95-1.46,2.83V42.89z M184.62,36.62v-21.8h-1.49v24.49c0.84-0.82,1.35-1.72,1.46-2.68H184.62z M210.86,41.55
			c0.06-0.1,0.12-0.2,0.18-0.3C210.99,41.35,210.93,41.45,210.86,41.55z M186.08,36.62c-0.11,1-0.62,1.95-1.46,2.83v3.44h1.49v-6.27
			H186.08z M210.86,41.55c0.06-0.1,0.12-0.2,0.18-0.3C210.99,41.35,210.93,41.45,210.86,41.55z M186.08,36.62
			c-0.11,1-0.62,1.95-1.46,2.83v3.44h1.49v-6.27H186.08z M210.86,41.55c0.06-0.1,0.12-0.2,0.18-0.3
			C210.99,41.35,210.93,41.45,210.86,41.55z M186.08,36.62c-0.11,1-0.62,1.95-1.46,2.83v3.44h1.49v-6.27H186.08z M210.86,41.55
			c0.06-0.1,0.12-0.2,0.18-0.3C210.99,41.35,210.93,41.45,210.86,41.55z M186.08,36.62c-0.11,1-0.62,1.95-1.46,2.83v15.58
			c0.5-0.09,1-0.18,1.49-0.28V36.62H186.08z M210.86,41.55c0.06-0.1,0.12-0.2,0.18-0.3C210.99,41.35,210.93,41.45,210.86,41.55z
			 M186.08,36.62c-0.11,1-0.62,1.95-1.46,2.83v15.58c0.5-0.09,1-0.18,1.49-0.28V36.62H186.08z M210.86,41.55
			c0.06-0.1,0.12-0.2,0.18-0.3C210.99,41.35,210.93,41.45,210.86,41.55z M186.08,36.62c-0.11,1-0.62,1.95-1.46,2.83v3.44h1.49v-6.27
			H186.08z M210.86,41.55c0.06-0.1,0.12-0.2,0.18-0.3C210.99,41.35,210.93,41.45,210.86,41.55z M186.08,36.62
			c-0.11,1-0.62,1.95-1.46,2.83v3.44h1.49v-6.27H186.08z M210.86,41.55c0.06-0.1,0.12-0.2,0.18-0.3
			C210.99,41.35,210.93,41.45,210.86,41.55z M186.08,36.62c-0.11,1-0.62,1.95-1.46,2.83v3.44h1.49v-6.27H186.08z M210.86,41.55
			c0.06-0.1,0.12-0.2,0.18-0.3C210.99,41.35,210.93,41.45,210.86,41.55z M186.08,36.62c-0.11,1-0.62,1.95-1.46,2.83
			c-0.41,0.43-0.91,0.85-1.49,1.24v2.2h1.49v12.14c0.5-0.09,1-0.18,1.49-0.28V36.62H186.08z"/>
		<rect x="183.14" y="0.71" class="st0" width="1.49" height="14.11"/>
		<rect x="212.57" y="14.82" class="st0" width="1.49" height="6.98"/>
		<path class="st0" d="M214.05,21.8v7.13h-0.84c-0.2-0.29-0.42-0.58-0.65-0.86V21.8H214.05z"/>
		<path class="st0" d="M186.11,14.82v0.57c-0.33-0.06-0.66-0.12-0.99-0.17l-0.5-0.08v-0.31H186.11z"/>
		<path class="st0" d="M212.57,1.42V21.8h-7.67c-4.97-2.84-11.42-5.08-18.79-6.42V1.42H212.57z"/>
		<polygon class="st0" points="214.05,0.71 214.05,14.82 212.57,14.82 212.57,1.42 186.11,1.42 186.11,14.82 184.62,14.82 
			184.62,0.71 		"/>
	</g>
	<g>
		<path d="M153.72,36.62L153.72,36.62l-0.01-0.1c-0.01-0.09-0.01-0.19-0.01-0.28v0.38h-26.43c0.02,0.28,0.05,0.55,0.1,0.83
			c0.01,0.07,0.02,0.14,0.04,0.21c0.01,0.08,0.03,0.17,0.05,0.25c0.03,0.12,0.05,0.24,0.09,0.36c0.02,0.11,0.05,0.22,0.09,0.32
			c0.02,0.08,0.04,0.16,0.07,0.24c0.02,0.07,0.04,0.15,0.07,0.22c0.04,0.11,0.07,0.22,0.12,0.33c0.02,0.07,0.05,0.15,0.08,0.22
			c0.02,0.06,0.05,0.13,0.07,0.19c0.03,0.07,0.06,0.14,0.09,0.21c0.01,0.04,0.04,0.09,0.05,0.13c0.04,0.09,0.09,0.19,0.13,0.28
			c0.05,0.1,0.1,0.2,0.15,0.29c0.04,0.07,0.07,0.14,0.11,0.21c0.04,0.08,0.08,0.15,0.12,0.23c0.02,0.03,0.03,0.06,0.05,0.09
			c0.06,0.11,0.12,0.21,0.19,0.32c0,0,0.01,0.01,0.01,0.01c0.06,0.1,0.12,0.21,0.19,0.31c0.07,0.11,0.14,0.22,0.22,0.33
			c0.04,0.06,0.08,0.12,0.12,0.17c0.06,0.08,0.11,0.16,0.17,0.24c0.07,0.09,0.13,0.18,0.21,0.27c0,0,0,0.01,0.01,0.01h0
			c0.08,0.1,0.16,0.21,0.24,0.31c0.02,0.02,0.04,0.04,0.05,0.07c0.09,0.11,0.18,0.21,0.26,0.32c0.06,0.07,0.11,0.13,0.17,0.19
			c0.07,0.08,0.14,0.16,0.21,0.24c0.2,0.22,0.41,0.44,0.63,0.66c0.07,0.08,0.15,0.15,0.23,0.23c0.08,0.08,0.16,0.16,0.25,0.24
			c0.08,0.08,0.16,0.15,0.25,0.23c0.12,0.11,0.25,0.23,0.38,0.34c0.31,0.27,0.62,0.53,0.95,0.79c0.09,0.07,0.18,0.14,0.28,0.22
			c0.61,0.47,1.25,0.92,1.94,1.36c0.1,0.07,0.21,0.14,0.32,0.21c0.14,0.09,0.28,0.17,0.43,0.26c0.07,0.05,0.15,0.09,0.22,0.14
			c0.13,0.08,0.27,0.16,0.4,0.23c0.15,0.09,0.3,0.18,0.46,0.26c0.04,0.02,0.07,0.04,0.11,0.06c0.16,0.09,0.32,0.18,0.49,0.27
			c0.17,0.09,0.34,0.18,0.52,0.28c0.38,0.2,0.77,0.39,1.17,0.58c0.18,0.09,0.37,0.17,0.55,0.26c0.19,0.09,0.39,0.18,0.59,0.27
			c0.16,0.07,0.33,0.14,0.49,0.22c0.04,0.02,0.09,0.04,0.13,0.06c0.19,0.08,0.39,0.16,0.59,0.24c0.21,0.09,0.41,0.17,0.62,0.25
			c0.21,0.08,0.42,0.16,0.63,0.25c0.21,0.08,0.43,0.16,0.64,0.24c0.01,0,0.01,0,0.02,0.01c0.42,0.15,0.84,0.3,1.26,0.44
			c0.01,0,0.02,0.01,0.04,0.01c0.45,0.15,0.9,0.3,1.36,0.44c0.26,0.08,0.53,0.16,0.79,0.24c0.2,0.06,0.4,0.12,0.6,0.17
			c0.22,0.06,0.44,0.12,0.66,0.18c0.32,0.09,0.64,0.17,0.97,0.26c0.15,0.04,0.3,0.08,0.46,0.12c0.22,0.05,0.44,0.11,0.66,0.16
			c0.1,0.02,0.2,0.05,0.31,0.07c0.2,0.05,0.4,0.09,0.6,0.14c0.19,0.04,0.38,0.09,0.58,0.13c0.14,0.03,0.28,0.06,0.42,0.09
			c0.22,0.05,0.44,0.09,0.66,0.13c0.04,0.01,0.08,0.02,0.12,0.02c0.02,0,0.04,0.01,0.07,0.01c0.02,0,0.03,0.01,0.05,0.01v0
			c0.49,0.1,0.98,0.19,1.49,0.28V39.46C154.34,38.58,153.83,37.62,153.72,36.62z M127.24,30.35v5.49c0-0.21,0.01-0.43,0.02-0.64
			h26.44v-4.84H127.24z M153.7,35.91v0.3c0-0.05,0-0.1,0-0.15L153.7,35.91z"/>
		<path class="st1" d="M153.7,35.91v0.3c0-0.05,0-0.1,0-0.15L153.7,35.91z M153.7,35.91v0.3c0-0.05,0-0.1,0-0.15L153.7,35.91z
			 M154.69,56.47l1.98,0.34v-0.02C156.01,56.68,155.35,56.58,154.69,56.47z M155.19,39.46c-0.85-0.88-1.36-1.84-1.47-2.83h-0.01
			l0-0.1c-0.01-0.09-0.01-0.19-0.01-0.28v18.52c0.49,0.1,0.98,0.19,1.49,0.28c0.16,0.03,0.33,0.06,0.5,0.09
			c0.33,0.06,0.66,0.11,0.99,0.16V40.69C156.1,40.3,155.6,39.89,155.19,39.46z M153.7,35.91v0.3c0-0.05,0-0.1,0-0.15L153.7,35.91z
			 M155.19,35.91v0.71h0.03c0.11,0.96,0.62,1.87,1.46,2.68v-3.4H155.19z M153.7,35.91v0.3c0-0.05,0-0.1,0-0.15L153.7,35.91z
			 M153.7,35.91v0.3c0-0.05,0-0.1,0-0.15L153.7,35.91z M153.7,35.91v0.3c0-0.05,0-0.1,0-0.15L153.7,35.91z"/>
	</g>
	<g>
		<path class="st0" d="M200.92,21.8c-4.12-2.09-9.16-3.77-14.81-4.88v12.01h23.96C208.06,26.26,204.92,23.83,200.92,21.8z
			 M212.55,30.35h-26.44v4.84h26.44c0.01,0.21,0.02,0.43,0.02,0.64v-5.46C212.56,30.37,212.56,30.36,212.55,30.35z M186.08,36.62
			c-0.11,1-0.62,1.95-1.46,2.83c-0.41,0.43-0.91,0.85-1.49,1.24c-1.3,0.88-2.98,1.64-4.96,2.2c-0.9,0.26-1.86,0.47-2.87,0.65
			c-1.73,0.29-3.55,0.44-5.4,0.44s-3.67-0.15-5.4-0.44c-1.01-0.17-1.97-0.39-2.87-0.65c-1.97-0.56-3.66-1.32-4.96-2.2
			c-0.57-0.39-1.07-0.8-1.49-1.24c-0.85-0.88-1.36-1.84-1.47-2.83h-0.01l0-0.1c-0.01-0.09-0.01-0.19-0.01-0.28v0.38h-26.43
			c0.02,0.28,0.05,0.55,0.1,0.83c0.01,0.07,0.02,0.14,0.04,0.21c0.01,0.08,0.03,0.17,0.05,0.25c0.03,0.12,0.05,0.24,0.09,0.36
			c0.02,0.11,0.05,0.22,0.09,0.32c0.02,0.08,0.04,0.16,0.07,0.24c0.02,0.07,0.04,0.15,0.07,0.22c0.04,0.11,0.07,0.22,0.12,0.33
			c0.02,0.07,0.05,0.15,0.08,0.22c0.02,0.06,0.05,0.13,0.07,0.19c0.03,0.07,0.06,0.14,0.09,0.21c0.01,0.04,0.04,0.09,0.05,0.13
			c0.04,0.09,0.09,0.19,0.13,0.28c0.05,0.1,0.1,0.2,0.15,0.29c0.04,0.07,0.07,0.14,0.11,0.21c0.04,0.08,0.08,0.15,0.12,0.23
			c0.02,0.03,0.03,0.06,0.05,0.09c0.06,0.11,0.12,0.21,0.19,0.32c0,0,0.01,0.01,0.01,0.01c0.06,0.1,0.12,0.21,0.19,0.31
			c0.07,0.11,0.14,0.22,0.22,0.33c0.04,0.06,0.08,0.12,0.12,0.17c0.06,0.08,0.11,0.16,0.17,0.24c0.07,0.09,0.13,0.18,0.21,0.27
			c0,0,0,0.01,0.01,0.01h0c0.08,0.1,0.16,0.21,0.24,0.31c0.02,0.02,0.04,0.04,0.05,0.07c0.09,0.11,0.18,0.21,0.26,0.32
			c0.06,0.07,0.11,0.13,0.17,0.19c0.07,0.08,0.14,0.16,0.21,0.24c0.2,0.22,0.41,0.44,0.63,0.66c0.07,0.08,0.15,0.15,0.23,0.23
			c0.08,0.08,0.16,0.16,0.25,0.24c0.08,0.08,0.16,0.15,0.25,0.23c0.12,0.11,0.25,0.23,0.38,0.34c0.31,0.27,0.62,0.53,0.95,0.79
			c0.09,0.07,0.18,0.14,0.28,0.22c0.61,0.47,1.25,0.92,1.94,1.36c0.1,0.07,0.21,0.14,0.32,0.21c0.14,0.09,0.28,0.17,0.43,0.26
			c0.07,0.05,0.15,0.09,0.22,0.14c0.13,0.08,0.27,0.16,0.4,0.23c0.15,0.09,0.3,0.18,0.46,0.26c0.04,0.02,0.07,0.04,0.11,0.06
			c0.16,0.09,0.32,0.18,0.49,0.27c0.17,0.09,0.34,0.18,0.52,0.28c0.38,0.2,0.77,0.39,1.17,0.58c0.18,0.09,0.37,0.17,0.55,0.26
			c0.19,0.09,0.39,0.18,0.59,0.27c0.16,0.07,0.33,0.14,0.49,0.22c0.04,0.02,0.09,0.04,0.13,0.06c0.19,0.08,0.39,0.16,0.59,0.24
			c0.21,0.09,0.41,0.17,0.62,0.25c0.21,0.08,0.42,0.16,0.63,0.25c0.21,0.08,0.43,0.16,0.64,0.24c0.01,0,0.01,0,0.02,0.01
			c0.42,0.15,0.84,0.3,1.26,0.44c0.01,0,0.02,0.01,0.04,0.01c0.45,0.15,0.9,0.3,1.36,0.44c0.26,0.08,0.53,0.16,0.79,0.24
			c0.2,0.06,0.4,0.12,0.6,0.17c0.22,0.06,0.44,0.12,0.66,0.18c0.32,0.09,0.64,0.17,0.97,0.26c0.15,0.04,0.3,0.08,0.46,0.12
			c0.22,0.05,0.44,0.11,0.66,0.16c0.1,0.02,0.2,0.05,0.31,0.07c0.2,0.05,0.4,0.09,0.6,0.14c0.19,0.04,0.38,0.09,0.58,0.13
			c0.14,0.03,0.28,0.06,0.42,0.09c0.22,0.05,0.44,0.09,0.66,0.13c0.04,0.01,0.08,0.02,0.12,0.02c0.02,0,0.04,0.01,0.07,0.01
			c0.02,0,0.03,0.01,0.05,0.01v0c0.49,0.1,0.98,0.19,1.49,0.28c0.16,0.03,0.33,0.06,0.5,0.09c0.33,0.06,0.66,0.11,0.99,0.16
			c4.26,0.67,8.7,1,13.23,1s8.97-0.34,13.23-1c0.33-0.05,0.66-0.1,0.99-0.16c0.17-0.03,0.33-0.06,0.5-0.09
			c0.5-0.09,1-0.18,1.49-0.28v0c0.02,0,0.04-0.01,0.06-0.01c0.01,0,0.01,0,0.02,0c0.05-0.01,0.1-0.02,0.15-0.03
			c0.22-0.04,0.44-0.09,0.66-0.13c0.14-0.03,0.28-0.06,0.42-0.09c0.19-0.04,0.39-0.08,0.58-0.13c0.1-0.02,0.19-0.04,0.29-0.06
			c0.1-0.02,0.19-0.04,0.28-0.07c0.01,0,0.02,0,0.03-0.01c0.1-0.02,0.21-0.05,0.31-0.07c0.17-0.04,0.34-0.08,0.5-0.12
			c0.05-0.01,0.11-0.03,0.16-0.04c0.15-0.04,0.31-0.08,0.46-0.12c0.13-0.03,0.27-0.07,0.4-0.1c0.19-0.05,0.38-0.1,0.56-0.15
			c0.22-0.06,0.44-0.12,0.66-0.18c0.08-0.02,0.17-0.05,0.25-0.07c0.08-0.02,0.17-0.05,0.25-0.07c0.04-0.01,0.07-0.02,0.1-0.03
			c0.07-0.02,0.15-0.04,0.22-0.07c0.18-0.05,0.37-0.11,0.54-0.17c0.01,0,0.02-0.01,0.03-0.01c0.46-0.14,0.91-0.29,1.36-0.44
			c0.01,0,0.02-0.01,0.04-0.01c0.43-0.14,0.85-0.29,1.26-0.44c0.01,0,0.01,0,0.02-0.01c0.12-0.05,0.25-0.09,0.37-0.14
			c0.09-0.03,0.18-0.07,0.27-0.1c0.11-0.04,0.21-0.08,0.32-0.12c0.1-0.04,0.21-0.08,0.32-0.12c0.21-0.08,0.42-0.17,0.62-0.25
			c0.2-0.08,0.39-0.16,0.59-0.24c0.04-0.02,0.09-0.04,0.13-0.06c0.17-0.07,0.33-0.14,0.49-0.22c0.11-0.05,0.21-0.09,0.32-0.14
			c0.09-0.04,0.18-0.08,0.27-0.12l0.28-0.13c0.08-0.04,0.16-0.08,0.24-0.12c0.01,0,0.02-0.01,0.03-0.01
			c0.03-0.01,0.06-0.03,0.08-0.04c0.15-0.07,0.29-0.14,0.43-0.21c0.07-0.04,0.15-0.08,0.23-0.11c0.15-0.07,0.29-0.15,0.44-0.22
			c0.09-0.05,0.18-0.09,0.26-0.14c0.09-0.05,0.17-0.09,0.26-0.14c0.17-0.09,0.33-0.18,0.49-0.27c0.04-0.02,0.07-0.04,0.11-0.06
			c0.15-0.09,0.31-0.17,0.46-0.26c0.11-0.06,0.22-0.13,0.33-0.19c0,0,0,0,0,0c0.02-0.01,0.04-0.03,0.07-0.04
			c0.07-0.04,0.15-0.09,0.22-0.14c0.11-0.07,0.22-0.13,0.33-0.2c0.03-0.02,0.06-0.04,0.1-0.06c0.01-0.01,0.03-0.02,0.04-0.03
			c0.1-0.06,0.19-0.12,0.28-0.18c0.15-0.1,0.3-0.19,0.44-0.29c0.05-0.03,0.1-0.07,0.15-0.1c0.01,0,0.01-0.01,0.02-0.01
			c0.13-0.09,0.26-0.18,0.39-0.27c0.16-0.11,0.32-0.23,0.48-0.34c0.16-0.12,0.31-0.23,0.46-0.35c0.1-0.07,0.19-0.14,0.28-0.22
			c0.11-0.08,0.21-0.17,0.32-0.25c0.11-0.09,0.22-0.18,0.32-0.27c0.11-0.09,0.21-0.18,0.32-0.27c0.1-0.09,0.2-0.18,0.3-0.27
			c0.08-0.07,0.17-0.15,0.25-0.23c0.01,0,0.01-0.01,0.01-0.01c0.15-0.14,0.31-0.29,0.45-0.43c0.06-0.06,0.12-0.11,0.18-0.17
			c0.08-0.08,0.16-0.16,0.24-0.25c0.21-0.22,0.41-0.44,0.61-0.67c0.08-0.09,0.16-0.18,0.23-0.28c0.07-0.09,0.14-0.17,0.21-0.26
			c0.01-0.01,0.01-0.01,0.01-0.02c0.01-0.01,0.01-0.01,0.01-0.02c0.01-0.01,0.01-0.01,0.01-0.02c0.05-0.07,0.11-0.14,0.16-0.21
			c0.07-0.09,0.14-0.18,0.21-0.28c0.07-0.09,0.13-0.18,0.19-0.27c0.03-0.04,0.06-0.09,0.09-0.13c0.07-0.1,0.14-0.2,0.2-0.3
			c0.01-0.01,0.01-0.01,0.01-0.02c0.08-0.12,0.15-0.24,0.22-0.35c0.06-0.1,0.12-0.2,0.18-0.3c0,0,0-0.01,0.01-0.01
			c0,0,0-0.01,0.01-0.01c0.02-0.03,0.03-0.06,0.05-0.09c0.04-0.08,0.09-0.16,0.13-0.24c0-0.01,0.01-0.01,0.01-0.02
			c0.03-0.05,0.06-0.11,0.08-0.16c0.01-0.01,0.01-0.03,0.02-0.04c0.01-0.01,0.01-0.01,0.01-0.02c0.02-0.04,0.04-0.08,0.07-0.13
			c0.01-0.01,0.01-0.02,0.01-0.03c0.02-0.03,0.03-0.06,0.04-0.09c0.05-0.1,0.1-0.2,0.14-0.3c0.01-0.03,0.03-0.06,0.04-0.09
			c0.04-0.09,0.08-0.18,0.12-0.28c0.01-0.04,0.03-0.07,0.04-0.11c0,0,0,0,0-0.01c0.04-0.09,0.07-0.18,0.1-0.26c0,0,0-0.01,0-0.01
			c0,0,0,0,0-0.01c0.04-0.11,0.08-0.22,0.12-0.33c0.02-0.06,0.04-0.12,0.06-0.19c0.03-0.08,0.05-0.17,0.07-0.25
			c0.03-0.11,0.06-0.22,0.09-0.33c0.01-0.03,0.01-0.06,0.02-0.1c0.02-0.08,0.04-0.17,0.06-0.26v-0.01c0.01-0.06,0.02-0.11,0.04-0.17
			c0-0.02,0.01-0.04,0.01-0.06c0.01-0.07,0.03-0.15,0.04-0.22c0.02-0.11,0.04-0.22,0.05-0.33c0.01-0.03,0.01-0.05,0.01-0.08
			c0.01-0.09,0.02-0.17,0.03-0.26c0-0.05,0.01-0.1,0.01-0.15H186.08z M127.26,30.35c-0.01,0.01-0.01,0.02-0.01,0.02v5.46
			c0-0.21,0.01-0.43,0.02-0.64h26.44v-4.84H127.26z M155.19,36.24v0.38h0.03C155.2,36.5,155.19,36.37,155.19,36.24z M155.19,35.91
			v0.3c0-0.1,0.01-0.2,0.01-0.3H155.19z M153.7,35.91v0.3c0-0.05,0-0.1,0-0.15L153.7,35.91z M184.59,36.62h0.03v-0.38
			C184.62,36.37,184.61,36.5,184.59,36.62z M184.61,35.91c0.01,0.1,0.01,0.2,0.01,0.3v-0.3H184.61z"/>
		<path class="st1" d="M183.14,14.88V35.2h-0.08l0.07,0.71l0,0.03c0.01,0.09,0.01,0.18,0.01,0.28v3.09
			c0.84-0.82,1.35-1.72,1.46-2.68h0.03V15.13L183.14,14.88z M127.24,30.35v5.49c0-0.21,0.01-0.43,0.02-0.64
			c0.11-1.65,0.62-3.27,1.53-4.84H127.24z M127.24,30.35v5.49c0-0.21,0.01-0.43,0.02-0.64c0.11-1.65,0.62-3.27,1.53-4.84H127.24z
			 M156.68,35.2v0.71h-1.49v0.71h0.03c0.11,0.96,0.62,1.87,1.46,2.68v-3.09c0-0.09,0.01-0.18,0.01-0.28l0-0.03l0.04-0.71H156.68z
			 M127.24,30.35v5.49c0-0.21,0.01-0.43,0.02-0.64c0.11-1.65,0.62-3.27,1.53-4.84H127.24z M156.68,56.03v0.75
			c0.54,0.08,1.09,0.15,1.64,0.22h11.59C165.29,57,160.85,56.66,156.68,56.03z M186.11,54.76L186.11,54.76
			c0.02,0,0.04-0.01,0.06-0.01C186.15,54.75,186.13,54.76,186.11,54.76z M186.11,54.76L186.11,54.76c0.02,0,0.04-0.01,0.06-0.01
			C186.15,54.75,186.13,54.76,186.11,54.76z M186.11,54.76L186.11,54.76c0.02,0,0.04-0.01,0.06-0.01
			C186.15,54.75,186.13,54.76,186.11,54.76z M186.11,54.76L186.11,54.76c0.02,0,0.04-0.01,0.06-0.01
			C186.15,54.75,186.13,54.76,186.11,54.76z M186.11,54.76L186.11,54.76c0.02,0,0.04-0.01,0.06-0.01
			C186.15,54.75,186.13,54.76,186.11,54.76z M186.11,54.76L186.11,54.76c0.02,0,0.04-0.01,0.06-0.01
			C186.15,54.75,186.13,54.76,186.11,54.76z M186.11,54.76L186.11,54.76c0.02,0,0.04-0.01,0.06-0.01
			C186.15,54.75,186.13,54.76,186.11,54.76z M186.11,54.76L186.11,54.76c0.02,0,0.04-0.01,0.06-0.01
			C186.15,54.75,186.13,54.76,186.11,54.76z M211.01,30.35c0.91,1.57,1.43,3.2,1.53,4.84c0.01,0.21,0.02,0.43,0.02,0.64v-5.49
			H211.01z M214.05,30.29v5.62c0,0.13-0.01,0.25-0.01,0.38c0,0.06-0.01,0.11-0.01,0.17c0,0.06-0.01,0.11-0.01,0.17
			c-0.01,0.14-0.02,0.27-0.04,0.41c0,0,0,0,0,0v0.01c-0.01,0.1-0.02,0.19-0.04,0.29c0,0.02,0,0.03-0.01,0.05
			c-0.01,0.03-0.01,0.07-0.01,0.1c0,0.01,0,0.01,0,0.02l-0.04,0.25c0,0.01,0,0.02-0.01,0.04c-0.01,0.03-0.01,0.06-0.02,0.08
			c-0.01,0.08-0.03,0.16-0.05,0.24c0,0,0,0,0,0.01c-0.01,0.07-0.03,0.14-0.05,0.21c0,0.01-0.01,0.03-0.01,0.04
			c-0.01,0.06-0.02,0.11-0.04,0.17c0,0.02-0.01,0.03-0.01,0.05c-0.01,0.05-0.03,0.1-0.04,0.15c-0.02,0.09-0.05,0.19-0.08,0.28
			c-0.01,0.03-0.01,0.05-0.02,0.08c-0.02,0.06-0.04,0.12-0.06,0.18c-0.02,0.06-0.04,0.12-0.06,0.18c-0.02,0.06-0.04,0.12-0.07,0.18
			c-0.02,0.06-0.05,0.12-0.07,0.18c-0.04,0.12-0.09,0.23-0.14,0.35c-0.04,0.1-0.09,0.2-0.13,0.29c-0.01,0.03-0.02,0.05-0.04,0.08
			c-0.05,0.11-0.11,0.22-0.16,0.33c-0.01,0.02-0.02,0.05-0.03,0.07c-0.05,0.1-0.1,0.2-0.16,0.29c-0.05,0.09-0.1,0.17-0.15,0.26
			c-0.07,0.12-0.15,0.25-0.22,0.37c-0.02,0.04-0.05,0.08-0.07,0.11c-0.04,0.06-0.08,0.12-0.12,0.19c-0.08,0.13-0.16,0.25-0.25,0.37
			c-0.09,0.13-0.18,0.25-0.27,0.37c-0.07,0.1-0.15,0.19-0.22,0.29c-0.05,0.07-0.11,0.14-0.16,0.2c-0.03,0.04-0.07,0.09-0.1,0.13
			c-0.06,0.07-0.11,0.14-0.17,0.21c-0.1,0.11-0.19,0.23-0.29,0.34c-0.1,0.11-0.2,0.23-0.31,0.34c-0.02,0.02-0.04,0.04-0.05,0.06
			c-0.09,0.1-0.18,0.19-0.27,0.28c-0.1,0.11-0.21,0.21-0.32,0.32c-0.1,0.1-0.21,0.2-0.31,0.3c-0.07,0.07-0.14,0.14-0.21,0.2
			c-0.01,0.01-0.01,0.01-0.02,0.02c-0.36,0.33-0.73,0.65-1.12,0.97c-0.13,0.11-0.26,0.21-0.4,0.32c-0.12,0.09-0.23,0.18-0.35,0.27
			c-0.07,0.05-0.14,0.11-0.21,0.16c-0.01,0-0.01,0.01-0.02,0.01c-0.09,0.06-0.17,0.13-0.26,0.19c-0.15,0.11-0.29,0.21-0.44,0.31
			c-0.15,0.1-0.3,0.21-0.45,0.31c-0.07,0.05-0.15,0.1-0.22,0.15c-0.01,0.01-0.02,0.02-0.03,0.02c-0.19,0.12-0.38,0.25-0.57,0.37
			c-0.02,0.01-0.04,0.02-0.06,0.04c-0.13,0.09-0.27,0.17-0.41,0.26c-0.02,0.01-0.04,0.02-0.06,0.03c-0.03,0.02-0.06,0.04-0.09,0.05
			c-0.11,0.07-0.23,0.14-0.34,0.2c-0.1,0.06-0.21,0.13-0.32,0.19c-0.17,0.1-0.34,0.2-0.52,0.29c-0.13,0.07-0.27,0.15-0.4,0.22
			c-0.13,0.07-0.27,0.14-0.4,0.21c-0.28,0.15-0.56,0.29-0.85,0.43c-0.14,0.07-0.29,0.14-0.43,0.21c-0.14,0.07-0.28,0.13-0.42,0.2
			c-0.31,0.14-0.62,0.28-0.93,0.42c-0.12,0.05-0.25,0.11-0.37,0.16c-0.03,0.02-0.07,0.03-0.1,0.04c-0.01,0-0.01,0.01-0.02,0.01
			c-0.12,0.05-0.25,0.11-0.38,0.16c-0.15,0.06-0.31,0.13-0.46,0.19c-0.15,0.06-0.31,0.13-0.47,0.19c-0.16,0.06-0.32,0.12-0.47,0.18
			c-0.16,0.06-0.32,0.12-0.48,0.18c-0.34,0.13-0.68,0.25-1.03,0.37c-0.15,0.05-0.3,0.1-0.45,0.16c-0.21,0.07-0.42,0.14-0.63,0.21
			c-0.17,0.06-0.34,0.11-0.52,0.17c-0.14,0.05-0.29,0.09-0.43,0.14c-0.11,0.03-0.21,0.07-0.32,0.1c-0.21,0.07-0.43,0.13-0.65,0.2
			c-0.23,0.07-0.47,0.14-0.71,0.21c0,0-0.01,0-0.01,0c-0.04,0.01-0.07,0.02-0.1,0.03c-0.18,0.05-0.36,0.1-0.55,0.15
			c-0.45,0.12-0.91,0.24-1.37,0.35c-0.11,0.03-0.23,0.06-0.34,0.08c-0.02,0.01-0.04,0.01-0.06,0.02c-0.07,0.02-0.13,0.03-0.2,0.05
			c-0.14,0.03-0.29,0.07-0.43,0.1c-0.18,0.04-0.37,0.09-0.56,0.13c-0.16,0.04-0.31,0.07-0.47,0.1c-0.01,0-0.01,0-0.02,0
			c-0.4,0.09-0.8,0.17-1.21,0.25c-0.24,0.05-0.49,0.1-0.73,0.14c-0.26,0.05-0.53,0.1-0.79,0.15c-0.26,0.05-0.53,0.09-0.8,0.14
			c-0.49,0.08-0.99,0.16-1.49,0.24c-4.17,0.63-8.62,0.97-13.23,0.97h11.59c0.55-0.07,1.09-0.14,1.64-0.22
			c0.67-0.1,1.33-0.2,1.98-0.31c0.28-0.05,0.56-0.1,0.84-0.15c0.21-0.04,0.41-0.07,0.61-0.11c0.03-0.01,0.07-0.01,0.1-0.02
			c0.1-0.02,0.19-0.04,0.29-0.05c0.23-0.04,0.45-0.09,0.67-0.13c0.2-0.04,0.4-0.08,0.61-0.13c0.05-0.01,0.1-0.02,0.15-0.03
			c0.05-0.01,0.11-0.02,0.16-0.03c0.18-0.04,0.36-0.08,0.54-0.12c0.3-0.07,0.6-0.14,0.9-0.21c0.11-0.03,0.22-0.05,0.33-0.08
			c0.05-0.01,0.09-0.02,0.14-0.03c0.16-0.04,0.32-0.08,0.47-0.12c0.23-0.06,0.47-0.12,0.7-0.18c0.03-0.01,0.06-0.02,0.1-0.02
			c0.23-0.06,0.45-0.12,0.68-0.18c0.21-0.06,0.42-0.11,0.62-0.17c0.25-0.07,0.51-0.14,0.76-0.22c0.25-0.07,0.5-0.15,0.75-0.22
			c0.11-0.04,0.23-0.07,0.34-0.11c0.19-0.06,0.38-0.12,0.57-0.18c0.19-0.06,0.38-0.13,0.57-0.19c0.43-0.14,0.84-0.29,1.25-0.44
			c0.12-0.04,0.24-0.09,0.35-0.13c0.01,0,0.01-0.01,0.02-0.01c0.03-0.01,0.06-0.02,0.08-0.03c0.33-0.12,0.65-0.24,0.96-0.37
			c0.12-0.05,0.23-0.09,0.35-0.14c0.11-0.04,0.23-0.09,0.34-0.14c0.26-0.11,0.52-0.21,0.78-0.32c0.16-0.07,0.32-0.14,0.48-0.21
			c0.13-0.06,0.26-0.11,0.38-0.17c0,0,0,0,0.01,0c0.15-0.07,0.31-0.14,0.46-0.21c0.18-0.08,0.36-0.17,0.54-0.25l0.08-0.04
			c0.61-0.29,1.21-0.59,1.79-0.9c0.21-0.11,0.42-0.23,0.62-0.34c0.17-0.1,0.34-0.19,0.51-0.29c0.32-0.18,0.63-0.37,0.93-0.56
			c0.09-0.05,0.17-0.11,0.26-0.16c0.32-0.21,0.64-0.41,0.95-0.62c0.15-0.1,0.29-0.2,0.43-0.3c0.17-0.12,0.34-0.24,0.5-0.36
			c0.15-0.11,0.29-0.22,0.43-0.32c0.03-0.02,0.05-0.04,0.07-0.05c0.01-0.01,0.02-0.02,0.03-0.02c0.13-0.1,0.26-0.2,0.38-0.3
			c0.12-0.1,0.25-0.2,0.37-0.3c0.1-0.08,0.2-0.16,0.29-0.25c0.02-0.02,0.04-0.03,0.06-0.05c0.09-0.07,0.17-0.15,0.25-0.22
			c0.24-0.21,0.48-0.43,0.7-0.64c0.12-0.11,0.23-0.23,0.35-0.34c0.02-0.02,0.04-0.04,0.07-0.07c0.11-0.11,0.23-0.23,0.33-0.34
			c0.1-0.1,0.2-0.21,0.29-0.31c0.07-0.08,0.15-0.16,0.22-0.25c0.02-0.02,0.04-0.05,0.06-0.07c0.08-0.09,0.16-0.19,0.24-0.28
			c0.09-0.1,0.17-0.2,0.25-0.3c0,0,0,0,0-0.01c0.08-0.1,0.17-0.21,0.25-0.31c0.08-0.11,0.16-0.21,0.24-0.32
			c0.04-0.05,0.08-0.1,0.11-0.16c0.01-0.02,0.03-0.04,0.04-0.06c0.01-0.01,0.01-0.02,0.02-0.03c0.07-0.1,0.14-0.2,0.2-0.29
			c0.17-0.25,0.33-0.5,0.48-0.76c0.05-0.08,0.1-0.17,0.15-0.25c0.05-0.09,0.1-0.17,0.14-0.26c0.04-0.09,0.09-0.17,0.13-0.26
			c0.04-0.09,0.08-0.17,0.12-0.26c0.03-0.06,0.06-0.12,0.09-0.18c0.11-0.24,0.21-0.48,0.3-0.72c0,0,0,0,0-0.01
			c0.01-0.01,0.01-0.01,0.01-0.02v-0.01c0.05-0.13,0.1-0.25,0.14-0.38c0.04-0.11,0.07-0.22,0.11-0.33c0.01-0.03,0.02-0.07,0.03-0.1
			c0-0.01,0.01-0.02,0.01-0.03c0.03-0.11,0.06-0.22,0.09-0.33c0.03-0.1,0.05-0.19,0.07-0.29c0-0.02,0.01-0.03,0.01-0.05
			c0.01-0.04,0.02-0.08,0.03-0.12c0,0,0-0.01,0-0.01c0.03-0.11,0.05-0.22,0.07-0.33c0.03-0.14,0.05-0.27,0.07-0.4
			c0.02-0.14,0.04-0.27,0.05-0.4s0.03-0.27,0.04-0.41c0-0.06,0.01-0.11,0.01-0.17c0-0.06,0.01-0.11,0.01-0.17
			c0.01-0.13,0.01-0.25,0.01-0.38v-0.07C215.54,33.95,215.04,32.09,214.05,30.29z M212.57,35.84v-5.49h-1.55
			c0.91,1.57,1.43,3.2,1.53,4.84C212.56,35.41,212.57,35.63,212.57,35.84z M186.11,54.76L186.11,54.76c0.02,0,0.04-0.01,0.06-0.01
			C186.15,54.75,186.13,54.76,186.11,54.76z M211.01,30.35c0.91,1.57,1.43,3.2,1.53,4.84c0.01,0.21,0.02,0.43,0.02,0.64v-5.49
			H211.01z M186.11,54.76L186.11,54.76c0.02,0,0.04-0.01,0.06-0.01C186.15,54.75,186.13,54.76,186.11,54.76z M186.11,54.76
			L186.11,54.76c0.02,0,0.04-0.01,0.06-0.01C186.15,54.75,186.13,54.76,186.11,54.76z M186.11,54.76L186.11,54.76
			c0.02,0,0.04-0.01,0.06-0.01C186.15,54.75,186.13,54.76,186.11,54.76z M186.11,54.76L186.11,54.76c0.02,0,0.04-0.01,0.06-0.01
			C186.15,54.75,186.13,54.76,186.11,54.76z M186.11,54.76L186.11,54.76c0.02,0,0.04-0.01,0.06-0.01
			C186.15,54.75,186.13,54.76,186.11,54.76z M186.11,54.76L186.11,54.76c0.02,0,0.04-0.01,0.06-0.01
			C186.15,54.75,186.13,54.76,186.11,54.76z M186.11,54.76L186.11,54.76c0.02,0,0.04-0.01,0.06-0.01
			C186.15,54.75,186.13,54.76,186.11,54.76z M186.11,54.76L186.11,54.76c0.02,0,0.04-0.01,0.06-0.01
			C186.15,54.75,186.13,54.76,186.11,54.76z M153.65,54.75c0.02,0,0.03,0.01,0.05,0.01v0C153.68,54.76,153.67,54.75,153.65,54.75z
			 M129.86,42.88c0,0,0,0.01,0.01,0.01h0C129.87,42.89,129.87,42.89,129.86,42.88z"/>
		<path class="st0" d="M213.21,28.93h-0.65v-0.86C212.8,28.35,213.01,28.64,213.21,28.93z"/>
		<path class="st0" d="M184.62,55.04v0.76c-0.49,0.08-0.99,0.16-1.49,0.24v-0.75c0.33-0.05,0.66-0.1,0.99-0.16
			C184.29,55.09,184.46,55.07,184.62,55.04z"/>
		<path class="st0" d="M183.14,55.28v0.75c-4.17,0.63-8.62,0.97-13.23,0.97s-9.06-0.34-13.23-0.97v-0.75c4.26,0.67,8.7,1,13.23,1
			S178.88,55.95,183.14,55.28z"/>
		<path class="st0" d="M156.68,55.28v0.75c-0.5-0.08-1-0.16-1.49-0.24v-0.76c0.16,0.03,0.33,0.06,0.5,0.09
			C156.02,55.18,156.35,55.23,156.68,55.28z"/>
		<path class="st0" d="M155.19,55.04v0.76c-12.54-2.12-22.49-6.89-26.92-12.9h1.6c0.08,0.1,0.16,0.21,0.24,0.31
			c0.02,0.02,0.04,0.04,0.05,0.07c0.09,0.11,0.18,0.21,0.26,0.32c0.06,0.07,0.11,0.13,0.17,0.19c0.07,0.08,0.14,0.16,0.21,0.24
			c0.2,0.22,0.41,0.44,0.63,0.66c0.07,0.08,0.15,0.15,0.23,0.23c0.08,0.08,0.16,0.16,0.25,0.24c0.08,0.08,0.16,0.15,0.25,0.23
			c0.12,0.11,0.25,0.23,0.38,0.34c0.31,0.27,0.62,0.53,0.95,0.79c0.09,0.07,0.18,0.14,0.28,0.22c0.61,0.47,1.25,0.92,1.94,1.36
			c0.1,0.07,0.21,0.14,0.32,0.21c0.14,0.09,0.28,0.17,0.43,0.26c0.07,0.05,0.15,0.09,0.22,0.14c0.13,0.08,0.27,0.16,0.4,0.23
			c0.15,0.09,0.3,0.18,0.46,0.26c0.04,0.02,0.07,0.04,0.11,0.06c0.16,0.09,0.32,0.18,0.49,0.27c0.17,0.09,0.34,0.18,0.52,0.28
			c0.38,0.2,0.77,0.39,1.17,0.58c0.18,0.09,0.37,0.17,0.55,0.26c0.19,0.09,0.39,0.18,0.59,0.27c0.16,0.07,0.33,0.14,0.49,0.22
			c0.04,0.02,0.09,0.04,0.13,0.06c0.19,0.08,0.39,0.16,0.59,0.24c0.21,0.09,0.41,0.17,0.62,0.25c0.21,0.08,0.42,0.17,0.63,0.25
			c0.21,0.08,0.43,0.16,0.64,0.24c0.01,0,0.01,0,0.02,0.01c0.42,0.15,0.84,0.3,1.26,0.44c0.01,0,0.02,0.01,0.04,0.01
			c0.45,0.15,0.9,0.3,1.36,0.44c0.26,0.08,0.53,0.16,0.79,0.24c0.2,0.06,0.4,0.12,0.6,0.17c0.22,0.06,0.44,0.12,0.66,0.18
			c0.32,0.09,0.64,0.17,0.97,0.26c0.15,0.04,0.3,0.08,0.46,0.12c0.22,0.05,0.44,0.11,0.66,0.16c0.1,0.02,0.2,0.05,0.31,0.07
			c0.2,0.05,0.4,0.09,0.6,0.14c0.19,0.04,0.38,0.09,0.58,0.13c0.14,0.03,0.28,0.06,0.42,0.09c0.22,0.05,0.44,0.09,0.66,0.13
			c0.04,0.01,0.08,0.02,0.12,0.02c0.02,0,0.04,0.01,0.07,0.01c0.02,0,0.03,0.01,0.05,0.01v0C154.19,54.86,154.69,54.95,155.19,55.04
			z"/>
		<path class="st0" d="M129.87,42.89h-1.6c-1.46-1.97-2.32-4.08-2.48-6.27h1.49c0.02,0.28,0.05,0.55,0.1,0.83
			c0.01,0.07,0.02,0.14,0.04,0.21c0.01,0.08,0.03,0.17,0.05,0.25c0.03,0.12,0.05,0.24,0.09,0.36c0.02,0.11,0.05,0.22,0.09,0.32
			c0.02,0.08,0.04,0.16,0.07,0.24c0.02,0.07,0.04,0.15,0.07,0.22c0.04,0.11,0.07,0.22,0.12,0.33c0.02,0.07,0.05,0.15,0.08,0.22
			c0.02,0.06,0.05,0.13,0.07,0.19c0.03,0.07,0.06,0.14,0.09,0.21c0.01,0.04,0.04,0.09,0.05,0.13c0.04,0.09,0.09,0.19,0.13,0.28
			c0.05,0.1,0.1,0.2,0.15,0.29c0.04,0.07,0.07,0.14,0.11,0.21c0.04,0.08,0.08,0.15,0.12,0.23c0.02,0.03,0.03,0.06,0.05,0.09
			c0.06,0.11,0.12,0.21,0.19,0.32c0,0,0.01,0.01,0.01,0.01c0.06,0.1,0.12,0.21,0.19,0.31c0.07,0.11,0.14,0.22,0.22,0.33
			c0.04,0.06,0.08,0.12,0.12,0.17c0.06,0.08,0.11,0.16,0.17,0.24c0.07,0.09,0.13,0.18,0.21,0.27
			C129.86,42.89,129.87,42.89,129.87,42.89z"/>
		<path class="st0" d="M155.19,36.62v2.83c-0.85-0.88-1.36-1.84-1.47-2.83H155.19z"/>
		<path class="st0" d="M156.68,39.31v1.39c-0.57-0.39-1.07-0.8-1.49-1.24v-2.83h0.03C155.33,37.58,155.84,38.49,156.68,39.31z"/>
		<path class="st0" d="M165.16,42.89h-3.53c-1.97-0.56-3.66-1.32-4.96-2.2v-1.39c1.68,1.65,4.67,2.94,8.32,3.56
			C165.05,42.88,165.1,42.88,165.16,42.89z"/>
		<path class="st0" d="M178.18,42.89c-0.9,0.26-1.86,0.47-2.87,0.65c-1.73,0.29-3.55,0.44-5.4,0.44s-3.67-0.15-5.4-0.44
			c-1.01-0.17-1.97-0.39-2.87-0.65h3.53c1.49,0.25,3.09,0.38,4.75,0.38c1.66,0,3.26-0.13,4.75-0.38H178.18z"/>
		<path class="st0" d="M183.14,39.31v1.39c-1.3,0.88-2.98,1.64-4.96,2.2h-3.53c0.05-0.01,0.1-0.02,0.16-0.03
			C178.46,42.25,181.46,40.96,183.14,39.31z"/>
		<path class="st0" d="M184.62,36.62v2.83c-0.41,0.43-0.91,0.85-1.49,1.24v-1.39c0.84-0.82,1.35-1.72,1.46-2.68H184.62z"/>
		<path class="st0" d="M186.08,36.62c-0.11,1-0.62,1.95-1.46,2.83v-2.83H186.08z"/>
		<path class="st0" d="M212.57,28.06v0.86h-0.92c-1.91-2.65-4.89-5.07-8.7-7.13h1.95C208.14,23.66,210.75,25.77,212.57,28.06z"/>
		<rect x="184.62" y="21.8" class="st0" width="1.49" height="7.13"/>
		<path class="st0" d="M186.11,15.39v0.76c-0.49-0.09-0.99-0.18-1.49-0.27v-0.76l0.5,0.08C185.45,15.27,185.78,15.33,186.11,15.39z"
			/>
		<path class="st0" d="M186.11,16.15v5.65h-1.49v-5.92C185.12,15.97,185.62,16.06,186.11,16.15z"/>
		<path class="st0" d="M204.89,21.8h-1.95c-4.57-2.47-10.33-4.42-16.84-5.65v-0.76C193.48,16.73,199.93,18.96,204.89,21.8z"/>
		<path class="st0" d="M202.95,21.8h-2.03c-4.12-2.09-9.16-3.77-14.81-4.88v-0.77C192.62,17.38,198.38,19.33,202.95,21.8z"/>
		<path class="st0" d="M211.64,28.93h-1.58c-2-2.67-5.15-5.09-9.15-7.13h2.03C206.75,23.86,209.73,26.27,211.64,28.93z"/>
	</g>
	<g>
		<path class="st0" d="M153.7,30.35v4.84h-26.44c-0.01,0.21-0.02,0.43-0.02,0.64v-5.49H153.7z"/>
		<path class="st1" d="M153.7,35.91v0.3c0-0.05,0-0.1,0-0.15L153.7,35.91z M153.71,36.53c-0.01-0.09-0.01-0.19-0.01-0.28v0.38h0.01
			L153.71,36.53z M127.24,35.2v0.64c0-0.21,0.01-0.43,0.02-0.64H127.24z M153.7,35.91v0.3c0-0.05,0-0.1,0-0.15L153.7,35.91z
			 M127.24,35.2v0.64c0-0.21,0.01-0.43,0.02-0.64H127.24z M153.7,35.91v0.3c0-0.05,0-0.1,0-0.15L153.7,35.91z M155.19,35.91v0.71
			h1.49v-0.71H155.19z M153.7,35.91v0.3c0-0.05,0-0.1,0-0.15L153.7,35.91z M127.24,35.2v0.64c0-0.21,0.01-0.43,0.02-0.64H127.24z
			 M153.7,35.91v0.3c0-0.05,0-0.1,0-0.15L153.7,35.91z M127.24,35.2v0.64c0-0.21,0.01-0.43,0.02-0.64H127.24z M153.7,35.91v0.3
			c0-0.05,0-0.1,0-0.15L153.7,35.91z"/>
		<path class="st0" d="M127.28,36.62h-1.49c-0.02-0.24-0.03-0.47-0.03-0.71h1.49C127.25,36.15,127.26,36.39,127.28,36.62z"/>
		<path class="st0" d="M127.24,30.38v5.53h-1.49v-0.07C125.76,33.95,126.27,32.12,127.24,30.38z"/>
		<path class="st0" d="M155.19,29.64v6.27h-1.49v-5.56h-26.44c0.13-0.24,0.27-0.48,0.43-0.71H155.19z"/>
		<path class="st0" d="M155.19,35.91v0.71h-1.47l0-0.1c-0.01-0.09-0.01-0.19-0.01-0.28v-0.03c0-0.05,0-0.1,0-0.15l0-0.16H155.19z"/>
		<path class="st0" d="M153.7,35.2v0.71h-26.46v-0.07c0-0.21,0.01-0.43,0.02-0.64H153.7z"/>
		<path class="st0" d="M153.7,35.91v0.71h-26.43c-0.02-0.24-0.03-0.47-0.03-0.71H153.7z"/>
	</g>
	<g>
		<path class="st0" d="M212.57,30.35v5.49c0-0.21-0.01-0.43-0.02-0.64h-26.44v-4.84H212.57z"/>
		<path class="st1" d="M212.55,35.2c0.01,0.21,0.02,0.43,0.02,0.64V35.2H212.55z M212.55,35.2c0.01,0.21,0.02,0.43,0.02,0.64V35.2
			H212.55z M212.55,35.2c0.01,0.21,0.02,0.43,0.02,0.64V35.2H212.55z M212.55,35.2c0.01,0.21,0.02,0.43,0.02,0.64V35.2H212.55z
			 M212.55,35.2c0.01,0.21,0.02,0.43,0.02,0.64V35.2H212.55z M212.55,35.2c0.01,0.21,0.02,0.43,0.02,0.64V35.2H212.55z
			 M214.05,28.93v6.98c0,0.13-0.01,0.25-0.01,0.38c0,0.06-0.01,0.11-0.01,0.17c0,0.06-0.01,0.11-0.01,0.17h1.52v-7.7H214.05z
			 M212.55,35.2c0.01,0.21,0.02,0.43,0.02,0.64V35.2H212.55z M212.55,35.2c0.01,0.21,0.02,0.43,0.02,0.64V35.2H212.55z M212.55,35.2
			c0.01,0.21,0.02,0.43,0.02,0.64V35.2H212.55z M212.55,35.2c0.01,0.21,0.02,0.43,0.02,0.64V35.2H212.55z M212.55,35.2
			c0.01,0.21,0.02,0.43,0.02,0.64V35.2H212.55z M183.14,28.93v7.7h1.49v-7.7H183.14z"/>
		<path class="st0" d="M214.05,29.64v0.65c-0.12-0.22-0.24-0.43-0.38-0.65H214.05z"/>
		<path class="st0" d="M214.05,28.93v0.71h-0.38c-0.04-0.07-0.08-0.14-0.13-0.21c-0.11-0.17-0.22-0.34-0.34-0.5H214.05z"/>
		<path class="st0" d="M213.68,29.64h-1.11v-0.71h0.65c0.12,0.17,0.23,0.33,0.34,0.5C213.59,29.5,213.64,29.57,213.68,29.64z"/>
		<path class="st0" d="M214.05,30.29v5.55c0-1.89-0.51-3.72-1.49-5.46v-0.74h1.11C213.81,29.86,213.94,30.07,214.05,30.29z"/>
		<rect x="184.62" y="35.91" class="st0" width="1.49" height="0.71"/>
		<rect x="184.62" y="29.64" class="st0" width="1.49" height="6.27"/>
		<rect x="184.62" y="28.93" class="st0" width="1.49" height="0.71"/>
		<path class="st0" d="M212.57,29.64v0.71h-0.01c-0.13-0.24-0.27-0.48-0.43-0.71H212.57z"/>
		<path class="st0" d="M212.57,28.93v0.71h-0.44c-0.15-0.24-0.32-0.48-0.48-0.71H212.57z"/>
		<path class="st0" d="M212.55,30.35h-1.54c-0.1-0.17-0.2-0.34-0.31-0.5c-0.04-0.07-0.09-0.14-0.14-0.21h1.56
			C212.28,29.88,212.42,30.11,212.55,30.35z"/>
		<path class="st0" d="M212.13,29.64h-1.56c-0.16-0.24-0.33-0.48-0.5-0.71h1.58C211.81,29.16,211.98,29.4,212.13,29.64z"/>
		<path class="st0" d="M210.57,29.64h-24.46v-0.71h23.96C210.24,29.16,210.41,29.4,210.57,29.64z"/>
		<path class="st0" d="M211.01,30.35h-24.9v-0.71h24.46c0.05,0.07,0.09,0.14,0.14,0.21C210.81,30.02,210.91,30.18,211.01,30.35z"/>
		<path class="st0" d="M212.57,35.84v0.07c0,0,0,0,0,0h-26.46V35.2h26.44C212.56,35.41,212.57,35.63,212.57,35.84z"/>
		<path class="st0" d="M214.05,35.84v0.07c0,0.13-0.01,0.25-0.01,0.38c0,0.06-0.01,0.11-0.01,0.17c0,0.06-0.01,0.11-0.01,0.17
			c-0.01,0.14-0.02,0.27-0.04,0.41c0,0,0,0,0,0v0.01c-0.01,0.1-0.02,0.19-0.04,0.29c0,0.02,0,0.03-0.01,0.05
			c-0.01,0.03-0.01,0.07-0.01,0.1c0,0.01,0,0.01,0,0.02l-0.04,0.25c0,0.01,0,0.02-0.01,0.04c-0.01,0.03-0.01,0.06-0.02,0.08
			c-0.01,0.08-0.03,0.16-0.05,0.24c0,0,0,0,0,0.01c-0.01,0.07-0.03,0.14-0.05,0.21c0,0.01-0.01,0.03-0.01,0.04
			c-0.01,0.06-0.02,0.11-0.04,0.17c0,0.02-0.01,0.03-0.01,0.05c-0.01,0.05-0.03,0.1-0.04,0.15c-0.02,0.09-0.05,0.19-0.08,0.28
			c-0.01,0.03-0.01,0.05-0.02,0.08c-0.02,0.06-0.04,0.12-0.06,0.18c-0.02,0.06-0.04,0.12-0.06,0.18c-0.02,0.06-0.04,0.12-0.07,0.18
			c-0.02,0.06-0.05,0.12-0.07,0.18c-0.04,0.12-0.09,0.23-0.14,0.35c-0.04,0.1-0.09,0.2-0.13,0.29c-0.01,0.03-0.02,0.05-0.04,0.08
			c-0.05,0.11-0.11,0.22-0.16,0.33c-0.01,0.02-0.02,0.05-0.03,0.07c-0.05,0.1-0.1,0.2-0.16,0.29c-0.05,0.09-0.1,0.17-0.15,0.26
			c-0.07,0.12-0.15,0.25-0.22,0.37c-0.02,0.04-0.05,0.08-0.07,0.11c-0.04,0.06-0.08,0.12-0.12,0.19c-0.08,0.13-0.16,0.25-0.25,0.37
			c-0.09,0.13-0.18,0.25-0.27,0.37c-0.07,0.1-0.15,0.19-0.22,0.29c-0.05,0.07-0.11,0.14-0.16,0.2c-0.03,0.04-0.07,0.09-0.1,0.13
			c-0.06,0.07-0.11,0.14-0.17,0.21c-0.1,0.11-0.19,0.23-0.29,0.34c-0.1,0.11-0.2,0.23-0.31,0.34c-0.02,0.02-0.04,0.04-0.05,0.06
			c-0.09,0.1-0.18,0.19-0.27,0.28c-0.1,0.11-0.21,0.21-0.32,0.32c-0.1,0.1-0.21,0.2-0.31,0.3c-0.07,0.07-0.14,0.14-0.21,0.2
			c-0.01,0.01-0.01,0.01-0.02,0.02c-0.36,0.33-0.73,0.65-1.12,0.97c-0.13,0.11-0.26,0.21-0.4,0.32c-0.12,0.09-0.23,0.18-0.35,0.27
			c-0.07,0.05-0.14,0.11-0.21,0.16c-0.01,0-0.01,0.01-0.02,0.01c-0.09,0.06-0.17,0.13-0.26,0.19c-0.15,0.11-0.29,0.21-0.44,0.31
			c-0.15,0.1-0.3,0.21-0.45,0.31c-0.07,0.05-0.15,0.1-0.22,0.15c-0.01,0.01-0.02,0.02-0.03,0.02c-0.19,0.12-0.38,0.25-0.57,0.37
			c-0.02,0.01-0.04,0.02-0.06,0.04c-0.13,0.09-0.27,0.17-0.41,0.26c-0.02,0.01-0.04,0.02-0.06,0.03c-0.03,0.02-0.06,0.04-0.09,0.05
			c-0.11,0.07-0.23,0.14-0.34,0.2c-0.1,0.06-0.21,0.13-0.32,0.19c-0.17,0.1-0.34,0.2-0.52,0.29c-0.13,0.07-0.27,0.15-0.4,0.22
			c-0.13,0.07-0.27,0.14-0.4,0.21c-0.28,0.15-0.56,0.29-0.85,0.43c-0.14,0.07-0.29,0.14-0.43,0.21c-0.14,0.07-0.28,0.13-0.42,0.2
			c-0.31,0.14-0.62,0.28-0.93,0.42c-0.12,0.05-0.25,0.11-0.37,0.16c-0.03,0.02-0.07,0.03-0.1,0.04c-0.01,0-0.01,0.01-0.02,0.01
			c-0.12,0.05-0.25,0.11-0.38,0.16c-0.15,0.06-0.31,0.13-0.46,0.19c-0.15,0.06-0.31,0.13-0.47,0.19c-0.16,0.06-0.32,0.12-0.47,0.18
			c-0.16,0.06-0.32,0.12-0.48,0.18c-0.34,0.13-0.68,0.25-1.03,0.37c-0.15,0.05-0.3,0.1-0.45,0.16c-0.21,0.07-0.42,0.14-0.63,0.21
			c-0.17,0.06-0.34,0.11-0.52,0.17c-0.14,0.05-0.29,0.09-0.43,0.14c-0.11,0.03-0.21,0.07-0.32,0.1c-0.21,0.07-0.43,0.13-0.65,0.2
			c-0.23,0.07-0.47,0.14-0.71,0.21c0,0-0.01,0-0.01,0c-0.04,0.01-0.07,0.02-0.1,0.03c-0.18,0.05-0.36,0.1-0.55,0.15
			c-0.45,0.12-0.91,0.24-1.37,0.35c-0.11,0.03-0.23,0.06-0.34,0.08c-0.02,0.01-0.04,0.01-0.06,0.02c-0.07,0.02-0.13,0.03-0.2,0.05
			c-0.14,0.03-0.29,0.07-0.43,0.1c-0.18,0.04-0.37,0.09-0.56,0.13c-0.16,0.04-0.31,0.07-0.47,0.1c-0.01,0-0.01,0-0.02,0
			c-0.4,0.09-0.8,0.17-1.21,0.25c-0.24,0.05-0.49,0.1-0.73,0.14c-0.26,0.05-0.53,0.1-0.79,0.15c-0.26,0.05-0.53,0.09-0.8,0.14v-0.76
			c0.5-0.09,1-0.18,1.49-0.28v0c0.02,0,0.04-0.01,0.06-0.01c0.01,0,0.01,0,0.02,0c0.05-0.01,0.1-0.02,0.15-0.03
			c0.22-0.04,0.44-0.09,0.66-0.13c0.14-0.03,0.28-0.06,0.42-0.09c0.19-0.04,0.39-0.08,0.58-0.13c0.1-0.02,0.19-0.04,0.29-0.06
			c0.1-0.02,0.19-0.04,0.28-0.07c0.01,0,0.02,0,0.03-0.01c0.1-0.02,0.21-0.05,0.31-0.07c0.17-0.04,0.34-0.08,0.5-0.12
			c0.05-0.01,0.11-0.03,0.16-0.04c0.15-0.04,0.31-0.08,0.46-0.12c0.13-0.03,0.27-0.07,0.4-0.1c0.19-0.05,0.38-0.1,0.56-0.15
			c0.22-0.06,0.44-0.12,0.66-0.18c0.08-0.02,0.17-0.05,0.25-0.07c0.08-0.02,0.17-0.05,0.25-0.07c0.04-0.01,0.07-0.02,0.1-0.03
			c0.07-0.02,0.15-0.04,0.22-0.07c0.18-0.05,0.37-0.11,0.54-0.17c0.01,0,0.02-0.01,0.03-0.01c0.46-0.14,0.91-0.29,1.36-0.44
			c0.01,0,0.02-0.01,0.04-0.01c0.43-0.14,0.85-0.29,1.26-0.44c0.01,0,0.01,0,0.02-0.01c0.12-0.05,0.25-0.09,0.37-0.14
			c0.09-0.03,0.18-0.07,0.27-0.1c0.11-0.04,0.21-0.08,0.32-0.12c0.1-0.04,0.21-0.08,0.32-0.12c0.21-0.08,0.42-0.17,0.62-0.25
			c0.2-0.08,0.39-0.16,0.59-0.24c0.04-0.02,0.09-0.04,0.13-0.06c0.17-0.07,0.33-0.14,0.49-0.22c0.11-0.05,0.21-0.09,0.32-0.14
			c0.09-0.04,0.18-0.08,0.27-0.12l0.28-0.13c0.08-0.04,0.16-0.08,0.24-0.12c0.01,0,0.02-0.01,0.03-0.01
			c0.03-0.01,0.06-0.03,0.08-0.04c0.15-0.07,0.29-0.14,0.43-0.21c0.07-0.04,0.15-0.08,0.23-0.11c0.15-0.07,0.29-0.15,0.44-0.22
			c0.09-0.05,0.18-0.09,0.26-0.14c0.09-0.05,0.17-0.09,0.26-0.14c0.17-0.09,0.33-0.18,0.49-0.27c0.04-0.02,0.07-0.04,0.11-0.06
			c0.15-0.09,0.31-0.17,0.46-0.26c0.11-0.06,0.22-0.13,0.33-0.19c0,0,0,0,0,0c0.02-0.01,0.04-0.03,0.07-0.04
			c0.07-0.04,0.15-0.09,0.22-0.14c0.11-0.07,0.22-0.13,0.33-0.2c0.03-0.02,0.06-0.04,0.1-0.06c0.01-0.01,0.03-0.02,0.04-0.03
			c0.1-0.06,0.19-0.12,0.28-0.18c0.15-0.1,0.3-0.19,0.44-0.29c0.05-0.03,0.1-0.07,0.15-0.1c0.01,0,0.01-0.01,0.02-0.01
			c0.13-0.09,0.26-0.18,0.39-0.27c0.16-0.11,0.32-0.23,0.48-0.34c0.16-0.12,0.31-0.23,0.46-0.35c0.1-0.07,0.19-0.14,0.28-0.22
			c0.11-0.08,0.21-0.17,0.32-0.25c0.11-0.09,0.22-0.18,0.32-0.27c0.11-0.09,0.21-0.18,0.32-0.27c0.1-0.09,0.2-0.18,0.3-0.27
			c0.08-0.07,0.17-0.15,0.25-0.23c0.01,0,0.01-0.01,0.01-0.01c0.15-0.14,0.31-0.29,0.45-0.43c0.06-0.06,0.12-0.11,0.18-0.17
			c0.08-0.08,0.16-0.16,0.24-0.25c0.21-0.22,0.41-0.44,0.61-0.67c0.08-0.09,0.16-0.18,0.23-0.28c0.07-0.09,0.14-0.17,0.21-0.26
			c0.01-0.01,0.01-0.01,0.01-0.02c0.01-0.01,0.01-0.01,0.01-0.02c0.01-0.01,0.01-0.01,0.01-0.02c0.05-0.07,0.11-0.14,0.16-0.21
			c0.07-0.09,0.14-0.18,0.21-0.28c0.07-0.09,0.13-0.18,0.19-0.27c0.03-0.04,0.06-0.09,0.09-0.13c0.07-0.1,0.14-0.2,0.2-0.3
			c0.01-0.01,0.01-0.01,0.01-0.02c0.08-0.12,0.15-0.24,0.22-0.35c0.06-0.1,0.12-0.2,0.18-0.3c0,0,0-0.01,0.01-0.01
			c0,0,0-0.01,0.01-0.01c0.02-0.03,0.03-0.06,0.05-0.09c0.04-0.08,0.09-0.16,0.13-0.24c0-0.01,0.01-0.01,0.01-0.02
			c0.03-0.05,0.06-0.11,0.08-0.16c0.01-0.01,0.01-0.03,0.02-0.04c0.01-0.01,0.01-0.01,0.01-0.02c0.02-0.04,0.04-0.08,0.07-0.13
			c0.01-0.01,0.01-0.02,0.01-0.03c0.02-0.03,0.03-0.06,0.04-0.09c0.05-0.1,0.1-0.2,0.14-0.3c0.01-0.03,0.03-0.06,0.04-0.09
			c0.04-0.09,0.08-0.18,0.12-0.28c0.01-0.04,0.03-0.07,0.04-0.11c0,0,0,0,0-0.01c0.04-0.09,0.07-0.18,0.1-0.26c0,0,0-0.01,0-0.01
			c0,0,0,0,0-0.01c0.04-0.11,0.08-0.22,0.12-0.33c0.02-0.06,0.04-0.12,0.06-0.19c0.03-0.08,0.05-0.17,0.07-0.25
			c0.03-0.11,0.06-0.22,0.09-0.33c0.01-0.03,0.01-0.06,0.02-0.1c0.02-0.08,0.04-0.17,0.06-0.26v-0.01c0.01-0.06,0.02-0.11,0.04-0.17
			c0-0.02,0.01-0.04,0.01-0.06c0.01-0.07,0.03-0.15,0.04-0.22c0.02-0.11,0.04-0.22,0.05-0.33c0.01-0.03,0.01-0.05,0.01-0.08
			c0.01-0.09,0.02-0.17,0.03-0.26c0-0.05,0.01-0.1,0.01-0.15c0.01-0.11,0.02-0.22,0.02-0.33c0.01-0.13,0.01-0.26,0.01-0.38
			c0,0,0,0,0,0v-5.53C213.54,32.12,214.05,33.95,214.05,35.84z"/>
		<path class="st0" d="M212.57,35.91c0,0.13-0.01,0.26-0.01,0.38c0,0.11-0.01,0.22-0.02,0.33h-26.43v-0.71H212.57z"/>
		<path d="M183.14,36.21v0.02c-0.02,2.67-3.56,5.07-8.82,5.96c-1.41,0.24-2.89,0.36-4.41,0.36c-1.52,0-3-0.12-4.41-0.36
			c-5.26-0.89-8.8-3.29-8.82-5.96v-0.02c0-0.09,0.01-0.18,0.01-0.28l0-0.03h26.43l0,0.03C183.13,36.03,183.14,36.12,183.14,36.21z"
			/>
	</g>
</g>
</svg>
